/* XPM */
static char * bear_exit_right_xpm[] = {
"32 32 693 2",
"  	c #663300",
". 	c #CC6633",
"+ 	c #FFAE4C",
"@ 	c #FFCC66",
"# 	c #FFCC33",
"$ 	c #FFC054",
"% 	c #FF9933",
"& 	c #FFCC99",
"* 	c #EAA149",
"= 	c #BD9047",
"- 	c #A47D40",
"; 	c #A47138",
"> 	c #A38144",
", 	c #A47139",
"' 	c #A48449",
") 	c #BF9A52",
"! 	c #ECBD60",
"~ 	c #E09A47",
"{ 	c #8F703F",
"] 	c #595042",
"^ 	c #605B4E",
"/ 	c #615D51",
"( 	c #615D52",
"_ 	c #5F594E",
": 	c #927644",
"< 	c #E1B45C",
"[ 	c #DE9844",
"} 	c #8B6A3B",
"| 	c #646155",
"1 	c #7B8075",
"2 	c #81887D",
"3 	c #80877C",
"4 	c #7A7F75",
"5 	c #636055",
"6 	c #8C7041",
"7 	c #DFB25A",
"8 	c #FDAD4C",
"9 	c #F0C163",
"0 	c #DFB45F",
"a 	c #DAAF83",
"b 	c #D9AD2F",
"c 	c #D9AD57",
"d 	c #DAAE58",
"e 	c #BE813B",
"f 	c #7A5C34",
"g 	c #656357",
"h 	c #82897C",
"i 	c #8C9588",
"j 	c #8C968A",
"k 	c #8B9588",
"l 	c #666458",
"m 	c #8C6F3F",
"n 	c #DFB259",
"o 	c #FBAC4C",
"p 	c #D5AD5E",
"q 	c #9C8352",
"r 	c #856F56",
"s 	c #846A34",
"t 	c #83683E",
"u 	c #84693D",
"v 	c #82683C",
"w 	c #74502D",
"x 	c #543F29",
"y 	c #5D594B",
"z 	c #7B7D6D",
"A 	c #878E80",
"B 	c #8A9388",
"C 	c #7C7E6E",
"D 	c #635D4E",
"E 	c #8B6F3F",
"F 	c #DEB159",
"G 	c #FCAC4C",
"H 	c #CAA357",
"I 	c #736449",
"J 	c #656255",
"K 	c #6A6A5E",
"L 	c #686557",
"M 	c #615B4B",
"N 	c #574B3C",
"O 	c #4C3C2D",
"P 	c #463629",
"Q 	c #585041",
"R 	c #716F5E",
"S 	c #818678",
"T 	c #899286",
"U 	c #83897B",
"V 	c #747463",
"W 	c #5E5747",
"X 	c #8A6E3E",
"Y 	c #FECB66",
"Z 	c #F9BC53",
"` 	c #F9BB53",
" .	c #F89533",
"..	c #F8C764",
"+.	c #FAC864",
"@.	c #F4A74A",
"#.	c #AD8A4A",
"$.	c #59473D",
"%.	c #5A5553",
"&.	c #64635F",
"*.	c #6B6A61",
"=.	c #71705F",
"-.	c #625B49",
";.	c #534534",
">.	c #4D3D2F",
",.	c #4E403A",
"'.	c #514845",
").	c #615E5A",
"!.	c #7E847B",
"~.	c #7E8376",
"{.	c #6C6B5C",
"].	c #5A5142",
"^.	c #896D3E",
"/.	c #DD9744",
"(.	c #EFBF34",
"_.	c #E4B65E",
":.	c #DEB25D",
"<.	c #C58949",
"[.	c #B3894A",
"}.	c #AF8444",
"|.	c #AF6A32",
"1.	c #AF8A4B",
"2.	c #B08C4C",
"3.	c #AB763E",
"4.	c #755941",
"5.	c #553D45",
"6.	c #5D4E4F",
"7.	c #666156",
"8.	c #5B5347",
"9.	c #504237",
"0.	c #4F3F36",
"a.	c #5F4D48",
"b.	c #66504E",
"c.	c #665450",
"d.	c #716D64",
"e.	c #727366",
"f.	c #676353",
"g.	c #574C3D",
"h.	c #886C3D",
"i.	c #DC9644",
"j.	c #F5C463",
"k.	c #B69039",
"l.	c #785C45",
"m.	c #775B45",
"n.	c #634641",
"o.	c #523E41",
"p.	c #503C3F",
"q.	c #503A3E",
"r.	c #503B3F",
"s.	c #4F3A3F",
"t.	c #4E373D",
"u.	c #654D4D",
"v.	c #7B615C",
"w.	c #7C615C",
"x.	c #7D625C",
"y.	c #745B58",
"z.	c #564347",
"A.	c #49363E",
"B.	c #46313C",
"C.	c #4F393F",
"D.	c #856E61",
"E.	c #9E8370",
"F.	c #987E6C",
"G.	c #715D56",
"H.	c #5E5650",
"I.	c #65604F",
"J.	c #855D35",
"K.	c #D9AC58",
"L.	c #EFA349",
"M.	c #B99253",
"N.	c #846649",
"O.	c #755C57",
"P.	c #856D61",
"Q.	c #887062",
"R.	c #876F62",
"S.	c #836B60",
"T.	c #725956",
"U.	c #836960",
"V.	c #997D6D",
"W.	c #9A7E6E",
"X.	c #9A7F6E",
"Y.	c #907668",
"Z.	c #735956",
"`.	c #6A5152",
" +	c #674A4B",
".+	c #633E40",
"++	c #917564",
"@+	c #A0836F",
"#+	c #8C6B5C",
"$+	c #896D5F",
"%+	c #7A675C",
"&+	c #5A504B",
"*+	c #493B3D",
"=+	c #634337",
"-+	c #A5824B",
";+	c #663301",
">+	c #BC6036",
",+	c #BA8047",
"'+	c #71564B",
")+	c #7C635C",
"!+	c #977C6C",
"~+	c #A58A75",
"{+	c #A88D76",
"]+	c #A78C76",
"^+	c #A48974",
"/+	c #94786A",
"(+	c #A28773",
"_+	c #917568",
":+	c #83655D",
"<+	c #7D5A54",
"[+	c #825E53",
"}+	c #9B7D6A",
"|+	c #9C7F6C",
"1+	c #856255",
"2+	c #8C6F61",
"3+	c #8B7365",
"4+	c #7C675D",
"5+	c #7A665C",
"6+	c #675350",
"7+	c #6A5041",
"8+	c #63320D",
"9+	c #874B3A",
"0+	c #654847",
"a+	c #7C615B",
"b+	c #A68B76",
"c+	c #876558",
"d+	c #7E574E",
"e+	c #9B7E6C",
"f+	c #A58A74",
"g+	c #A68B75",
"h+	c #9E836F",
"i+	c #7A6359",
"j+	c #8B7666",
"k+	c #BAA285",
"l+	c #BFA789",
"m+	c #998470",
"n+	c #705645",
"o+	c #552F2C",
"p+	c #663839",
"q+	c #694546",
"r+	c #82655E",
"s+	c #9C816F",
"t+	c #A88D77",
"u+	c #A78D76",
"v+	c #A68A75",
"w+	c #896558",
"x+	c #774D48",
"y+	c #8F7365",
"z+	c #A08572",
"A+	c #A58D77",
"B+	c #B39B80",
"C+	c #C6AE8E",
"D+	c #CAB190",
"E+	c #A28C75",
"F+	c #6D5446",
"G+	c #492C37",
"H+	c #5D3138",
"I+	c #734745",
"J+	c #81645D",
"K+	c #93786A",
"L+	c #A38873",
"M+	c #9E8371",
"N+	c #714644",
"O+	c #80635D",
"P+	c #A48975",
"Q+	c #B3997F",
"R+	c #C3A98B",
"S+	c #C9B090",
"T+	c #C5AC8D",
"U+	c #B39C81",
"V+	c #8F7865",
"W+	c #99784A",
"X+	c #4C2D34",
"Y+	c #714745",
"Z+	c #7F625C",
"`+	c #836861",
" @	c #907568",
".@	c #8B7065",
"+@	c #8A675A",
"@@	c #734946",
"#@	c #7E5F59",
"$@	c #7F635E",
"%@	c #977E6E",
"&@	c #B9A185",
"*@	c #C0A889",
"=@	c #C1A98A",
"-@	c #816E61",
";@	c #67493D",
">@	c #CCA252",
",@	c #5D311F",
"'@	c #6E3D38",
")@	c #624347",
"!@	c #7D615C",
"~@	c #81655F",
"{@	c #856961",
"]@	c #967B6C",
"^@	c #886D63",
"/@	c #8C7166",
"(@	c #9B806F",
"_@	c #907365",
":@	c #795651",
"<@	c #734B49",
"[@	c #644447",
"}@	c #685351",
"|@	c #7E6A5E",
"1@	c #816D60",
"2@	c #816C60",
"3@	c #817066",
"4@	c #6E6B6C",
"5@	c #735136",
"6@	c #D6A953",
"7@	c #653305",
"8@	c #774237",
"9@	c #594147",
"0@	c #82665F",
"a@	c #80645F",
"b@	c #836760",
"c@	c #9B816F",
"d@	c #83645B",
"e@	c #795652",
"f@	c #7A5753",
"g@	c #8A6C61",
"h@	c #896B60",
"i@	c #74504D",
"j@	c #61373C",
"k@	c #564348",
"l@	c #666B6F",
"m@	c #6A7073",
"n@	c #696E71",
"o@	c #6D7479",
"p@	c #747E85",
"q@	c #717B7E",
"r@	c #7D5A39",
"s@	c #D4A853",
"t@	c #653306",
"u@	c #764237",
"v@	c #80615A",
"w@	c #6D3A39",
"x@	c #6D3B3A",
"y@	c #6E3C3B",
"z@	c #78534F",
"A@	c #8A6E64",
"B@	c #9D826F",
"C@	c #876960",
"D@	c #764F4B",
"E@	c #64373A",
"F@	c #4B2E3B",
"G@	c #5D5C5E",
"H@	c #8C9D9C",
"I@	c #93A49F",
"J@	c #8E9B93",
"K@	c #93A4A0",
"L@	c #93A5A4",
"M@	c #727C7B",
"N@	c #7B5837",
"O@	c #754037",
"P@	c #826660",
"Q@	c #7B5B56",
"R@	c #724745",
"S@	c #6C3636",
"T@	c #6C3737",
"U@	c #76504D",
"V@	c #836660",
"W@	c #8B6F65",
"X@	c #8E7267",
"Y@	c #876A60",
"Z@	c #764E4A",
"`@	c #6E3D3C",
" #	c #623338",
".#	c #4B3540",
"+#	c #6C7372",
"@#	c #8F9F99",
"##	c #94A49E",
"$#	c #93A29C",
"%#	c #97A9A5",
"&#	c #93A6A4",
"*#	c #717A77",
"=#	c #7A5737",
"-#	c #D3A853",
";#	c #653304",
">#	c #8A4A33",
",#	c #5E4541",
"'#	c #6B5251",
")#	c #7A5F5B",
"!#	c #7E635D",
"~#	c #715756",
"{#	c #644648",
"]#	c #5F3439",
"^#	c #683537",
"/#	c #6C3736",
"(#	c #693536",
"_#	c #603238",
":#	c #634346",
"<#	c #705654",
"[#	c #80655F",
"}#	c #7B5B57",
"|#	c #6B3334",
"1#	c #623237",
"2#	c #4D3C47",
"3#	c #7B8685",
"4#	c #8F9C94",
"5#	c #92A19A",
"6#	c #98ABA7",
"7#	c #9BB0AE",
"8#	c #94A8A6",
"9#	c #717B78",
"0#	c #795737",
"a#	c #D2A752",
"b#	c #A25833",
"c#	c #664B3A",
"d#	c #4D3840",
"e#	c #6F5654",
"f#	c #846861",
"g#	c #846960",
"h#	c #6C5552",
"i#	c #523C43",
"j#	c #633438",
"k#	c #6F3B3A",
"l#	c #6B3F3F",
"m#	c #583A41",
"n#	c #49313F",
"o#	c #543D45",
"p#	c #795E5A",
"q#	c #866A62",
"r#	c #84655D",
"s#	c #79514A",
"t#	c #734440",
"u#	c #683E40",
"v#	c #58444B",
"w#	c #7A8282",
"x#	c #8A968E",
"y#	c #91A099",
"z#	c #99ADAA",
"A#	c #9CB2B0",
"B#	c #95A8A7",
"C#	c #727C79",
"D#	c #785737",
"E#	c #D2A652",
"F#	c #A35A35",
"G#	c #674F3B",
"H#	c #4A363F",
"I#	c #6E5453",
"J#	c #9A806E",
"K#	c #7E675D",
"L#	c #4F363F",
"M#	c #623337",
"N#	c #744A47",
"O#	c #775B58",
"P#	c #5F474B",
"Q#	c #523B44",
"R#	c #93776A",
"S#	c #8B6D61",
"T#	c #7B5D59",
"U#	c #765D5A",
"V#	c #665B5C",
"W#	c #6D716D",
"X#	c #8B9891",
"Y#	c #97AAA6",
"Z#	c #9AAFAC",
"`#	c #93A6A3",
" $	c #775637",
".$	c #D1A652",
"+$	c #A25733",
"@$	c #694F37",
"#$	c #51423D",
"$$	c #67544C",
"%$	c #7B6657",
"&$	c #88725E",
"*$	c #89725F",
"=$	c #79685B",
"-$	c #655E5A",
";$	c #70625A",
">$	c #77655A",
",$	c #7B6B5F",
"'$	c #7A6B5F",
")$	c #6D625A",
"!$	c #655F5C",
"~$	c #7D756E",
"{$	c #92897C",
"]$	c #9C9181",
"^$	c #9C9282",
"/$	c #928C81",
"($	c #8B8883",
"_$	c #8C8C88",
":$	c #787A78",
"<$	c #6F716C",
"[$	c #828A81",
"}$	c #909E97",
"|$	c #94A49D",
"1$	c #8D9B95",
"2$	c #6D736D",
"3$	c #775535",
"4$	c #D0A551",
"5$	c #A05530",
"6$	c #6B4E31",
"7$	c #534535",
"8$	c #584C3A",
"9$	c #594D3B",
"0$	c #554836",
"a$	c #4D3D2E",
"b$	c #5E594F",
"c$	c #7C8277",
"d$	c #848B7E",
"e$	c #7F8270",
"f$	c #7C7D69",
"g$	c #7D7E6B",
"h$	c #818576",
"i$	c #858D81",
"j$	c #889084",
"k$	c #899185",
"l$	c #8A9286",
"m$	c #8B9488",
"n$	c #8C968B",
"o$	c #909D94",
"p$	c #95A7A2",
"q$	c #8F9E99",
"r$	c #7F877D",
"s$	c #7E8478",
"t$	c #878F84",
"u$	c #8B9589",
"v$	c #868F83",
"w$	c #696B61",
"x$	c #765432",
"y$	c #9F542F",
"z$	c #694D30",
"A$	c #524433",
"B$	c #574A38",
"C$	c #534635",
"D$	c #483829",
"E$	c #544D42",
"F$	c #707266",
"G$	c #797C6E",
"H$	c #767767",
"I$	c #787561",
"J$	c #7B755F",
"K$	c #7B7967",
"L$	c #7B7D6F",
"M$	c #7D7D6D",
"N$	c #807E6C",
"O$	c #838473",
"P$	c #858B7D",
"Q$	c #8D998E",
"R$	c #909E95",
"S$	c #909F98",
"T$	c #8D9C96",
"U$	c #859089",
"V$	c #7C8176",
"W$	c #7F8374",
"X$	c #656457",
"Y$	c #745230",
"Z$	c #CFA451",
"`$	c #6A4D32",
" %	c #55493A",
".%	c #5C5342",
"+%	c #5D5443",
"@%	c #594F3F",
"#%	c #4F4437",
"$%	c #544D41",
"%%	c #666456",
"&%	c #6E6C5D",
"*%	c #6E6A59",
"=%	c #736C58",
"-%	c #797059",
";%	c #77725D",
">%	c #747261",
",%	c #787461",
"'%	c #7D7763",
")%	c #7D7B67",
"!%	c #7E8170",
"~%	c #858A7C",
"{%	c #888F82",
"]%	c #8D9991",
"^%	c #94A4A0",
"/%	c #787B6E",
"(%	c #787764",
"_%	c #7A7965",
":%	c #625D4D",
"<%	c #72502E",
"[%	c #CEA451",
"}%	c #9E532E",
"|%	c #6A4F34",
"1%	c #5C5446",
"2%	c #666253",
"3%	c #686455",
"4%	c #635F51",
"5%	c #646154",
"6%	c #6A685A",
"7%	c #6C6756",
"8%	c #6D634D",
"9%	c #746C55",
"0%	c #7C7963",
"a%	c #7D7C67",
"b%	c #7C7D6A",
"c%	c #818575",
"d%	c #848879",
"e%	c #7B7D6E",
"f%	c #767463",
"g%	c #7C7765",
"h%	c #7D7A68",
"i%	c #7A7B6C",
"j%	c #80887D",
"k%	c #8D9890",
"l%	c #899389",
"m%	c #7D8070",
"n%	c #7B7762",
"o%	c #615542",
"p%	c #714F2C",
"q%	c #CEA351",
"r%	c #9C512D",
"s%	c #644A32",
"t%	c #5D5445",
"u%	c #696454",
"v%	c #6C6A5A",
"w%	c #6E6C5C",
"x%	c #6F6C5B",
"y%	c #6E6958",
"z%	c #6A6554",
"A%	c #69614E",
"B%	c #6C604A",
"C%	c #736C57",
"D%	c #7A7A66",
"E%	c #7C7E6C",
"F%	c #818778",
"G%	c #828A7D",
"H%	c #7A7E70",
"I%	c #757463",
"J%	c #7B7663",
"K%	c #7A7460",
"L%	c #706A59",
"M%	c #737365",
"N%	c #80867B",
"O%	c #82887B",
"P%	c #7C7E6D",
"Q%	c #7C7863",
"R%	c #787059",
"S%	c #6E4D2B",
"T%	c #CCA251",
"U%	c #9B502B",
"V%	c #62452A",
"W%	c #574533",
"X%	c #655743",
"Y%	c #756D58",
"Z%	c #71654D",
"`%	c #64543E",
" &	c #625541",
".&	c #6A6452",
"+&	c #727161",
"@&	c #737362",
"#&	c #757767",
"$&	c #77796B",
"%&	c #7A7B6A",
"&&	c #7E806F",
"*&	c #85897A",
"=&	c #818274",
"-&	c #6F6654",
";&	c #6A604E",
">&	c #737163",
",&	c #757768",
"'&	c #797865",
")&	c #7A7764",
"!&	c #635D4C",
"~&	c #704F2E",
"{&	c #CCA250",
"]&	c #AA562C",
"^&	c #A46F34",
"/&	c #9E7B40",
"(&	c #A58436",
"_&	c #A88B57",
":&	c #AB8456",
"<&	c #AE8C55",
"[&	c #AC864A",
"}&	c #A57C3C",
"|&	c #A46B37",
"1&	c #A98E5B",
"2&	c #AA9260",
"3&	c #AA8458",
"4&	c #AA9160",
"5&	c #AA9172",
"6&	c #AB9355",
"7&	c #AF9867",
"8&	c #B39F70",
"9&	c #B7A67D",
"0&	c #B49571",
"a&	c #AB8854",
"b&	c #A78146",
"c&	c #A98052",
"d&	c #AB9160",
"e&	c #AB9260",
"f&	c #AE8A5F",
"g&	c #B19968",
"h&	c #A58B58",
"i&	c #AC763A",
"j&	c #DDB057",
"  . + @ # @ @ + $ $ % @ @ @ + @ & # @ @ @ @ + $ + @ @ @ + @ @ @ ",
"  . + @ # @ @ + $ $ % @ @ @ + @ & # @ @ @ * = - ; > > > , ' ) ! ",
"  . + @ # @ @ + $ $ % @ @ @ + @ & # @ @ @ ~ { ] ^ / / ( _ ] : < ",
"  . + @ # @ @ + $ $ % @ @ @ + @ & # @ @ @ [ } | 1 2 3 2 4 5 6 7 ",
"  . + @ # @ @ + $ $ % @ @ 8 9 0 a b c d d e f g h i j k h l m n ",
"  . + @ # @ @ + $ $ % @ @ o p q r s t u v w x y z A B A C D E F ",
"  . + @ # @ @ + $ $ % @ @ G H I J K L M N O P Q R S T U V W X F ",
"  . + @ # @ Y o Z `  ...+.@.#.$.%.&.*.=.-.;.>.,.'.).!.~.{.].^./.",
"  . + Y (._.:.<.[.}.|.1.2.3.4.5.5.5.6.7.8.9.0.a.b.c.d.e.f.g.h.i.",
"  . + j.k.l.m.n.o.p.q.r.s.t.u.v.w.x.y.z.A.B.C.D.E.F.G.H.I.g.J.K.",
"  . L.M.N.O.P.Q.R.R.R.Q.S.T.U.V.W.X.Y.Z.`. +.+++@+#+$+%+&+*+=+-+",
";+>+,+'+)+!+~+{+]+]+]+{+^+/+W.]+]+{+(+_+:+<+[+}+|+1+2+3+4+5+6+7+",
"8+9+0+a+!+~+]+]+]+]+]+]+b+^+~+]+]+]+]+(+c+d+e+f+g+h+i+j+k+l+m+n+",
"o+p+q+r+s+t+]+]+]+]+]+]+]+{+]+]+]+]+u+v+w+x+y+z+{+u+A+B+C+D+E+F+",
"G+H+I+J+K+z+]+]+]+]+]+L+M+~+]+]+]+]+]+f+w+N+O+K+P+Q+R+S+T+U+V+W+",
"X+H+Y+Z+`+ @(+]+]+]+~+!+.@E.g+]+]+]+]+f++@@@#@$@%@&@*@=@&@-@;@>@",
",@'@)@!@~@{@ @z+t+~+]@^@`+/@(@]+]+]+]+g+_@:@<@[@}@|@1@2@3@4@5@6@",
"7@8@9@w.0@a@b@K+c@!+d@e@f@f@g@s+~+t+~+s+h@i@j@k@l@m@n@o@p@q@r@s@",
"t@u@9@w.0@~@~@b@b@v@@@w@x@y@z@A@M+f+B@C@D@E@F@G@H@I@J@K@L@M@N@s@",
"t@O@9@w.P@~@~@~@Q@R@x@S@S@T@U@V@W@X@Y@Z@`@ #.#+#@###$#%#&#*#=#-#",
";#>#,#'#)#~@!#~#{#]#^#/#(#_#:#<#!@[#}#`@|#1#2#3#4#5#6#7#8#9#0#a#",
"  b#c#d#e#f#g#h#i#F@j#k#l#m#n#o#p#q#r#s#t#u#v#w#x#y#z#A#B#C#D#E#",
"  F#G#H#I#/@s+J#K#L#M#N#}#O#P#Q#p#R#E.e+S#T#U#V#W#X#Y#Z#`#*# $.$",
"  +$@$#$$$%$&$*$=$-$;$>$,$'$)$!$~${$]$^$/$($_$:$<$[$}$|$1$2$3$4$",
"  5$6$7$8$9$0$a$b$c$d$e$f$g$h$i$j$k$l$m$n$o$p$q$r$s$t$u$v$w$x$4$",
"  y$z$A$B$8$C$D$E$F$G$H$I$J$K$L$M$N$O$P$l$Q$R$S$T$U$V$W$W$X$Y$Z$",
"  y$`$ %.%+%@%#%$%%%&%*%=%-%;%>%,%'%)%!%~%{%j$]%^%X#/%(%_%:%<%[%",
"  }%|%1%2%3%2%4%5%6%7%8%9%0%a%b%c%d%e%f%g%h%i%j%k%l%m%n%-%o%p%q%",
"  r%s%t%u%v%w%x%y%z%A%B%C%D%b%E%F%G%H%I%J%K%L%M%N%O%P%Q%R%o%S%T%",
"  U%V%W%X%z%x%Y%Z%`% &.&x%+&@&V #&$&%&&&*&=&-&;&>&,&V '&)&!&~&{&",
"  ]&^&/&(&_&:&<&[&}&|&1&2&3&4&4&5&6&7&8&9&0&a&b&c&d&e&f&g&h&i&j&",
"  . + @ # @ + $ $ $ % @ @ + @ @ & # @ @ @ + $ $ + @ @ + @ @ + @ "};
