/* XPM */
static char * bear_left_xpm[] = {
"32 32 13 1",
" 	c #663300",
".	c #CC6633",
"+	c #FFAE4C",
"@	c #FFCC66",
"#	c #FFCC33",
"$	c #FFC054",
"%	c #FF9933",
"&	c #FFCC99",
"*	c #412A3B",
"=	c #A78C76",
"-	c #81655F",
";	c #6C3737",
">	c #C7AE8E",
" .+@#@@+$$%@@@+@&#@@@@+$+@@@+@@@",
" .+@#@@+$$%@@@+@&#@@@+$$+@@@+@@@",
" .+@#@@+$$%@@@+@&#@@@+$$+@@@+@@@",
" .+@#@@+$$%@@@+@&#@@@+$$+@@@+@@@",
" .+@#@@+$$%@@+@@&#@@@+$$+@@@+@@@",
" .+@#@@+$$%@@+@@&#@@@+$$+@@@+@@@",
" .+@#@@+$$%@@+@@&#@@@+$$+@@@+@@@",
" .+@#@@+$$%@@+@@&#@@@@+$+@@@+@@+",
" .+@#@@+$$%@@+@@&#@@@@+$+@@@+@@+",
" .+@#@@+$$%@@+@@&#@@@@+$+@@@+@+@",
" .+@#@@+$**@@+***#@@@@+$+@@@+@+@",
" .+@#@@+*==***---*******+@@@+@+@",
" .+@#***=;=;--===-=====-*@@@+@+@",
" .+@#*>>*===;===========-*@@+@+@",
" .+@#*>>>==-;===========-;*@+@+@",
" .+@#@*>>>--;=====-====--;*@+@+@",
" .+@#@@****;-====---==---*@@+@+@",
" .+@#@@+$$%*;-==-;;;-----*@@+@+@",
" .+@#@@+$$%*;;---;;;;----*@@+@+@",
" .+@#@@+$$%*;;--**;;**--*@@+@@+@",
" .+@#@@+$$*--==-*--;*==-*@@+@@+@",
" .+@#@@+$$%@@+@@&#@@@@+$$+@+@@+@",
" .+@#@@+$$%@@+@@&#@@@@+$$+@+@@+@",
" .+@#@@+$$%@@+@@&#@@@@+$$+@+@@+@",
" .+@#@@+$$%@@+@@&#@@@@+$$+@+@@+@",
" .+@#@@+$$%@@+@@&#@@@@+$$+@+@@+@",
" .+@#@@+$$%@@+@@&#@@@@+$$+@+@@+@",
" .+@#@@+$$%@@+@@&#@@@+$$$+@+@@+@",
" .+@#@@+$$%@@+@@&#@@@+$$$+@+@@+@",
" .+@#@+$$$%@@+@@&#@@@+$$+@@+@@+@",
" .+@#@+$$$%@@+@@&#@@@+$$+@@+@@+@",
" .+@#@+$$$%@@+@@&#@@@+$$+@@+@@+@"};
