/* XPM */
static char * BEAR_LEFT_xpm[] = {
"32 32 226 2",
"  	c #663300",
". 	c #CC6633",
"+ 	c #FFAE4C",
"@ 	c #FFCC66",
"# 	c #FFCC33",
"$ 	c #FFC054",
"% 	c #FF9933",
"& 	c #FFCC99",
"* 	c #BF974A",
"= 	c #896A32",
"- 	c #895B25",
"; 	c #B58639",
"> 	c #B97D35",
", 	c #896A4C",
"' 	c #896A19",
") 	c #CF9B42",
"! 	c #BE9724",
"~ 	c #846642",
"{ 	c #6E5445",
"] 	c #806040",
"^ 	c #A27832",
"/ 	c #A2601E",
"( 	c #A27F3D",
"_ 	c #815D3F",
": 	c #8B683C",
"< 	c #A26D2D",
"[ 	c #EFBF5F",
"} 	c #512A05",
"| 	c #944A23",
"1 	c #B77C34",
"2 	c #B79146",
"3 	c #8B7249",
"4 	c #725948",
"5 	c #806754",
"6 	c #896F5D",
"7 	c #74594A",
"8 	c #523828",
"9 	c #674E3F",
"0 	c #846C59",
"a 	c #8E7662",
"b 	c #8C7360",
"c 	c #83695A",
"d 	c #856C5C",
"e 	c #82685A",
"f 	c #755C4E",
"g 	c #AA8645",
"h 	c #EAA045",
"i 	c #3C2510",
"j 	c #574030",
"k 	c #97836E",
"l 	c #97836F",
"m 	c #836F5B",
"n 	c #7B6451",
"o 	c #8B7560",
"p 	c #947D67",
"q 	c #876E5B",
"r 	c #79614E",
"s 	c #735848",
"t 	c #8A715E",
"u 	c #8B725F",
"v 	c #957E68",
"w 	c #99836C",
"x 	c #97806A",
"y 	c #8E7765",
"z 	c #907A66",
"A 	c #8D7664",
"B 	c #8C7462",
"C 	c #89705D",
"D 	c #816758",
"E 	c #674F41",
"F 	c #B0783A",
"G 	c #E9BA5C",
"H 	c #574333",
"I 	c #9B836E",
"J 	c #D7BEA3",
"K 	c #9E8A74",
"L 	c #927D68",
"M 	c #97816B",
"N 	c #8B7561",
"O 	c #5F4232",
"P 	c #957F69",
"Q 	c #957F6A",
"R 	c #897262",
"S 	c #836B5E",
"T 	c #816759",
"U 	c #5E4637",
"V 	c #AC8743",
"W 	c #786654",
"X 	c #B39C83",
"Y 	c #937D68",
"Z 	c #7E6558",
"` 	c #877061",
" .	c #6B5042",
"..	c #4A301F",
"+.	c #766351",
"@.	c #D1B99E",
"#.	c #B59E86",
"$.	c #9B856E",
"%.	c #927B67",
"&.	c #98826B",
"*.	c #856D5F",
"=.	c #5F3410",
"-.	c #695746",
";.	c #D5BCA2",
">.	c #B09781",
",.	c #816655",
"'.	c #826758",
").	c #846C5F",
"!.	c #947E69",
"~.	c #96806A",
"{.	c #653200",
"].	c #B65E32",
"^.	c #6C5A48",
"/.	c #6B5948",
"(.	c #5C4938",
"_.	c #4A3424",
":.	c #523A2B",
"<.	c #684C3D",
"[.	c #7C6150",
"}.	c #97816A",
"|.	c #876F60",
"1.	c #866E60",
"2.	c #927C68",
"3.	c #957E69",
"4.	c #866F60",
"5.	c #5D473A",
"6.	c #B89148",
"7.	c #C96532",
"8.	c #DD9641",
"9.	c #DDB057",
"0.	c #DDB02B",
"a.	c #C1903E",
"b.	c #4B3221",
"c.	c #694D3E",
"d.	c #887060",
"e.	c #8A7362",
"f.	c #887161",
"g.	c #6D5345",
"h.	c #7D6457",
"i.	c #5A4538",
"j.	c #C69D4D",
"k.	c #DEA648",
"l.	c #3F2714",
"m.	c #5D4030",
"n.	c #81685B",
"o.	c #81695C",
"p.	c #6E5447",
"q.	c #5E4132",
"r.	c #7A6154",
"s.	c #594334",
"t.	c #5C3F2F",
"u.	c #71574A",
"v.	c #80685B",
"w.	c #5B3D2D",
"x.	c #7D6557",
"y.	c #806555",
"z.	c #584132",
"A.	c #7C6457",
"B.	c #7F685B",
"C.	c #6E574A",
"D.	c #5C3E2E",
"E.	c #685042",
"F.	c #6F594D",
"G.	c #776054",
"H.	c #806455",
"I.	c #715748",
"J.	c #966737",
"K.	c #DCAF57",
"L.	c #7C6355",
"M.	c #82695C",
"N.	c #7F6659",
"O.	c #6D574A",
"P.	c #3B2510",
"Q.	c #5A3C2C",
"R.	c #472E1C",
"S.	c #37210A",
"T.	c #564134",
"U.	c #7A6255",
"V.	c #82695B",
"W.	c #806454",
"X.	c #4E3828",
"Y.	c #D7923F",
"Z.	c #F9C763",
"`.	c #F2A548",
" +	c #D49F46",
".+	c #4B3526",
"++	c #614536",
"@+	c #654939",
"#+	c #7E6352",
"$+	c #836857",
"%+	c #6E5545",
"&+	c #3A2511",
"*+	c #483324",
"=+	c #604435",
"-+	c #614436",
";+	c #5D3F2F",
">+	c #422E1C",
",+	c #4B3827",
"'+	c #5E4838",
")+	c #BC9548",
"!+	c #3A230B",
"~+	c #554134",
"{+	c #8B735F",
"]+	c #4F3A2D",
"^+	c #674C3E",
"/+	c #75614E",
"(+	c #967F69",
"_+	c #F8C663",
":+	c #F1A447",
"<+	c #F2B651",
"[+	c #F4B855",
"}+	c #F4943A",
"|+	c #F5C567",
"1+	c #F5AA51",
"2+	c #F5C465",
"3+	c #F4C364",
"4+	c #F3C292",
"5+	c #F2C132",
"6+	c #F4C365",
"7+	c #F3C262",
"8+	c #F3B853",
"9+	c #F5BA57",
"0+	c #F5C566",
"a+	c #F4A74D",
"b+	c #F2C161",
"c+	c #FBAB4B",
"  . + @ # @ @ + $ $ % @ @ @ + @ & # @ @ @ @ + $ + @ @ @ + @ @ @ ",
"  . + @ # @ @ + $ $ % @ @ @ + @ & # @ @ @ + $ $ + @ @ @ + @ @ @ ",
"  . + @ # @ @ + $ $ % @ @ @ + @ & # @ @ @ + $ $ + @ @ @ + @ @ @ ",
"  . + @ # @ @ + $ $ % @ @ @ + @ & # @ @ @ + $ $ + @ @ @ + @ @ @ ",
"  . + @ # @ @ + $ $ % @ @ + @ @ & # @ @ @ + $ $ + @ @ @ + @ @ @ ",
"  . + @ # @ @ + $ $ % @ @ + @ @ & # @ @ @ + $ $ + @ @ @ + @ @ @ ",
"  . + @ # @ @ + $ $ % @ @ + @ @ & # @ @ @ + $ $ + @ @ @ + @ @ @ ",
"  . + @ # @ @ + $ $ % @ @ + @ @ & # @ @ @ @ + $ + @ @ @ + @ @ + ",
"  . + @ # * = - ; $ % @ @ > = = , ' = = = = - ) + @ @ @ + @ @ + ",
"  . + @ ! ~ { { ] ^ / ( ( _ { { { { { { { { { : < ( ( ( < [ + @ ",
"} | 1 2 3 4 5 6 7 8 9 9 9 0 a a a b c a a d e f 9 9 9 9 9 g h @ ",
"i j k l m n o p q r s t u v w w w x y w w z A B u C D D D E F G ",
"H I J J K L w w M N O P w w w w w w w w w w w w w Q R S S T U V ",
"W J J J J X w w Y Z O P w w w w w w w w w w w w w w M ` S S  ...",
"+.@.J J J #.$.M %.Z O P w w w w w w w &.&.w w w w w w M *.S  ...",
"=.-.J J J ;.>.,.'.Z O P w w w w w w M *.).!.w w w w ~.).S S  ...",
"{.].^./././.(._.:.<.[.}.w w w w w Q |.S S 1.2.w w 3.4.S S S 5.6.",
"  7.8.9.0.9.9.8.a.b.c.d.e.e.e.e.e.f.S S g.h.` e.e.f.S S S S i.j.",
"  . + @ # @ @ + k.l.m.n.S S S S S S o.p.q.r.S S S S S S S e s.j.",
"  . + @ # @ @ + k.l.t.u.v.S S S S S v.t.w.g.x.S S S S S e y.z.j.",
"  . + @ # @ @ + k.l.w.w.A.S S S S B.C.D.w.w.E.F.G.S S e H.I.J.K.",
"  . + @ # @ @ + k.l.w.w.L.M.M.M.N.O.P.Q.w.w.R.S.T.U.V.W.W.X.Y.@ ",
"  . + @ # @ Z.`. +.+++@+#+$+,.W.%+&+*+=+-+;+R.>+,+'+$+W.W.X.Y.@ ",
"  . + @ # @ )+!+~+S ).M w w {+W.%+]+S S S ^+R./+w w (+W.W.X.Y.@ ",
"  . + @ # @ _+:+<+[+}+|+|+1+2+3+4+5+6+6+6+7+`.8+9+1+0+a+3+b+c+@ ",
"  . + @ # @ @ + $ $ % @ @ + @ @ & # @ @ @ @ + $ $ + @ + @ @ + @ ",
"  . + @ # @ @ + $ $ % @ @ + @ @ & # @ @ @ @ + $ $ + @ + @ @ + @ ",
"  . + @ # @ @ + $ $ % @ @ + @ @ & # @ @ @ + $ $ $ + @ + @ @ + @ ",
"  . + @ # @ @ + $ $ % @ @ + @ @ & # @ @ @ + $ $ $ + @ + @ @ + @ ",
"  . + @ # @ + $ $ $ % @ @ + @ @ & # @ @ @ + $ $ + @ @ + @ @ + @ ",
"  . + @ # @ + $ $ $ % @ @ + @ @ & # @ @ @ + $ $ + @ @ + @ @ + @ ",
"  . + @ # @ + $ $ $ % @ @ + @ @ & # @ @ @ + $ $ + @ @ + @ @ + @ "};
