/* XPM */
static char * bear_RIGHT_xpm[] = {
"32 32 352 2",
"  	c #663300",
". 	c #CC6633",
"+ 	c #FFAE4C",
"@ 	c #FFCC66",
"# 	c #FFCC33",
"$ 	c #FFC054",
"% 	c #FF9933",
"& 	c #FFCC99",
"* 	c #E2B45D",
"= 	c #BA9352",
"- 	c #B89171",
"; 	c #B69036",
"> 	c #CBA157",
", 	c #F8C664",
"' 	c #FEAD4C",
") 	c #D8A24C",
"! 	c #B67A41",
"~ 	c #BE9652",
"{ 	c #EBBB60",
"] 	c #FECB66",
"^ 	c #EDBE34",
"/ 	c #E3B55D",
"( 	c #E39A48",
"_ 	c #E3AA4E",
": 	c #E38834",
"< 	c #E29A48",
"[ 	c #B38D53",
"} 	c #5D4546",
"| 	c #553E45",
"1 	c #563E46",
"2 	c #886A4C",
"3 	c #D5AA5A",
"4 	c #E5B65E",
"5 	c #E4B65E",
"6 	c #DF9849",
"7 	c #A67E4E",
"8 	c #67514F",
"9 	c #775E51",
"0 	c #C39B59",
"a 	c #EFBE61",
"b 	c #F4C363",
"c 	c #B38D39",
"d 	c #765A45",
"e 	c #7A5E47",
"f 	c #7B5442",
"g 	c #7B5A43",
"h 	c #7B4D3E",
"i 	c #7B5F47",
"j 	c #7A5E46",
"k 	c #785140",
"l 	c #7B5F51",
"m 	c #7C615C",
"n 	c #7D625C",
"o 	c #7D625D",
"p 	c #7B6057",
"q 	c #795D49",
"r 	c #785B44",
"s 	c #7A5342",
"t 	c #907460",
"u 	c #9E8470",
"v 	c #997F6C",
"w 	c #856A56",
"x 	c #B48E52",
"y 	c #F4A64B",
"z 	c #FCC965",
"A 	c #FAAB4B",
"B 	c #FBC965",
"C 	c #EDA149",
"D 	c #B69052",
"E 	c #83654A",
"F 	c #765D58",
"G 	c #866E61",
"H 	c #887063",
"I 	c #897063",
"J 	c #846C60",
"K 	c #735A56",
"L 	c #836960",
"M 	c #997E6D",
"N 	c #9A7F6E",
"O 	c #917668",
"P 	c #735A57",
"Q 	c #6B5252",
"R 	c #674A4C",
"S 	c #633D40",
"T 	c #917464",
"U 	c #A0836F",
"V 	c #8C6B5C",
"W 	c #896D5F",
"X 	c #95795C",
"Y 	c #AD7543",
"Z 	c #B08A4E",
"` 	c #AF7541",
" .	c #BC9553",
"..	c #663301",
"+.	c #BE5F34",
"@.	c #C18447",
"#.	c #72574C",
"$.	c #7E645D",
"%.	c #977C6C",
"&.	c #A68B75",
"*.	c #A88D76",
"=.	c #A78C76",
"-.	c #A48974",
";.	c #94796A",
">.	c #A28773",
",.	c #83655D",
"'.	c #7D5A54",
").	c #835E53",
"!.	c #9A7C6A",
"~.	c #9D7F6C",
"{.	c #866256",
"].	c #8C6F60",
"^.	c #8B7465",
"/.	c #7D685D",
"(.	c #7B675C",
"_.	c #695551",
":.	c #735844",
"<.	c #63320E",
"[.	c #924A37",
"}.	c #714F47",
"|.	c #7E625C",
"1.	c #987D6D",
"2.	c #A58A75",
"3.	c #A68B76",
"4.	c #A38773",
"5.	c #886559",
"6.	c #7E574E",
"7.	c #9B7E6B",
"8.	c #A58A74",
"9.	c #9F8370",
"0.	c #7B645A",
"a.	c #8A7565",
"b.	c #B9A185",
"c.	c #BFA789",
"d.	c #9C8671",
"e.	c #795E48",
"f.	c #542F2C",
"g.	c #6D3937",
"h.	c #6A4646",
"i.	c #82665F",
"j.	c #9D8270",
"k.	c #A88D77",
"l.	c #A78D76",
"m.	c #A68A75",
"n.	c #896658",
"o.	c #774D47",
"p.	c #8F7265",
"q.	c #A08572",
"r.	c #A58D77",
"s.	c #B29B80",
"t.	c #C6AD8D",
"u.	c #CAB190",
"v.	c #A58E77",
"w.	c #765C49",
"x.	c #492C38",
"y.	c #5E3138",
"z.	c #734846",
"A.	c #82645D",
"B.	c #9E8371",
"C.	c #714543",
"D.	c #80625C",
"E.	c #92776A",
"F.	c #B3997F",
"G.	c #C2A98A",
"H.	c #C9B090",
"I.	c #B49C81",
"J.	c #A38368",
"K.	c #B08C53",
"L.	c #4D2D35",
"M.	c #5F3238",
"N.	c #714846",
"O.	c #7F625C",
"P.	c #836861",
"Q.	c #917568",
"R.	c #A38873",
"S.	c #8B7065",
"T.	c #9E8370",
"U.	c #8A685A",
"V.	c #7D5F59",
"W.	c #7F635D",
"X.	c #977D6D",
"Y.	c #B9A184",
"Z.	c #C0A889",
"`.	c #C1A98A",
" +	c #BBA285",
".+	c #907863",
"++	c #B47B47",
"@+	c #F2C263",
"#+	c #5D311F",
"$+	c #7F4138",
"%+	c #634547",
"&+	c #7D615C",
"*+	c #81655F",
"=+	c #856961",
"-+	c #907568",
";+	c #A18672",
">+	c #967B6B",
",+	c #886D63",
"'+	c #8C7166",
")+	c #9B806F",
"!+	c #907365",
"~+	c #795652",
"{+	c #734B49",
"]+	c #644447",
"^+	c #685250",
"/+	c #7E6A5E",
"(+	c #816D60",
"_+	c #8A705E",
":+	c #C29B5B",
"<+	c #EA9F47",
"[+	c #653306",
"}+	c #8D4837",
"|+	c #5A4248",
"1+	c #80645F",
"2+	c #836760",
"3+	c #93786A",
"4+	c #9C816F",
"5+	c #83635B",
"6+	c #7A5753",
"7+	c #8A6C61",
"8+	c #74504D",
"9+	c #683D3C",
"0+	c #926740",
"a+	c #A97241",
"b+	c #A8844C",
"c+	c #A6824C",
"d+	c #B37841",
"e+	c #EABB60",
"f+	c #643308",
"g+	c #8C4737",
"h+	c #5A4348",
"i+	c #80615A",
"j+	c #734945",
"k+	c #6D3A3A",
"l+	c #6D3B3A",
"m+	c #6E3C3B",
"n+	c #78534F",
"o+	c #8A6E64",
"p+	c #9D826F",
"q+	c #876A60",
"r+	c #764F4B",
"s+	c #65373B",
"t+	c #5F3C3C",
"u+	c #CB974B",
"v+	c #F9AA4B",
"w+	c #FDCA65",
"x+	c #8B4737",
"y+	c #7B5B56",
"z+	c #724745",
"A+	c #6C3636",
"B+	c #6C3737",
"C+	c #76504D",
"D+	c #836660",
"E+	c #8E7367",
"F+	c #886A60",
"G+	c #6E3D3C",
"H+	c #623338",
"I+	c #5E3C3B",
"J+	c #D19D4C",
"K+	c #653305",
"L+	c #AB5636",
"M+	c #9F6D48",
"N+	c #775C53",
"O+	c #7B5F5B",
"P+	c #7E625D",
"Q+	c #715756",
"R+	c #654648",
"S+	c #603439",
"T+	c #683537",
"U+	c #6C3736",
"V+	c #693536",
"W+	c #603238",
"X+	c #634346",
"Y+	c #705654",
"Z+	c #7D615D",
"`+	c #80655F",
" @	c #7B5B57",
".@	c #6E3D3D",
"+@	c #6B3334",
"@@	c #623237",
"#@	c #5F3C3B",
"$@	c #D19D4B",
"%@	c #CB6533",
"&@	c #D89347",
"*@	c #6E5345",
"=@	c #705655",
"-@	c #846861",
";@	c #836860",
">@	c #6B5352",
",@	c #513C43",
"'@	c #4B2E3B",
")@	c #633438",
"!@	c #6F3B3A",
"~@	c #6B3E3F",
"{@	c #583941",
"]@	c #48313E",
"^@	c #553D45",
"/@	c #795E5A",
"(@	c #856A62",
"_@	c #84655D",
":@	c #79504A",
"<@	c #734440",
"[@	c #683D3F",
"}@	c #634342",
"|@	c #C5934B",
"1@	c #F5B852",
"2@	c #DC9647",
"3@	c #6E5343",
"4@	c #6F5554",
"5@	c #8E7266",
"6@	c #9D816F",
"7@	c #9A7F6D",
"8@	c #7E675C",
"9@	c #50363E",
"0@	c #633337",
"a@	c #754B47",
"b@	c #7C5C57",
"c@	c #775C58",
"d@	c #60484B",
"e@	c #543D44",
"f@	c #7A5F5A",
"g@	c #93776A",
"h@	c #9F8270",
"i@	c #9C7E6B",
"j@	c #8C6D60",
"k@	c #7B5C58",
"l@	c #795C57",
"m@	c #84634B",
"n@	c #BC8C48",
"o@	c #F7A94B",
"p@	c #ECA149",
"q@	c #C29A55",
"r@	c #C19948",
"s@	c #CDA467",
"t@	c #D5AD6E",
"u@	c #D69E67",
"v@	c #CB9D5E",
"w@	c #BB8C49",
"x@	c #BF7035",
"y@	c #C59959",
"z@	c #C89F62",
"A@	c #C88D58",
"B@	c #C1995B",
"C@	c #BC9556",
"D@	c #C59D7C",
"E@	c #CFA758",
"F@	c #D5AD70",
"G@	c #CEA669",
"H@	c #C89F63",
"I@	c #C78C56",
"J@	c #BB8C4F",
"K@	c #CF9B4B",
"  . + @ # @ @ + $ $ % @ @ @ + @ & # @ @ @ @ + $ + @ @ @ + @ @ @ ",
"  . + @ # @ @ + $ $ % @ @ @ + @ & # @ @ @ + $ $ + @ @ @ + @ @ @ ",
"  . + @ # @ @ + $ $ % @ @ @ + @ & # @ @ @ + $ $ + @ @ @ + @ @ @ ",
"  . + @ # @ @ + $ $ % @ @ @ + @ & # @ @ @ + $ $ + @ @ @ + @ @ @ ",
"  . + @ # @ @ + $ $ % @ @ + @ @ & # @ @ @ + $ $ + @ @ @ + @ @ @ ",
"  . + @ # @ @ + $ $ % @ @ + @ @ & # @ @ @ + $ $ + @ @ @ + @ @ @ ",
"  . + @ # @ @ + $ $ % @ @ + @ @ & # @ @ @ + $ $ + @ @ @ + @ @ @ ",
"  . + @ # @ @ + $ $ % @ @ + * = - ; > , @ @ ' ) ! ~ { @ + @ @ + ",
"  . + ] ^ * / ( _ _ : / / < [ } | 1 2 3 4 5 6 7 8 9 0 a ' @ @ + ",
"  . + b c d e f g g h i j k l m n o p q r r s t u v w x y z A B ",
"  . C D E F G H H H H I J K L M N N O P Q R S T U V W X Y Z `  .",
"..+.@.#.$.%.&.*.=.=.=.*.-.;.N =.=.*.>.O ,.'.).!.~.{.].^./.(._.:.",
"<.[.}.|.1.2.=.=.=.=.=.=.3.-.2.=.=.=.=.4.5.6.7.8.&.9.0.a.b.c.d.e.",
"f.g.h.i.j.k.=.=.=.=.=.=.=.*.=.=.=.=.l.m.n.o.p.q.*.l.r.s.t.u.v.w.",
"x.y.z.A.;.q.=.=.=.=.=.>.B.2.=.=.=.=.=.8.n.C.D.E.-.F.G.H.t.I.J.K.",
"L.M.N.O.P.Q.R.=.=.=.2.%.S.T.&.=.=.=.=.2.U.z.V.W.X.Y.Z.`. +.+++@+",
"#+$+%+&+*+=+-+;+k.2.>+,+P.'+)+=.=.=.=.&.!+~+{+]+^+/+(+(+_+:+<+@ ",
"[+}+|+&+i.1+2+3+4+%.5+~+6+6+7+4+2.k.2.4+7+8+9+0+a+b+b+c+d+e++ @ ",
"f+g+h+&+i.*+*+2+2+i+j+k+l+m+n+o+B.2.p+q+r+s+t+u+v+, , , v+w++ @ ",
"f+x+h+&+i.*+*+*+y+z+l+A+A+B+C+D+S.E+F+r+G+H+I+J++ @ @ + @ @ + @ ",
"K+L+M+N+O+*+P+Q+R+S+T+U+V+W+X+Y+Z+`+ @.@+@@@#@$@+ @ @ + @ @ + @ ",
"..%@&@*@=@-@;@>@,@'@)@!@~@{@]@^@/@(@_@:@<@[@}@|@1@' @ + @ @ + @ ",
"  . 2@3@4@5@6@7@8@9@0@a@b@c@d@e@f@g@h@i@j@k@l@m@n@o@@ + @ @ + @ ",
"  . p@q@r@s@t@u@v@w@x@y@z@A@B@C@D@E@F@F@G@H@I@J@K@v+@ + @ @ + @ ",
"  . + @ # @ @ + $ $ % @ @ + @ @ & # @ @ @ @ + $ $ + @ + @ @ + @ ",
"  . + @ # @ @ + $ $ % @ @ + @ @ & # @ @ @ @ + $ $ + @ + @ @ + @ ",
"  . + @ # @ @ + $ $ % @ @ + @ @ & # @ @ @ @ + $ $ + @ + @ @ + @ ",
"  . + @ # @ @ + $ $ % @ @ + @ @ & # @ @ @ + $ $ $ + @ + @ @ + @ ",
"  . + @ # @ @ + $ $ % @ @ + @ @ & # @ @ @ + $ $ $ + @ + @ @ + @ ",
"  . + @ # @ + $ $ $ % @ @ + @ @ & # @ @ @ + $ $ + @ @ + @ @ + @ ",
"  . + @ # @ + $ $ $ % @ @ + @ @ & # @ @ @ + $ $ + @ @ + @ @ + @ ",
"  . + @ # @ + $ $ $ % @ @ + @ @ & # @ @ @ + $ $ + @ @ + @ @ + @ "};
