/* XPM */
static char * bear_right_xpm_xpm[] = {
"32 32 352 2",
"  	c #663300",
". 	c #CC6633",
"+ 	c #FFAE4C",
"@ 	c #FFCC66",
"# 	c #FFCC33",
"$ 	c #FFC054",
"% 	c #FF9933",
"& 	c #FFCC99",
"* 	c #F2C262",
"= 	c #CAA056",
"- 	c #BF8143",
"; 	c #D9A34C",
"> 	c #FDBF54",
", 	c #FAC864",
"' 	c #D38F46",
") 	c #C09853",
"! 	c #C19954",
"~ 	c #C49B78",
"{ 	c #E7B834",
"] 	c #F4C333",
"^ 	c #D0A65B",
"/ 	c #7F644E",
"( 	c #614C4C",
"_ 	c #A27A4D",
": 	c #E2AA4F",
"< 	c #EA8C34",
"[ 	c #EBBB60",
"} 	c #DCAF5C",
"| 	c #8E6145",
"1 	c #523B44",
"2 	c #584145",
"3 	c #604749",
"4 	c #B9923C",
"5 	c #E8B95F",
"6 	c #E9BA5F",
"7 	c #E99E49",
"8 	c #E9AF4F",
"9 	c #F3C262",
"0 	c #653303",
"a 	c #CA6533",
"b 	c #FCAC4C",
"c 	c #F9C764",
"d 	c #C39A37",
"e 	c #896C53",
"f 	c #967D6A",
"g 	c #9C826F",
"h 	c #937762",
"i 	c #826045",
"j 	c #804D3A",
"k 	c #816345",
"l 	c #7F6249",
"m 	c #7C5D56",
"n 	c #7B605B",
"o 	c #7A5F5B",
"p 	c #795F5A",
"q 	c #7D614C",
"r 	c #816346",
"s 	c #816447",
"t 	c #826447",
"u 	c #825841",
"v 	c #825F42",
"w 	c #C29A55",
"x 	c #FAAA4B",
"y 	c #582F26",
"z 	c #924936",
"A 	c #B67A40",
"B 	c #B48E50",
"C 	c #9B7C52",
"D 	c #876C5F",
"E 	c #8C6C5D",
"F 	c #9F826E",
"G 	c #947867",
"H 	c #643F41",
"I 	c #64474A",
"J 	c #695051",
"K 	c #705755",
"L 	c #8E7467",
"M 	c #997E6D",
"N 	c #987D6D",
"O 	c #977C6C",
"P 	c #81675E",
"Q 	c #705855",
"R 	c #81695E",
"S 	c #856D61",
"T 	c #856D60",
"U 	c #826A5F",
"V 	c #715855",
"W 	c #8B6C50",
"X 	c #C38444",
"Y 	c #F4C363",
"Z 	c #4B2E35",
"` 	c #604C4C",
" .	c #766259",
"..	c #78645A",
"+.	c #897264",
"@.	c #8E7263",
"#.	c #846054",
"$.	c #9A7C6A",
"%.	c #9C7E6B",
"&.	c #825D52",
"*.	c #7C5953",
"=.	c #82645D",
"-.	c #8F7467",
";.	c #A18672",
">.	c #A78C76",
",.	c #A68B76",
"'.	c #93786A",
").	c #A48974",
"!.	c #94796A",
"~.	c #785E59",
"{.	c #7D5748",
"].	c #CFA559",
"^.	c #F3A64A",
"/.	c #4E3136",
"(.	c #8F7A69",
"_.	c #BCA487",
":.	c #BBA386",
"<.	c #917C6A",
"[.	c #776058",
"}.	c #9C816D",
"|.	c #A68A75",
"1.	c #A58A74",
"2.	c #9C806C",
"3.	c #7F5950",
"4.	c #866357",
"5.	c #A28672",
"6.	c #A68C76",
"7.	c #A58A75",
"8.	c #7B5E59",
"9.	c #785B49",
"0.	c #C58544",
"a.	c #FAC764",
"b.	c #4E3137",
"c.	c #98826F",
"d.	c #C9AF8F",
"e.	c #C8AF8F",
"f.	c #B49D82",
"g.	c #A48D76",
"h.	c #A88D77",
"i.	c #A18673",
"j.	c #917567",
"k.	c #784F49",
"l.	c #876356",
"m.	c #A88D76",
"n.	c #9A7F6E",
"o.	c #7F615C",
"p.	c #664043",
"q.	c #87563C",
"r.	c #56312D",
"s.	c #957361",
"t.	c #B0997F",
"u.	c #C4AB8C",
"v.	c #CAB090",
"w.	c #C4AA8B",
"x.	c #B59B80",
"y.	c #A58B75",
"z.	c #94796B",
"A.	c #81645E",
"B.	c #714645",
"C.	c #A58974",
"D.	c #9E8371",
"E.	c #A38873",
"F.	c #9F8471",
"G.	c #917669",
"H.	c #7F615B",
"I.	c #714342",
"J.	c #592F38",
"K.	c #856746",
"L.	c #64330C",
"M.	c #9E533B",
"N.	c #8C6F5B",
"O.	c #B69F82",
"P.	c #C1A98A",
"Q.	c #C0A889",
"R.	c #BBA286",
"S.	c #9B8170",
"T.	c #80645E",
"U.	c #7E605A",
"V.	c #734947",
"W.	c #886558",
"X.	c #A68B75",
"Y.	c #9D8270",
"Z.	c #8B7065",
"`.	c #8E7367",
" +	c #836760",
".+	c #6E4342",
"++	c #613739",
"@+	c #98764A",
"#+	c #BF5F32",
"$+	c #CB8C4C",
"%+	c #91785E",
"&+	c #806C5F",
"*+	c #7E6A5E",
"=+	c #6A5452",
"-+	c #634447",
";+	c #724B48",
">+	c #795551",
",+	c #8F7264",
"'+	c #9B806F",
")+	c #886D64",
"!+	c #8F7367",
"~+	c #846861",
"{+	c #81655F",
"]+	c #7B5F5A",
"^+	c #614244",
"/+	c #A76F40",
"(+	c #E1B35D",
"_+	c #F2A54A",
":+	c #BC9452",
"<+	c #A88436",
"[+	c #AA864D",
"}+	c #AB864D",
"|+	c #AC7341",
"1+	c #976D41",
"2+	c #693F3C",
"3+	c #724E4C",
"4+	c #886A5F",
"5+	c #9B806E",
"6+	c #9C816F",
"7+	c #896B60",
"8+	c #795652",
"9+	c #795752",
"0+	c #785552",
"a+	c #84655C",
"b+	c #826660",
"c+	c #80645F",
"d+	c #795E5A",
"e+	c #584045",
"f+	c #C18243",
"g+	c #FEAD4C",
"h+	c #FAC865",
"i+	c #F9C733",
"j+	c #FBAB4B",
"k+	c #D39E4C",
"l+	c #66463D",
"m+	c #63363A",
"n+	c #754D49",
"o+	c #85685F",
"p+	c #9E8370",
"q+	c #896E64",
"r+	c #77524E",
"s+	c #6D3B3A",
"t+	c #6D3A3A",
"u+	c #6D3939",
"v+	c #744A46",
"w+	c #80615A",
"x+	c #7A5E5A",
"y+	c #594045",
"z+	c #FECB66",
"A+	c #D8A24D",
"B+	c #65463D",
"C+	c #613338",
"D+	c #6E3C3B",
"E+	c #754C49",
"F+	c #86685F",
"G+	c #8D7166",
"H+	c #8A6F64",
"I+	c #82665F",
"J+	c #764F4C",
"K+	c #6C3737",
"L+	c #6C3636",
"M+	c #724745",
"N+	c #7C5C57",
"O+	c #5A4246",
"P+	c #C08243",
"Q+	c #D9A34D",
"R+	c #65453C",
"S+	c #603237",
"T+	c #6B3334",
"U+	c #6D3B3B",
"V+	c #7A5A56",
"W+	c #80655F",
"X+	c #7C615C",
"Y+	c #6E5453",
"Z+	c #614145",
"`+	c #5F3137",
" @	c #693536",
".@	c #6C3736",
"+@	c #673537",
"@@	c #5E343A",
"#@	c #634649",
"$@	c #725756",
"%@	c #7F635E",
"&@	c #785D59",
"*@	c #7B5F52",
"=@	c #AC8852",
"-@	c #E09848",
";@	c #F4A64A",
">@	c #C9964C",
",@	c #694B44",
"'@	c #683F41",
")@	c #744642",
"!@	c #7B534B",
"~@	c #85675E",
"{@	c #866B62",
"]@	c #533C44",
"^@	c #49323F",
"/@	c #5A3C42",
"(@	c #6C4040",
"_@	c #6F3C3B",
":@	c #623338",
"<@	c #4A2F3C",
"[@	c #564045",
"}@	c #715955",
"|@	c #866A62",
"1@	c #6B5252",
"2@	c #7C6046",
"3@	c #E5B65E",
"4@	c #C08244",
"5@	c #84624A",
"6@	c #7E6058",
"7@	c #805F59",
"8@	c #8F7061",
"9@	c #A0826D",
"0@	c #A38570",
"a@	c #977A6A",
"b@	c #7E625A",
"c@	c #5A4247",
"d@	c #674E4C",
"e@	c #7E6159",
"f@	c #806058",
"g@	c #794F48",
"h@	c #673A38",
"i@	c #593C40",
"j@	c #876E60",
"k@	c #A08570",
"l@	c #A0836F",
"m@	c #8E7265",
"n@	c #6A5051",
"o@	c #816446",
"p@	c #FCC965",
"q@	c #D99347",
"r@	c #C4934F",
"s@	c #CE9C59",
"t@	c #CF844D",
"u@	c #D4AA68",
"v@	c #DAB16F",
"w@	c #DBA064",
"x@	c #D6AC69",
"y@	c #CDA360",
"z@	c #C59C79",
"A@	c #C9A043",
"B@	c #CFA563",
"C@	c #CCA05A",
"D@	c #C79B53",
"E@	c #C58647",
"F@	c #D3A35E",
"G@	c #DCAB67",
"H@	c #DA9E62",
"I@	c #D2A866",
"J@	c #C88A4F",
"K@	c #CEA358",
"  . + @ # @ @ + $ $ % @ @ @ + @ & # @ @ @ @ + $ + @ @ @ + @ @ @ ",
"  . + @ # @ @ + $ $ % @ @ @ + @ & # @ @ @ + $ $ + @ @ @ + @ @ @ ",
"  . + @ # @ @ + $ $ % @ @ @ + @ & # @ @ @ + $ $ + @ @ @ + @ @ @ ",
"  . + @ # @ @ + $ $ % @ @ @ + @ & # @ @ @ + $ $ + @ @ @ + @ @ @ ",
"  . + @ # @ @ + $ $ % @ @ + @ @ & # @ @ @ + $ $ + @ @ @ + @ @ @ ",
"  . + @ # @ @ + $ $ % @ @ + @ @ & # @ @ @ + $ $ + @ @ @ + @ @ @ ",
"  . + @ # @ @ + $ $ % @ @ + @ @ & # @ @ @ + $ $ + @ @ @ + @ @ @ ",
"  . + @ # * = - ; > % @ , ' ) ! ~ { @ @ @ @ + $ + @ @ @ + @ @ + ",
"  . + @ ] ^ / ( _ : < [ } | 1 2 3 4 5 6 6 6 7 8 7 6 6 9 + @ @ + ",
"0 a b c d e f g h i j k l m n o p q r s t t u v u s r w x @ + @ ",
"y z A B C D E F G H I J K L M N O P Q R S T T T S U V W X Y + @ ",
"Z `  ...+.@.#.$.%.&.*.=.-.;.>.>.,.M '.).>.>.>.>.>.).!.~.{.].^.@ ",
"/.(._.:.<.[.}.|.1.2.3.4.5.6.>.>.>.7.).>.>.>.>.>.>.>.).!.8.9.0.a.",
"b.c.d.e.f.g.>.h.i.j.k.l.1.m.>.>.>.>.m.m.>.>.>.>.>.>.h.n.o.p.q.! ",
"r.s.t.u.v.w.x.y.z.A.B.l.C.>.>.>.>.>.7.D.E.>.>.>.>.,.F.G.H.I.J.K.",
"L.M.N.O.P.Q.R.S.T.U.V.W.1.>.>.>.>.X.Y.Z.N 7.>.>.,.;.`. +U..+++@+",
"  #+$+%+&+&+*+=+-+;+>+,+|.>.>.>.>.'+Z. +)+O 7.h.F.!+~+{+]+^+/+(+",
"  . _+:+<+[+}+|+1+2+3+4+5+7.h.7.6+7+8+9+0+a+O '+G.b+c+b+d+e+f+@ ",
"  . g+h+i+a.a.j+k+l+m+n+o+6+).p+q+r+s+t+u+v+w+ + +{+{+b+x+y+- z+",
"  . + @ # @ @ + A+B+C+D+E+F+G+H+I+J+K+L+L+s+M+N+{+{+{+b+d+O+P+z+",
"  . + @ # @ @ + Q+R+S+T+U+V+W+X+Y+Z+`+ @.@+@@@#@$@%@{+&@*@=@-@z+",
"  . + @ # @ z+;@>@,@'@)@!@~@{@d+]@^@/@(@_@:@<@[@}@|@~+1@2@3@+ @ ",
"  . + @ # @ , 4@5@6@7@8@9@0@a@b@c@d@e@f@g@h@i@j@k@l@m@n@o@5 + @ ",
"  . + @ # @ p@q@r@s@t@u@v@w@x@y@z@A@B@B@C@D@E@F@G@H@I@J@K@Y + @ ",
"  . + @ # @ @ + $ $ % @ @ + @ @ & # @ @ @ @ + $ $ + @ + @ @ + @ ",
"  . + @ # @ @ + $ $ % @ @ + @ @ & # @ @ @ @ + $ $ + @ + @ @ + @ ",
"  . + @ # @ @ + $ $ % @ @ + @ @ & # @ @ @ @ + $ $ + @ + @ @ + @ ",
"  . + @ # @ @ + $ $ % @ @ + @ @ & # @ @ @ + $ $ $ + @ + @ @ + @ ",
"  . + @ # @ @ + $ $ % @ @ + @ @ & # @ @ @ + $ $ $ + @ + @ @ + @ ",
"  . + @ # @ + $ $ $ % @ @ + @ @ & # @ @ @ + $ $ + @ @ + @ @ + @ ",
"  . + @ # @ + $ $ $ % @ @ + @ @ & # @ @ @ + $ $ + @ @ + @ @ + @ ",
"  . + @ # @ + $ $ $ % @ @ + @ @ & # @ @ @ + $ $ + @ @ + @ @ + @ "};
