/* XPM */
static char * crab2_xpm[] = {
"32 32 219 2",
"  	c #663300",
". 	c #CC6633",
"+ 	c #FFAE4C",
"@ 	c #FFCC66",
"# 	c #FFCC33",
"$ 	c #FFC054",
"% 	c #FF9933",
"& 	c #FFCC99",
"* 	c #FEAD4C",
"= 	c #FAC864",
"- 	c #FAC896",
"; 	c #FAC832",
"> 	c #FCC965",
", 	c #FECB33",
"' 	c #FECB66",
") 	c #FECB65",
"! 	c #F1A447",
"~ 	c #CE9F4F",
"{ 	c #CE9F77",
"] 	c #CE9F27",
"^ 	c #E0B057",
"/ 	c #F9C764",
"( 	c #FDAC4B",
"_ 	c #F1C02F",
": 	c #DFB158",
"< 	c #F3C261",
"[ 	c #FBBD53",
"} 	c #F1C060",
"| 	c #C27834",
"1 	c #A01015",
"2 	c #B26633",
"3 	c #DEAD56",
"4 	c #FCAC4B",
"5 	c #FDCA65",
"6 	c #FBC964",
"7 	c #E89D44",
"8 	c #FCCA65",
"9 	c #F2C261",
"0 	c #C79724",
"a 	c #A66832",
"b 	c #CC9A4C",
"c 	c #D9A045",
"d 	c #F7BA51",
"e 	c #FE9833",
"f 	c #F3C160",
"g 	c #C18C45",
"h 	c #B31319",
"i 	c #E21B22",
"j 	c #E51C23",
"k 	c #E41C23",
"l 	c #CD181E",
"m 	c #B76835",
"n 	c #F9AA4A",
"o 	c #FCBE53",
"p 	c #E19741",
"q 	c #E7B75B",
"r 	c #DCAD56",
"s 	c #AB6C34",
"t 	c #AE672B",
"u 	c #E7B85B",
"v 	c #E3B55A",
"w 	c #A06717",
"x 	c #AA1110",
"y 	c #B34D28",
"z 	c #B8672D",
"A 	c #B15527",
"B 	c #CC933F",
"C 	c #EF8F2F",
"D 	c #B88943",
"E 	c #B51419",
"F 	c #DD1A21",
"G 	c #C1141A",
"H 	c #E31B22",
"I 	c #D4181F",
"J 	c #CC171D",
"K 	c #CC181E",
"L 	c #B66935",
"M 	c #DC933F",
"N 	c #DBA346",
"O 	c #B9602B",
"P 	c #B8773B",
"Q 	c #B16131",
"R 	c #BA2519",
"S 	c #830A08",
"T 	c #C9A04E",
"U 	c #E4B65A",
"V 	c #A36B18",
"W 	c #BA1B16",
"X 	c #D3191E",
"Y 	c #C3161C",
"Z 	c #D4191F",
"` 	c #B34222",
" .	c #A55F1D",
"..	c #650609",
"+.	c #860508",
"@.	c #C3141A",
"#.	c #D81920",
"$.	c #A40D11",
"%.	c #AD0F14",
"&.	c #E11B22",
"*.	c #AF1318",
"=.	c #8F5724",
"-.	c #AB5D29",
";.	c #CD2920",
">.	c #C4171C",
",.	c #D0191F",
"'.	c #CF171A",
").	c #89190C",
"!.	c #CBA14F",
"~.	c #F4C361",
"{.	c #CA9A25",
"].	c #AB5027",
"^.	c #C71A19",
"/.	c #D1181A",
"(.	c #BE1817",
"_.	c #370D02",
":.	c #DE1A21",
"<.	c #BE1319",
"[.	c #C8161C",
"}.	c #DA1A20",
"|.	c #BF1319",
"1.	c #CE171D",
"2.	c #E31C23",
"3.	c #450D06",
"4.	c #9C1712",
"5.	c #CB1719",
"6.	c #AE1A14",
"7.	c #B36A2C",
"8.	c #E9BA5C",
"9.	c #F5C430",
"0.	c #CB9B4C",
"a.	c #914922",
"b.	c #800907",
"c.	c #94491E",
"d.	c #B86C22",
"e.	c #5C0506",
"f.	c #D5181C",
"g.	c #DD1A1F",
"h.	c #A21012",
"i.	c #9D6329",
"j.	c #A3682B",
"k.	c #86260F",
"l.	c #B17E3D",
"m.	c #EA9F45",
"n.	c #F5C462",
"o.	c #D9AD56",
"p.	c #D08D3C",
"q.	c #D09C43",
"r.	c #C89640",
"s.	c #98591A",
"t.	c #340101",
"u.	c #910C0B",
"v.	c #D5181B",
"w.	c #DE1A1F",
"x.	c #B51214",
"y.	c #680605",
"z.	c #794D1E",
"A.	c #B7893A",
"B.	c #CD8B3B",
"C.	c #D0A652",
"D.	c #ECBD5E",
"E.	c #EEB34E",
"F.	c #AD7231",
"G.	c #BF1F1C",
"H.	c #B01318",
"I.	c #370201",
"J.	c #7D0909",
"K.	c #8D0D11",
"L.	c #850B0D",
"M.	c #5F0504",
"N.	c #890C10",
"O.	c #B9171A",
"P.	c #AE5627",
"Q.	c #D8903E",
"R.	c #F9C763",
"S.	c #EDA146",
"T.	c #B17432",
"U.	c #C82E21",
"V.	c #D51920",
"W.	c #974C26",
"X.	c #D9AD55",
"Y.	c #DA933F",
"Z.	c #DAAD55",
"`.	c #DAAD81",
" +	c #DAAD2A",
".+	c #B88341",
"++	c #BF2E1F",
"@+	c #CF1E20",
"#+	c #B14E24",
"$+	c #DAAA54",
"%+	c #E59C43",
"&+	c #8A4A1E",
"*+	c #B91315",
"=+	c #9C3C17",
"-+	c #FDCB65",
";+	c #FDAD4B",
">+	c #FDCB98",
",+	c #FDCB33",
"'+	c #F0BF5F",
")+	c #BC7231",
"!+	c #B3321B",
"~+	c #8E130E",
"{+	c #C99C4D",
"]+	c #E49B43",
"^+	c #85461C",
"/+	c #AA100E",
"(+	c #7F4413",
"_+	c #BF8036",
":+	c #A03818",
"<+	c #C88438",
"[+	c #D39B42",
"}+	c #975E26",
"|+	c #E4882C",
"1+	c #B57E35",
"2+	c #BC8538",
"3+	c #F9BB52",
"4+	c #ECB14D",
"5+	c #F1B64F",
"6+	c #F4B750",
"  . + @ # @ @ + $ $ % @ @ @ + @ & # @ @ @ @ + $ + @ @ @ + @ @ @ ",
"  . + @ # @ @ + $ $ % @ @ @ + @ & # @ @ @ + $ $ + @ @ @ + @ @ @ ",
"  . + @ # @ @ + $ $ % @ @ @ + @ & # @ @ @ + $ $ + @ @ @ + @ @ @ ",
"  . + @ # @ @ + $ $ % @ @ @ + @ & # @ @ @ + $ $ + @ @ @ + @ @ @ ",
"  . + @ # @ @ + $ $ % @ @ + @ @ & # @ @ @ + $ $ + @ @ @ + @ @ @ ",
"  . + @ # @ @ + $ $ % @ @ + @ @ & # @ @ @ + $ $ + @ @ @ + @ @ @ ",
"  . + @ # @ @ + $ $ % @ @ + @ @ & # @ @ @ + $ $ + @ @ @ + @ @ @ ",
"  . + @ # @ @ + $ $ % @ @ + @ @ & # @ @ @ @ + $ + @ @ @ + @ @ + ",
"  . + @ # @ @ + $ $ % @ @ + @ @ & # @ @ @ @ + $ + @ @ @ + @ @ + ",
"  . + @ # @ @ + $ $ % @ @ * = = - ; = > @ @ + $ + @ @ @ + @ + @ ",
"  . + @ , > ' + $ $ % @ ) ! ~ ~ { ] ~ ^ / @ + $ + @ @ > ( @ + @ ",
"  . + ) _ : < ( [ $ % ' } | 1 1 1 1 1 2 3 / + $ 4 5 6 : 7 8 + @ ",
"  . + 9 0 a b 7 c d e f g h i j j j k l m 3 n o p q r s t u + @ ",
"  . + v w x y z A B C D E F G H j k I J K L M N O P Q R S T + @ ",
"  . + U V W X Y Z `  ...j I +.@.j #.$.%.&.*.=.-.;.>.,.'.).!.+ @ ",
"  . + ~.{.].^././.(._...k :.<.[.j }.|.1.2.*.3.4.5././.6.7.8.+ @ ",
"  . + @ 9.0.a.b.b.c.d.e.f.j j j j j j j g.h.i.j.k.b.b.l.m.@ + @ ",
"  . + @ # n.o.p.q.r.s.t.u.v.j j j j j w.x.y.z.A.B.C.C.D.* @ + @ ",
"  . + @ # @ ' * E.F.G.H.I.J.K.K.K.K.K.L.M.N.O.P.Q.R.' @ + @ + @ ",
"  . + @ # @ @ S.T.U.V.W.X.Y.Z.Z.`. +Z.Z.X..+++@+#+$+6 + @ @ + @ ",
"  . + @ # @ @ %+&+*+=+v -+;+-+-+>+,+-+-+-+'+)+!+~+{+R.+ @ @ + @ ",
"  . + @ # @ @ ]+^+/+(+) @ + @ @ & # @ @ @ ' _+:+S <+R.+ @ @ + @ ",
"  . + @ # @ @ n [+}+|+@ @ + @ @ & # @ @ @ @ ! 1+2+S.) + @ @ + @ ",
"  . + @ # @ @ + 3+4+e @ @ + @ @ & # @ @ @ @ + 5+6+;+@ + @ @ + @ ",
"  . + @ # @ @ + $ $ % @ @ + @ @ & # @ @ @ @ + $ $ + @ + @ @ + @ ",
"  . + @ # @ @ + $ $ % @ @ + @ @ & # @ @ @ @ + $ $ + @ + @ @ + @ ",
"  . + @ # @ @ + $ $ % @ @ + @ @ & # @ @ @ @ + $ $ + @ + @ @ + @ ",
"  . + @ # @ @ + $ $ % @ @ + @ @ & # @ @ @ + $ $ $ + @ + @ @ + @ ",
"  . + @ # @ @ + $ $ % @ @ + @ @ & # @ @ @ + $ $ $ + @ + @ @ + @ ",
"  . + @ # @ + $ $ $ % @ @ + @ @ & # @ @ @ + $ $ + @ @ + @ @ + @ ",
"  . + @ # @ + $ $ $ % @ @ + @ @ & # @ @ @ + $ $ + @ @ + @ @ + @ ",
"  . + @ # @ + $ $ $ % @ @ + @ @ & # @ @ @ + $ $ + @ @ + @ @ + @ "};
