/* XPM */
static char * crab_xpm[] = {
"32 32 126 2",
"  	c #663300",
". 	c #CC6633",
"+ 	c #FFAE4C",
"@ 	c #FFCC66",
"# 	c #FFCC33",
"$ 	c #FFC054",
"% 	c #FF9933",
"& 	c #FFCC99",
"* 	c #FCCA65",
"= 	c #E69D44",
"- 	c #E6B85B",
"; 	c #E6B88A",
"> 	c #E6B82D",
", 	c #F7C663",
"' 	c #F1C130",
") 	c #E0B258",
"! 	c #69070A",
"~ 	c #F1C160",
"{ 	c #F7A949",
"] 	c #F8A94A",
"^ 	c #C69A4B",
"/ 	c #9E741A",
"( 	c #F3C261",
"_ 	c #FAC864",
": 	c #F2A548",
"< 	c #FC9732",
"[ 	c #E1B258",
"} 	c #78090D",
"| 	c #E51C23",
"1 	c #9E7438",
"2 	c #C68337",
"3 	c #F8C763",
"4 	c #CB8A3B",
"5 	c #7D0907",
"6 	c #A9100E",
"7 	c #9D7137",
"8 	c #D4A652",
"9 	c #945724",
"0 	c #F4B850",
"a 	c #FCBE53",
"b 	c #E1852C",
"c 	c #E41C23",
"d 	c #DC1A21",
"e 	c #FCAC4B",
"f 	c #CBA250",
"g 	c #D01719",
"h 	c #C5171D",
"i 	c #8E0D12",
"j 	c #CC181E",
"k 	c #8B5C26",
"l 	c #DEA748",
"m 	c #640609",
"n 	c #7A0304",
"o 	c #DE1A21",
"p 	c #DE9741",
"q 	c #CE8C3C",
"r 	c #852D15",
"s 	c #CC1618",
"t 	c #E31C22",
"u 	c #CB171D",
"v 	c #000000",
"w 	c #DD1A21",
"x 	c #780203",
"y 	c #800406",
"z 	c #85250F",
"A 	c #CEA551",
"B 	c #D1A752",
"C 	c #7D2008",
"D 	c #C11411",
"E 	c #AE1810",
"F 	c #2A1D07",
"G 	c #2A1906",
"H 	c #7D200E",
"I 	c #D18E3D",
"J 	c #D4A928",
"K 	c #826026",
"L 	c #E8AE4C",
"M 	c #550403",
"N 	c #C91514",
"O 	c #E89E44",
"P 	c #D4A953",
"Q 	c #FECB33",
"R 	c #FBC964",
"S 	c #FBAC4B",
"T 	c #E2AA49",
"U 	c #090000",
"V 	c #540403",
"W 	c #FECB65",
"X 	c #E29A42",
"Y 	c #7F2E15",
"Z 	c #DF1B22",
"` 	c #CE181E",
" .	c #0E0000",
"..	c #340101",
"+.	c #3D0203",
"@.	c #DFB258",
"#.	c #893117",
"$.	c #DE1B22",
"%.	c #D2191F",
"&.	c #7E3E12",
"*.	c #F5C462",
"=.	c #F5A749",
"-.	c #F5C493",
";.	c #F5C430",
">.	c #7E5528",
",.	c #DCB057",
"'.	c #6B0606",
").	c #B71212",
"!.	c #885623",
"~.	c #F49230",
"{.	c #F4C361",
"].	c #884D1F",
"^.	c #690605",
"/.	c #AF110E",
"(.	c #795A23",
"_.	c #79511F",
":.	c #DC9640",
"<.	c #F9C763",
"[.	c #D18B3B",
"}.	c #8C5823",
"|.	c #EEB34E",
"1.	c #EEA246",
"2.	c #D19A42",
"3.	c #F9AA4A",
"4.	c #ECB14D",
"5.	c #F9BB52",
"  . + @ # @ @ + $ $ % @ @ @ + @ & # @ @ @ @ + $ + @ @ @ + @ @ @ ",
"  . + @ # @ @ + $ $ % @ @ @ + @ & # @ @ @ + $ $ + @ @ @ + @ @ @ ",
"  . + @ # @ @ + $ $ % @ @ @ + @ & # @ @ @ + $ $ + @ @ @ + @ @ @ ",
"  . + @ # @ @ + $ $ % @ @ @ + @ & # @ @ @ + $ $ + @ @ @ + @ @ @ ",
"  . + @ # @ @ + $ $ % @ @ + @ @ & # @ @ @ + $ $ + @ @ @ + @ @ @ ",
"  . + @ # @ @ + $ $ % @ @ + @ @ & # @ @ @ + $ $ + @ @ @ + @ @ @ ",
"  . + @ # @ @ + $ $ % @ @ + @ @ & # @ @ @ + $ $ + @ @ @ + @ @ @ ",
"  . + @ # @ @ + $ $ % @ @ + @ @ & # @ @ @ @ + $ + @ @ @ + @ @ + ",
"  . + @ # @ @ + $ $ % @ @ + @ @ & # @ @ @ @ + $ + @ @ @ + @ @ + ",
"  . + @ # @ @ + $ $ % @ * = - - ; > - * @ @ + $ + @ @ @ + @ + @ ",
"  . + , ' @ @ + $ $ % * ) ! ! ! ! ! ! ) * @ + $ + @ @ ~ { @ + @ ",
"  . ] ^ / ( _ : $ $ < [ } | | | | | | } [ * + $ : _ ( 1 2 3 + @ ",
"  . 4 5 6 7 8 9 0 a b } c d | | | | d c } [ e 0 9 8 7 6 5 f + @ ",
"  . 4 5 g h i j k l m | d n o | | o n d | m p k j i h g 5 f + @ ",
"  . q r s t t t u v m | w x y | | y x w | m v u t t t s z A + @ ",
"  . + B C D D D E F m c | | | | | | | | c m G E D D D H I @ + @ ",
"  . + @ J v v v K L M N | | | | | | | | N M O K v v v P + @ + @ ",
"  . + @ Q R R S T F U V N | | | | | | N V U G T S R R W + @ + @ ",
"  . + @ # @ @ X Y Z `  ...+.+.+.+.+.+... .` Z Y X @ @ @ + @ + @ ",
"  . + @ # @ @.#.$.%.&.*.*.=.*.*.-.;.*.*.*.>.%.$.#.@.@ + @ @ + @ ",
"  . + @ # @ ,.'.).!.~.@ @ + @ @ & # @ @ @ {.].).'.,.@ + @ @ + @ ",
"  . + @ # @ ,.^./.(.% @ @ + @ @ & # @ @ @ @ _./.^.:.@ + @ @ + @ ",
"  . + @ # @ <.[.}.|.% @ @ + @ @ & # @ @ @ @ 1.}.2.3.@ + @ @ + @ ",
"  . + @ # @ @ 3.4.$ % @ @ + @ @ & # @ @ @ @ + 4.5.+ @ + @ @ + @ ",
"  . + @ # @ @ + $ $ % @ @ + @ @ & # @ @ @ @ + $ $ + @ + @ @ + @ ",
"  . + @ # @ @ + $ $ % @ @ + @ @ & # @ @ @ @ + $ $ + @ + @ @ + @ ",
"  . + @ # @ @ + $ $ % @ @ + @ @ & # @ @ @ @ + $ $ + @ + @ @ + @ ",
"  . + @ # @ @ + $ $ % @ @ + @ @ & # @ @ @ + $ $ $ + @ + @ @ + @ ",
"  . + @ # @ @ + $ $ % @ @ + @ @ & # @ @ @ + $ $ $ + @ + @ @ + @ ",
"  . + @ # @ + $ $ $ % @ @ + @ @ & # @ @ @ + $ $ + @ @ + @ @ + @ ",
"  . + @ # @ + $ $ $ % @ @ + @ @ & # @ @ @ + $ $ + @ @ + @ @ + @ ",
"  . + @ # @ + $ $ $ % @ @ + @ @ & # @ @ @ + $ $ + @ @ + @ @ + @ "};
