/* XPM */
static char * crab_exit_xpm[] = {
"32 32 587 2",
"  	c #663300",
". 	c #CC6633",
"+ 	c #FFAE4C",
"@ 	c #FFCC66",
"# 	c #FFCC33",
"$ 	c #FFC054",
"% 	c #FF9933",
"& 	c #FFCC99",
"* 	c #EAA149",
"= 	c #BD9047",
"- 	c #A47D40",
"; 	c #A47138",
"> 	c #A38144",
", 	c #A47139",
"' 	c #A48449",
") 	c #BF9A52",
"! 	c #ECBD60",
"~ 	c #E09A47",
"{ 	c #8F703F",
"] 	c #595042",
"^ 	c #605B4E",
"/ 	c #615D51",
"( 	c #615D52",
"_ 	c #5F594E",
": 	c #927644",
"< 	c #E1B45C",
"[ 	c #DE9844",
"} 	c #8B6A3B",
"| 	c #646155",
"1 	c #7B8075",
"2 	c #81887D",
"3 	c #80877C",
"4 	c #7A7F75",
"5 	c #636055",
"6 	c #8C7041",
"7 	c #DFB25A",
"8 	c #FDAD4C",
"9 	c #F0C163",
"0 	c #DFB45F",
"a 	c #DAAF83",
"b 	c #D9AD2F",
"c 	c #D9AD57",
"d 	c #DAAE58",
"e 	c #BE813B",
"f 	c #7A5C34",
"g 	c #656357",
"h 	c #82897C",
"i 	c #8C9588",
"j 	c #8C968A",
"k 	c #8B9588",
"l 	c #666458",
"m 	c #8C6F3F",
"n 	c #DFB259",
"o 	c #FBAC4C",
"p 	c #D5AD5E",
"q 	c #9C8352",
"r 	c #856F56",
"s 	c #846A34",
"t 	c #83683E",
"u 	c #84693D",
"v 	c #82683C",
"w 	c #74502D",
"x 	c #543F29",
"y 	c #5D594B",
"z 	c #7B7D6D",
"A 	c #878E80",
"B 	c #8A9388",
"C 	c #7C7E6E",
"D 	c #635D4E",
"E 	c #8B6F3F",
"F 	c #DEB159",
"G 	c #FCAC4C",
"H 	c #CAA357",
"I 	c #736449",
"J 	c #656255",
"K 	c #6A6A5E",
"L 	c #686557",
"M 	c #615B4B",
"N 	c #574B3C",
"O 	c #4C3C2D",
"P 	c #463629",
"Q 	c #585041",
"R 	c #716F5E",
"S 	c #818678",
"T 	c #899286",
"U 	c #83897B",
"V 	c #747463",
"W 	c #5E5747",
"X 	c #8A6E3E",
"Y 	c #FECB66",
"Z 	c #F9BC53",
"` 	c #F9BB53",
" .	c #F89533",
"..	c #F8C764",
"+.	c #FAC864",
"@.	c #F4A74A",
"#.	c #C29B4F",
"$.	c #6F5D42",
"%.	c #717368",
"&.	c #83897D",
"*.	c #808474",
"=.	c #747361",
"-.	c #625B49",
";.	c #534534",
">.	c #4D3D2F",
",.	c #564B3B",
"'.	c #676352",
").	c #7B7E71",
"!.	c #878F83",
"~.	c #7E8376",
"{.	c #6C6B5C",
"].	c #5A5142",
"^.	c #896D3E",
"/.	c #DD9744",
"(.	c #F8C765",
"_.	c #DC9A4D",
":.	c #C7994F",
"<.	c #C39448",
"[.	c #C37731",
"}.	c #C39B50",
"|.	c #C49D51",
"1.	c #BF843F",
"2.	c #99783E",
"3.	c #5D4D38",
"4.	c #6F7063",
"5.	c #83897A",
"6.	c #7F8272",
"7.	c #727160",
"8.	c #625B4A",
"9.	c #554837",
"0.	c #524332",
"a.	c #5A4F3F",
"b.	c #686454",
"c.	c #787A6B",
"d.	c #828778",
"e.	c #787B6B",
"f.	c #676353",
"g.	c #574C3D",
"h.	c #886C3D",
"i.	c #DC9644",
"j.	c #F1C163",
"k.	c #B6844B",
"l.	c #776649",
"m.	c #6E5D42",
"n.	c #6D543B",
"o.	c #6D5A3D",
"p.	c #6D593C",
"q.	c #000000",
"r.	c #6B6959",
"s.	c #605848",
"t.	c #574B39",
"u.	c #544635",
"v.	c #5C5343",
"w.	c #6A6757",
"x.	c #767665",
"y.	c #7B7D6B",
"z.	c #757462",
"A.	c #686351",
"B.	c #584D3D",
"C.	c #875F35",
"D.	c #DCAF59",
"E.	c #F0C062",
"F.	c #AA7943",
"G.	c #5E5645",
"H.	c #6A6554",
"I.	c #6C6958",
"J.	c #656151",
"K.	c #E51C23",
"L.	c #645E4D",
"M.	c #5C5240",
"N.	c #534535",
"O.	c #594E3F",
"P.	c #676251",
"Q.	c #706E5C",
"R.	c #747462",
"S.	c #72715E",
"T.	c #5F5747",
"U.	c #875F36",
"V.	c #DBAF58",
"W.	c #C86635",
"X.	c #F1A64C",
"Y.	c #C41411",
"Z.	c #DEB15A",
"`.	c #5B5140",
" +	c #777866",
".+	c #5E5543",
"++	c #524535",
"@+	c #574A3B",
"#+	c #6A6654",
"$+	c #615C4C",
"%+	c #855E35",
"&+	c #DAAE57",
"*+	c #B7653C",
"=+	c #BA874D",
"-+	c #696758",
";+	c #6C0000",
">+	c #5A5446",
",+	c #815930",
"'+	c #D9AD56",
")+	c #AB623E",
"!+	c #826A4A",
"~+	c #544C40",
"{+	c #7E562C",
"]+	c #D8AC56",
"^+	c #A85D38",
"/+	c #7A6244",
"(+	c #6A6553",
"_+	c #554D41",
":+	c #7D552C",
"<+	c #D7AB55",
"[+	c #A75B34",
"}+	c #796040",
"|+	c #6B6856",
"1+	c #777766",
"2+	c #6A6858",
"3+	c #524435",
"4+	c #818983",
"5+	c #7F8885",
"6+	c #636560",
"7+	c #7D5731",
"8+	c #D6AA54",
"9+	c #A65B35",
"0+	c #795F40",
"a+	c #666151",
"b+	c #6F6E5E",
"c+	c #6D6A59",
"d+	c #55493A",
"e+	c #6A6D67",
"f+	c #8A9996",
"g+	c #93A5A1",
"h+	c #94A5A2",
"i+	c #9DB0B2",
"j+	c #9CB0B4",
"k+	c #768083",
"l+	c #7D5938",
"m+	c #D6A953",
"n+	c #785D3F",
"o+	c #635E4F",
"p+	c #6B695A",
"q+	c #6A6655",
"r+	c #635B49",
"s+	c #554838",
"t+	c #91A3A1",
"u+	c #9AADAA",
"v+	c #98AAA6",
"w+	c #A1B5B6",
"x+	c #A0B5B9",
"y+	c #798587",
"z+	c #7D5A39",
"A+	c #D4A853",
"B+	c #A55B35",
"C+	c #775D3F",
"D+	c #635E4E",
"E+	c #635B4A",
"F+	c #696554",
"G+	c #625A49",
"H+	c #594E3D",
"I+	c #514332",
"J+	c #4F4032",
"K+	c #676250",
"L+	c #696553",
"M+	c #605949",
"N+	c #96A8A3",
"O+	c #919F97",
"P+	c #97A9A4",
"Q+	c #96A9A8",
"R+	c #737D7C",
"S+	c #7B5837",
"T+	c #A45833",
"U+	c #73583A",
"V+	c #696453",
"W+	c #6C6A5B",
"X+	c #6A6656",
"Y+	c #635D4C",
"Z+	c #5A4F3E",
"`+	c #514231",
" @	c #514537",
".@	c #676457",
"+@	c #787C6F",
"@@	c #7E867D",
"#@	c #7F8982",
"$@	c #7D8680",
"%@	c #78817C",
"&@	c #94A49E",
"*@	c #93A29C",
"=@	c #97A9A5",
"-@	c #93A6A4",
";@	c #717A77",
">@	c #7A5737",
",@	c #D3A853",
"'@	c #A25630",
")@	c #6F5336",
"!@	c #5C5342",
"~@	c #66604E",
"{@	c #67614F",
"]@	c #615948",
"^@	c #6D6C5C",
"/@	c #6C6A5A",
"(@	c #656050",
"_@	c #5A503F",
":@	c #50402F",
"<@	c #53483C",
"[@	c #717469",
"}@	c #889389",
"|@	c #91A19B",
"1@	c #95A7A4",
"2@	c #95A9A6",
"3@	c #95A8A6",
"4@	c #92A19A",
"5@	c #98ABA7",
"6@	c #9BB0AE",
"7@	c #94A8A6",
"8@	c #717B78",
"9@	c #795737",
"0@	c #D2A752",
"a@	c #A35833",
"b@	c #725639",
"c@	c #5E5443",
"d@	c #655E4C",
"e@	c #5C5241",
"f@	c #514434",
"g@	c #656252",
"h@	c #635C4C",
"i@	c #594D3C",
"j@	c #4B3A28",
"k@	c #4D4237",
"l@	c #72766B",
"m@	c #8B968C",
"n@	c #92A099",
"o@	c #95A6A1",
"p@	c #99ADAA",
"q@	c #9BB1AF",
"r@	c #8F9C93",
"s@	c #9CB2B0",
"t@	c #95A8A7",
"u@	c #727C79",
"v@	c #785737",
"w@	c #D2A652",
"x@	c #A35A35",
"y@	c #735A3C",
"z@	c #5F5544",
"A@	c #5F5543",
"B@	c #574A39",
"C@	c #4F4030",
"D@	c #564D3F",
"E@	c #696759",
"F@	c #6F6E5F",
"G@	c #6B6756",
"H@	c #665F4D",
"I@	c #5E5544",
"J@	c #53483A",
"K@	c #544F45",
"L@	c #74796F",
"M@	c #8A9489",
"N@	c #8D988D",
"O@	c #95A7A2",
"P@	c #99ADAB",
"Q@	c #9AAEAC",
"R@	c #95A6A2",
"S@	c #8D998F",
"T@	c #8F9D95",
"U@	c #97AAA6",
"V@	c #9AAFAC",
"W@	c #93A6A3",
"X@	c #775637",
"Y@	c #D1A652",
"Z@	c #A25733",
"`@	c #6F5437",
" #	c #5D5342",
".#	c #5B503E",
"+#	c #4F3F2F",
"@#	c #5C564B",
"##	c #767A6F",
"$#	c #7E8375",
"%#	c #787967",
"&#	c #74725F",
"*#	c #71705E",
"=#	c #717264",
"-#	c #757A70",
";#	c #828A80",
">#	c #8B958A",
",#	c #8C968B",
"'#	c #8D988E",
")#	c #909E96",
"!#	c #94A5A0",
"~#	c #98ACA9",
"{#	c #91A29D",
"]#	c #848D83",
"^#	c #909E97",
"/#	c #94A49D",
"(#	c #8D9B95",
"_#	c #6D736D",
":#	c #775535",
"<#	c #D0A551",
"[#	c #A05530",
"}#	c #6B4E31",
"|#	c #584C3A",
"1#	c #594D3B",
"2#	c #554836",
"3#	c #4D3D2E",
"4#	c #5E594F",
"5#	c #7C8277",
"6#	c #848B7E",
"7#	c #7F8270",
"8#	c #7C7D69",
"9#	c #7D7E6B",
"0#	c #818576",
"a#	c #858D81",
"b#	c #889084",
"c#	c #899185",
"d#	c #8A9286",
"e#	c #8B9488",
"f#	c #909D94",
"g#	c #8F9E99",
"h#	c #7F877D",
"i#	c #7E8478",
"j#	c #878F84",
"k#	c #8B9589",
"l#	c #868F83",
"m#	c #696B61",
"n#	c #765432",
"o#	c #9F542F",
"p#	c #694D30",
"q#	c #524433",
"r#	c #574A38",
"s#	c #534635",
"t#	c #483829",
"u#	c #544D42",
"v#	c #707266",
"w#	c #797C6E",
"x#	c #767767",
"y#	c #787561",
"z#	c #7B755F",
"A#	c #7B7967",
"B#	c #7B7D6F",
"C#	c #7D7D6D",
"D#	c #807E6C",
"E#	c #838473",
"F#	c #858B7D",
"G#	c #8D998E",
"H#	c #909E95",
"I#	c #909F98",
"J#	c #8D9C96",
"K#	c #859089",
"L#	c #7C8176",
"M#	c #7F8374",
"N#	c #656457",
"O#	c #745230",
"P#	c #CFA451",
"Q#	c #6A4D32",
"R#	c #5D5443",
"S#	c #594F3F",
"T#	c #4F4437",
"U#	c #544D41",
"V#	c #666456",
"W#	c #6E6C5D",
"X#	c #6E6A59",
"Y#	c #736C58",
"Z#	c #797059",
"`#	c #77725D",
" $	c #747261",
".$	c #787461",
"+$	c #7D7763",
"@$	c #7D7B67",
"#$	c #7E8170",
"$$	c #858A7C",
"%$	c #888F82",
"&$	c #8D9991",
"*$	c #94A4A0",
"=$	c #8B9891",
"-$	c #787B6E",
";$	c #787764",
">$	c #7A7965",
",$	c #625D4D",
"'$	c #72502E",
")$	c #CEA451",
"!$	c #9E532E",
"~$	c #6A4F34",
"{$	c #5C5446",
"]$	c #666253",
"^$	c #686455",
"/$	c #635F51",
"($	c #646154",
"_$	c #6A685A",
":$	c #6C6756",
"<$	c #6D634D",
"[$	c #746C55",
"}$	c #7C7963",
"|$	c #7D7C67",
"1$	c #7C7D6A",
"2$	c #818575",
"3$	c #848879",
"4$	c #7B7D6E",
"5$	c #767463",
"6$	c #7C7765",
"7$	c #7D7A68",
"8$	c #7A7B6C",
"9$	c #80887D",
"0$	c #8D9890",
"a$	c #899389",
"b$	c #7D8070",
"c$	c #7B7762",
"d$	c #615542",
"e$	c #714F2C",
"f$	c #CEA351",
"g$	c #9C512D",
"h$	c #644A32",
"i$	c #5D5445",
"j$	c #696454",
"k$	c #6E6C5C",
"l$	c #6F6C5B",
"m$	c #6E6958",
"n$	c #69614E",
"o$	c #6C604A",
"p$	c #736C57",
"q$	c #7A7A66",
"r$	c #7C7E6C",
"s$	c #818778",
"t$	c #828A7D",
"u$	c #7A7E70",
"v$	c #757463",
"w$	c #7B7663",
"x$	c #7A7460",
"y$	c #706A59",
"z$	c #737365",
"A$	c #80867B",
"B$	c #82887B",
"C$	c #7C7E6D",
"D$	c #7C7863",
"E$	c #787059",
"F$	c #6E4D2B",
"G$	c #CCA251",
"H$	c #9B502B",
"I$	c #62452A",
"J$	c #574533",
"K$	c #655743",
"L$	c #756D58",
"M$	c #71654D",
"N$	c #64543E",
"O$	c #625541",
"P$	c #6A6452",
"Q$	c #727161",
"R$	c #737362",
"S$	c #757767",
"T$	c #77796B",
"U$	c #7A7B6A",
"V$	c #7E806F",
"W$	c #85897A",
"X$	c #818274",
"Y$	c #6F6654",
"Z$	c #6A604E",
"`$	c #737163",
" %	c #757768",
".%	c #797865",
"+%	c #7A7764",
"@%	c #704F2E",
"#%	c #CCA250",
"$%	c #AA562C",
"%%	c #A46F34",
"&%	c #9E7B40",
"*%	c #A58436",
"=%	c #A88B57",
"-%	c #AB8456",
";%	c #AE8C55",
">%	c #AC864A",
",%	c #A57C3C",
"'%	c #A46B37",
")%	c #A98E5B",
"!%	c #AA9260",
"~%	c #AA8458",
"{%	c #AA9160",
"]%	c #AA9172",
"^%	c #AB9355",
"/%	c #AF9867",
"(%	c #B39F70",
"_%	c #B7A67D",
":%	c #B49571",
"<%	c #AB8854",
"[%	c #A78146",
"}%	c #A98052",
"|%	c #AB9160",
"1%	c #AB9260",
"2%	c #AE8A5F",
"3%	c #B19968",
"4%	c #A58B58",
"5%	c #AC763A",
"6%	c #DDB057",
"  . + @ # @ @ + $ $ % @ @ @ + @ & # @ @ @ @ + $ + @ @ @ + @ @ @ ",
"  . + @ # @ @ + $ $ % @ @ @ + @ & # @ @ @ * = - ; > > > , ' ) ! ",
"  . + @ # @ @ + $ $ % @ @ @ + @ & # @ @ @ ~ { ] ^ / / ( _ ] : < ",
"  . + @ # @ @ + $ $ % @ @ @ + @ & # @ @ @ [ } | 1 2 3 2 4 5 6 7 ",
"  . + @ # @ @ + $ $ % @ @ 8 9 0 a b c d d e f g h i j k h l m n ",
"  . + @ # @ @ + $ $ % @ @ o p q r s t u v w x y z A B A C D E F ",
"  . + @ # @ @ + $ $ % @ @ G H I J K L M N O P Q R S T U V W X F ",
"  . + @ # @ Y o Z `  ...+.@.#.$.%.&.*.=.-.;.>.,.'.).!.~.{.].^./.",
"  . + @ # @ (._.:.<.[.}.|.1.2.3.4.5.6.7.8.9.0.a.b.c.d.e.f.g.h.i.",
"  . + @ # @ j.k.l.m.n.o.p.q.q.q.q.q.q.r.s.t.u.v.w.x.y.z.A.B.C.D.",
"  . + @ q.@ E.F.G.H.I.J.q.K.K.K.K.K.K.q.L.M.N.O.P.Q.R.q.S.T.U.V.",
"  W.X.q.Y.q.Z.q.`.R  +q.K.K.K.K.K.K.K.K.q..+++@+q.#+q.Y.q.$+%+&+",
"  *+=+q.Y.K.q.K.q.-+q.K.K.;+K.K.K.K.;+K.K.q.N.q.K.q.K.Y.q.>+,+'+",
"  )+!+q.Y.K.K.K.K.q.q.K.K.;+;+K.K.;+;+K.K.q.q.K.K.K.K.Y.q.~+{+]+",
"  ^+/+(+q.Y.Y.Y.Y.q.q.K.K.K.K.K.K.K.K.K.K.q.q.Y.Y.Y.Y.q.-+_+:+<+",
"  [+}+|+1+q.q.q.q.2+q.Y.K.K.K.K.K.K.K.K.Y.q.3+q.q.q.q.4+5+6+7+8+",
"  9+0+a+b+c+L.d+].q.q.q.Y.K.K.K.K.K.K.Y.q.q.q.e+f+g+h+i+j+k+l+m+",
"  9+n+o+p+q+r+s+q.K.K.q.q.q.q.q.q.q.q.q.q.K.K.q.t+u+v+w+x+y+z+A+",
"  B+C+D+r.q+E+q.K.K.q.F+G+H+I+J+v.K+L+P.M+q.K.K.q.N+O+P+Q+R+S+A+",
"  T+U+M+F+V+E+q.Y.q.W+X+Y+Z+`+ @.@+@@@#@$@%@q.Y.q.&@*@=@-@;@>@,@",
"  '@)@!@~@{@]@q.Y.q.^@/@(@_@:@<@[@}@|@1@2@3@q.Y.q.4@5@6@7@8@9@0@",
"  a@b@c@d@r+e@f@q.g@/@X+h@i@j@k@l@m@n@o@p@q@q@q.r@4@p@s@t@u@v@w@",
"  x@y@z@r+A@B@C@D@E@F@G@H@I@J@K@L@M@N@r@O@P@Q@R@S@T@U@V@W@;@X@Y@",
"  Z@`@H+ #.#9.+#@###$#%#&#*#=#-#;#>#,#'#)#!#~#{#;#]#^#/#(#_#:#<#",
"  [#}#N.|#1#2#3#4#5#6#7#8#9#0#a#b#c#d#e#,#f#O@g#h#i#j#k#l#m#n#<#",
"  o#p#q#r#|#s#t#u#v#w#x#y#z#A#B#C#D#E#F#d#G#H#I#J#K#L#M#M#N#O#P#",
"  o#Q#d+!@R#S#T#U#V#W#X#Y#Z#`# $.$+$@$#$$$%$b#&$*$=$-$;$>$,$'$)$",
"  !$~${$]$^$]$/$($_$:$<$[$}$|$1$2$3$4$5$6$7$8$9$0$a$b$c$Z#d$e$f$",
"  g$h$i$j$/@k$l$m$H.n$o$p$q$1$r$s$t$u$v$w$x$y$z$A$B$C$D$E$d$F$G$",
"  H$I$J$K$H.l$L$M$N$O$P$l$Q$R$V S$T$U$V$W$X$Y$Z$`$ %V .%+%Y+@%#%",
"  $%%%&%*%=%-%;%>%,%'%)%!%~%{%{%]%^%/%(%_%:%<%[%}%|%1%2%3%4%5%6%",
"  . + @ # @ + $ $ $ % @ @ + @ @ & # @ @ @ + $ $ + @ @ + @ @ + @ "};
