/* XPM */
static char * exit_bear_left_xpm[] = {
"32 32 693 2",
"  	c #663300",
". 	c #CC6633",
"+ 	c #FFAE4C",
"@ 	c #FFCC66",
"# 	c #FFCC33",
"$ 	c #FFC054",
"% 	c #FF9933",
"& 	c #FFCC99",
"* 	c #EAA149",
"= 	c #BD9047",
"- 	c #A47D40",
"; 	c #A47138",
"> 	c #A38144",
", 	c #A47139",
"' 	c #A48449",
") 	c #BF9A52",
"! 	c #ECBD60",
"~ 	c #E09A47",
"{ 	c #8F703F",
"] 	c #595042",
"^ 	c #605B4E",
"/ 	c #615D51",
"( 	c #615D52",
"_ 	c #5F594E",
": 	c #927644",
"< 	c #E1B45C",
"[ 	c #DE9844",
"} 	c #8B6A3B",
"| 	c #646155",
"1 	c #7B8075",
"2 	c #81887D",
"3 	c #80877C",
"4 	c #7A7F75",
"5 	c #636055",
"6 	c #8C7041",
"7 	c #DFB25A",
"8 	c #FDAD4C",
"9 	c #F0C163",
"0 	c #DFB45F",
"a 	c #DAAF83",
"b 	c #D9AD2F",
"c 	c #D9AD57",
"d 	c #DAAE58",
"e 	c #BE813B",
"f 	c #7A5C34",
"g 	c #656357",
"h 	c #82897C",
"i 	c #8C9588",
"j 	c #8C968A",
"k 	c #8B9588",
"l 	c #666458",
"m 	c #8C6F3F",
"n 	c #DFB259",
"o 	c #FBAC4C",
"p 	c #D5AD5E",
"q 	c #9C8352",
"r 	c #856F56",
"s 	c #846A34",
"t 	c #83683E",
"u 	c #84693D",
"v 	c #82683C",
"w 	c #74502D",
"x 	c #543F29",
"y 	c #5D594B",
"z 	c #7B7D6D",
"A 	c #878E80",
"B 	c #8A9388",
"C 	c #7C7E6E",
"D 	c #635D4E",
"E 	c #8B6F3F",
"F 	c #DEB159",
"G 	c #FCAC4C",
"H 	c #CAA357",
"I 	c #736449",
"J 	c #656255",
"K 	c #6A6A5E",
"L 	c #686557",
"M 	c #615B4B",
"N 	c #574B3C",
"O 	c #4C3C2D",
"P 	c #463629",
"Q 	c #585041",
"R 	c #716F5E",
"S 	c #818678",
"T 	c #899286",
"U 	c #83897B",
"V 	c #747463",
"W 	c #5E5747",
"X 	c #8A6E3E",
"Y 	c #E7B85E",
"Z 	c #B69051",
"` 	c #AE7541",
" .	c #D39E4B",
"..	c #F8BA53",
"+.	c #F89533",
"@.	c #F8C764",
"#.	c #F2C161",
"$.	c #BE8143",
"%.	c #886A43",
"&.	c #56433D",
"*.	c #585251",
"=.	c #757870",
"-.	c #808474",
";.	c #747361",
">.	c #625B49",
",.	c #534534",
"'.	c #4D3D2F",
").	c #564B3B",
"!.	c #676352",
"~.	c #7B7E71",
"{.	c #878F83",
"].	c #7E8376",
"^.	c #6C6B5C",
"/.	c #5A5142",
"(.	c #896D3E",
"_.	c #DD9744",
":.	c #FDCB65",
"<.	c #EABB34",
"[.	c #BC9658",
"}.	c #735C51",
"|.	c #6A5450",
"1.	c #8C6C4E",
"2.	c #AA8045",
"3.	c #AD6933",
"4.	c #AD894B",
"5.	c #A2814B",
"6.	c #6F4E45",
"7.	c #573F46",
"8.	c #574047",
"9.	c #68625D",
"0.	c #727266",
"a.	c #676357",
"b.	c #595046",
"c.	c #4E4037",
"d.	c #4C3C33",
"e.	c #53463D",
"f.	c #5E584E",
"g.	c #6B6B60",
"h.	c #74766B",
"i.	c #707164",
"j.	c #666253",
"k.	c #574C3D",
"l.	c #886C3D",
"m.	c #DC9644",
"n.	c #653307",
"o.	c #C76433",
"p.	c #FBAB4B",
"q.	c #F0C062",
"r.	c #AB873C",
"s.	c #846A58",
"t.	c #9A806D",
"u.	c #9F8471",
"v.	c #846D5F",
"w.	c #513A3F",
"x.	c #4B343C",
"y.	c #4B363D",
"z.	c #574144",
"A.	c #765C57",
"B.	c #7F635D",
"C.	c #7E635D",
"D.	c #7D625D",
"E.	c #695352",
"F.	c #504045",
"G.	c #503E44",
"H.	c #503C42",
"I.	c #4E3A40",
"J.	c #4E3940",
"K.	c #4F3B41",
"L.	c #513F44",
"M.	c #534246",
"N.	c #5B514D",
"O.	c #645E4F",
"P.	c #584D3D",
"Q.	c #875F35",
"R.	c #DCAF59",
"S.	c #532E2B",
"T.	c #8B4636",
"U.	c #AD733F",
"V.	c #A98550",
"W.	c #94775A",
"X.	c #8A6D5F",
"Y.	c #8C6A5C",
"Z.	c #A0836F",
"`.	c #8F7262",
" +	c #633D40",
".+	c #694C4D",
"++	c #6C5353",
"@+	c #755B58",
"#+	c #927769",
"$+	c #9B806F",
"%+	c #9B7F6E",
"&+	c #9A7E6E",
"*+	c #846A61",
"=+	c #745B57",
"-+	c #856D61",
";+	c #8A7264",
">+	c #887063",
",+	c #79605A",
"'+	c #665050",
")+	c #5B524D",
"!+	c #594F44",
"~+	c #875F36",
"{+	c #DBAF58",
"]+	c #4C343C",
"^+	c #6D5A54",
"/+	c #7D695E",
"(+	c #7F6A5F",
"_+	c #8C7465",
":+	c #8B6D5F",
"<+	c #876457",
"[+	c #9E816D",
"}+	c #9A7C69",
"|+	c #835E53",
"1+	c #7D5A54",
"2+	c #83665E",
"3+	c #A28773",
"4+	c #A88D76",
"5+	c #A78C76",
"6+	c #9A7F6E",
"7+	c #94796A",
"8+	c #A48974",
"9+	c #A88D77",
"0+	c #A68B75",
"a+	c #997E6D",
"b+	c #81675E",
"c+	c #624C4D",
"d+	c #584B47",
"e+	c #7B5736",
"f+	c #584244",
"g+	c #A28C75",
"h+	c #C1A88A",
"i+	c #B8A084",
"j+	c #867163",
"k+	c #7E665C",
"l+	c #A08570",
"m+	c #A58A74",
"n+	c #9A7D6B",
"o+	c #7D564D",
"p+	c #89675A",
"q+	c #A38873",
"r+	c #A58A75",
"s+	c #A68B76",
"t+	c #7F645D",
"u+	c #5E4549",
"v+	c #604037",
"w+	c #CDA353",
"x+	c #5A4445",
"y+	c #AB947B",
"z+	c #CBB191",
"A+	c #C5AC8D",
"B+	c #B19A7F",
"C+	c #A68E77",
"D+	c #A78D76",
"E+	c #9F8472",
"F+	c #8D7164",
"G+	c #764C47",
"H+	c #8A6759",
"I+	c #9E8371",
"J+	c #846860",
"K+	c #6C4848",
"L+	c #5C3537",
"M+	c #957347",
"N+	c #5D3F39",
"O+	c #997E6B",
"P+	c #B59E82",
"Q+	c #C6AD8E",
"R+	c #C9B090",
"S+	c #C2A88A",
"T+	c #B2987F",
"U+	c #A38874",
"V+	c #917669",
"W+	c #7F615B",
"X+	c #714543",
"Y+	c #A68A75",
"Z+	c #A18672",
"`+	c #957A6B",
" @	c #83665F",
".@	c #744B48",
"+@	c #603238",
"@@	c #593E3D",
"#@	c #633416",
"$@	c #7A4C40",
"%@	c #8A7565",
"&@	c #BCA486",
"*@	c #C0A889",
"=@	c #B89F84",
"-@	c #947B6C",
";@	c #7D5E59",
">@	c #734846",
",@	c #8B695B",
"'@	c #9E8370",
")@	c #8C7065",
"!@	c #967B6C",
"~@	c #846861",
"{@	c #80635D",
"]@	c #734B48",
"^@	c #5E3338",
"/@	c #6E5140",
"(@	c #653301",
"_@	c #965134",
":@	c #725B4C",
"<@	c #7F6C5F",
"[@	c #816D60",
"}@	c #826E61",
"|@	c #7E695E",
"1@	c #675150",
"2@	c #654447",
"3@	c #744C49",
"4@	c #7A5752",
"5@	c #917466",
"6@	c #9C816F",
"7@	c #8C7166",
"8@	c #836861",
"9@	c #886C63",
"0@	c #A18673",
"a@	c #866A62",
"b@	c #81655F",
"c@	c #7E625D",
"d@	c #664849",
"e@	c #5B3A39",
"f@	c #B48D4C",
"g@	c #A65B35",
"h@	c #6E543D",
"i@	c #4D4242",
"j@	c #4F4546",
"k@	c #4F4344",
"l@	c #4C3D3F",
"m@	c #473539",
"n@	c #53363A",
"o@	c #633A3E",
"p@	c #75514E",
"q@	c #8A6D61",
"r@	c #9D8270",
"s@	c #7A5853",
"t@	c #795652",
"u@	c #82635B",
"v@	c #977B6B",
"w@	c #80645F",
"x@	c #82665F",
"y@	c #5D464A",
"z@	c #593E3A",
"A@	c #CEA352",
"B@	c #A55B35",
"C@	c #765C3F",
"D@	c #615C4D",
"E@	c #696657",
"F@	c #686354",
"G@	c #615949",
"H@	c #544638",
"I@	c #4E3E3D",
"J@	c #4D323C",
"K@	c #66383B",
"L@	c #77504C",
"M@	c #886B61",
"N@	c #9E8471",
"O@	c #8A6F64",
"P@	c #78544F",
"Q@	c #6E3C3B",
"R@	c #6E3B3B",
"S@	c #6D3A3A",
"T@	c #734845",
"U@	c #80615A",
"V@	c #836760",
"W@	c #5E464A",
"X@	c #583D39",
"Y@	c #CDA251",
"Z@	c #A45833",
"`@	c #73583A",
" #	c #605949",
".#	c #696554",
"+#	c #696453",
"@#	c #635B4A",
"##	c #554839",
"$#	c #4C3F3C",
"%#	c #4A303B",
"&#	c #633338",
"*#	c #6F3D3C",
"=#	c #8E7367",
"-#	c #8B7065",
";#	c #76504D",
">#	c #6C3737",
",#	c #6C3636",
"'#	c #724745",
")#	c #7B5A55",
"!#	c #573C39",
"~#	c #CCA251",
"{#	c #A25630",
"]#	c #6F5336",
"^#	c #5C5342",
"/#	c #66604E",
"(#	c #67614F",
"_#	c #615948",
":#	c #544738",
"<#	c #4C3E3B",
"[#	c #4A2E3B",
"}#	c #633337",
"|#	c #6B3334",
"1#	c #6E3E3D",
"2#	c #7B5B57",
"3#	c #7D615D",
"4#	c #715755",
"5#	c #654446",
"6#	c #693536",
"7#	c #6C3736",
"8#	c #693537",
"9#	c #603439",
"0#	c #654648",
"a#	c #725756",
"b#	c #7C605C",
"c#	c #6F5958",
"d#	c #605456",
"e#	c #664838",
"f#	c #CEA351",
"g#	c #A35833",
"h#	c #725639",
"i#	c #5E5443",
"j#	c #655E4C",
"k#	c #635B49",
"l#	c #5C5241",
"m#	c #504235",
"n#	c #4F403E",
"o#	c #533941",
"p#	c #683D3E",
"q#	c #72423F",
"r#	c #784F49",
"s#	c #83655C",
"t#	c #856962",
"u#	c #795E5A",
"v#	c #553E45",
"w#	c #48313E",
"x#	c #573840",
"y#	c #6A3D3E",
"z#	c #6E3B3A",
"A#	c #643438",
"B#	c #4C2E3B",
"C#	c #503A42",
"D#	c #685150",
"E#	c #82675F",
"F#	c #735956",
"G#	c #56464E",
"H#	c #636666",
"I#	c #775637",
"J#	c #D2A652",
"K#	c #A35A35",
"L#	c #735A3C",
"M#	c #5F5544",
"N#	c #5F5543",
"O#	c #483536",
"P#	c #5D4749",
"Q#	c #745956",
"R#	c #7A5B57",
"S#	c #8B6C60",
"T#	c #9A7D6A",
"U#	c #9D816F",
"V#	c #523B44",
"W#	c #755A57",
"X#	c #7A5A56",
"Y#	c #744A47",
"Z#	c #4E323D",
"`#	c #79625A",
" $	c #977D6C",
".$	c #9B816F",
"+$	c #52434C",
"@$	c #626666",
"#$	c #D1A652",
"$$	c #A25733",
"%$	c #6F5437",
"&$	c #594E3D",
"*$	c #5D5342",
"=$	c #5B503E",
"-$	c #544637",
";$	c #493735",
">$	c #604F4C",
",$	c #7C6E66",
"'$	c #807469",
")$	c #8A7A69",
"!$	c #95836E",
"~$	c #94826D",
"{$	c #897869",
"]$	c #776B64",
"^$	c #6A6663",
"/$	c #78736D",
"($	c #867D74",
"_$	c #867E76",
":$	c #827973",
"<$	c #7B7572",
"[$	c #757A7A",
"}$	c #8C8880",
"|$	c #9A8C7B",
"1$	c #998C7C",
"2$	c #91897F",
"3$	c #817E7A",
"4$	c #6F7271",
"5$	c #656865",
"6$	c #775535",
"7$	c #D0A551",
"8$	c #A05530",
"9$	c #6B4E31",
"0$	c #534535",
"a$	c #584C3A",
"b$	c #594D3B",
"c$	c #554836",
"d$	c #4D3D2E",
"e$	c #5E594F",
"f$	c #7C8277",
"g$	c #848B7E",
"h$	c #7F8270",
"i$	c #7C7D69",
"j$	c #7D7E6B",
"k$	c #818576",
"l$	c #858D81",
"m$	c #889084",
"n$	c #899185",
"o$	c #8A9286",
"p$	c #8B9488",
"q$	c #8C968B",
"r$	c #909D94",
"s$	c #95A7A2",
"t$	c #8F9E99",
"u$	c #7F877D",
"v$	c #7E8478",
"w$	c #878F84",
"x$	c #8B9589",
"y$	c #868F83",
"z$	c #696B61",
"A$	c #765432",
"B$	c #9F542F",
"C$	c #694D30",
"D$	c #524433",
"E$	c #574A38",
"F$	c #534635",
"G$	c #483829",
"H$	c #544D42",
"I$	c #707266",
"J$	c #797C6E",
"K$	c #767767",
"L$	c #787561",
"M$	c #7B755F",
"N$	c #7B7967",
"O$	c #7B7D6F",
"P$	c #7D7D6D",
"Q$	c #807E6C",
"R$	c #838473",
"S$	c #858B7D",
"T$	c #8D998E",
"U$	c #909E95",
"V$	c #909F98",
"W$	c #8D9C96",
"X$	c #859089",
"Y$	c #7C8176",
"Z$	c #7F8374",
"`$	c #656457",
" %	c #745230",
".%	c #CFA451",
"+%	c #6A4D32",
"@%	c #55493A",
"#%	c #5D5443",
"$%	c #594F3F",
"%%	c #4F4437",
"&%	c #544D41",
"*%	c #666456",
"=%	c #6E6C5D",
"-%	c #6E6A59",
";%	c #736C58",
">%	c #797059",
",%	c #77725D",
"'%	c #747261",
")%	c #787461",
"!%	c #7D7763",
"~%	c #7D7B67",
"{%	c #7E8170",
"]%	c #858A7C",
"^%	c #888F82",
"/%	c #8D9991",
"(%	c #94A4A0",
"_%	c #8B9891",
":%	c #787B6E",
"<%	c #787764",
"[%	c #7A7965",
"}%	c #625D4D",
"|%	c #72502E",
"1%	c #CEA451",
"2%	c #9E532E",
"3%	c #6A4F34",
"4%	c #5C5446",
"5%	c #686455",
"6%	c #635F51",
"7%	c #646154",
"8%	c #6A685A",
"9%	c #6C6756",
"0%	c #6D634D",
"a%	c #746C55",
"b%	c #7C7963",
"c%	c #7D7C67",
"d%	c #7C7D6A",
"e%	c #818575",
"f%	c #848879",
"g%	c #7B7D6E",
"h%	c #767463",
"i%	c #7C7765",
"j%	c #7D7A68",
"k%	c #7A7B6C",
"l%	c #80887D",
"m%	c #8D9890",
"n%	c #899389",
"o%	c #7D8070",
"p%	c #7B7762",
"q%	c #615542",
"r%	c #714F2C",
"s%	c #9C512D",
"t%	c #644A32",
"u%	c #5D5445",
"v%	c #696454",
"w%	c #6C6A5A",
"x%	c #6E6C5C",
"y%	c #6F6C5B",
"z%	c #6E6958",
"A%	c #6A6554",
"B%	c #69614E",
"C%	c #6C604A",
"D%	c #736C57",
"E%	c #7A7A66",
"F%	c #7C7E6C",
"G%	c #818778",
"H%	c #828A7D",
"I%	c #7A7E70",
"J%	c #757463",
"K%	c #7B7663",
"L%	c #7A7460",
"M%	c #706A59",
"N%	c #737365",
"O%	c #80867B",
"P%	c #82887B",
"Q%	c #7C7E6D",
"R%	c #7C7863",
"S%	c #787059",
"T%	c #6E4D2B",
"U%	c #9B502B",
"V%	c #62452A",
"W%	c #574533",
"X%	c #655743",
"Y%	c #756D58",
"Z%	c #71654D",
"`%	c #64543E",
" &	c #625541",
".&	c #6A6452",
"+&	c #727161",
"@&	c #737362",
"#&	c #757767",
"$&	c #77796B",
"%&	c #7A7B6A",
"&&	c #7E806F",
"*&	c #85897A",
"=&	c #818274",
"-&	c #6F6654",
";&	c #6A604E",
">&	c #737163",
",&	c #757768",
"'&	c #797865",
")&	c #7A7764",
"!&	c #635D4C",
"~&	c #704F2E",
"{&	c #CCA250",
"]&	c #AA562C",
"^&	c #A46F34",
"/&	c #9E7B40",
"(&	c #A58436",
"_&	c #A88B57",
":&	c #AB8456",
"<&	c #AE8C55",
"[&	c #AC864A",
"}&	c #A57C3C",
"|&	c #A46B37",
"1&	c #A98E5B",
"2&	c #AA9260",
"3&	c #AA8458",
"4&	c #AA9160",
"5&	c #AA9172",
"6&	c #AB9355",
"7&	c #AF9867",
"8&	c #B39F70",
"9&	c #B7A67D",
"0&	c #B49571",
"a&	c #AB8854",
"b&	c #A78146",
"c&	c #A98052",
"d&	c #AB9160",
"e&	c #AB9260",
"f&	c #AE8A5F",
"g&	c #B19968",
"h&	c #A58B58",
"i&	c #AC763A",
"j&	c #DDB057",
"  . + @ # @ @ + $ $ % @ @ @ + @ & # @ @ @ @ + $ + @ @ @ + @ @ @ ",
"  . + @ # @ @ + $ $ % @ @ @ + @ & # @ @ @ * = - ; > > > , ' ) ! ",
"  . + @ # @ @ + $ $ % @ @ @ + @ & # @ @ @ ~ { ] ^ / / ( _ ] : < ",
"  . + @ # @ @ + $ $ % @ @ @ + @ & # @ @ @ [ } | 1 2 3 2 4 5 6 7 ",
"  . + @ # @ @ + $ $ % @ @ 8 9 0 a b c d d e f g h i j k h l m n ",
"  . + @ # @ @ + $ $ % @ @ o p q r s t u v w x y z A B A C D E F ",
"  . + @ # @ @ + $ $ % @ @ G H I J K L M N O P Q R S T U V W X F ",
"  . + @ # Y Z `  ...+.@.#.$.%.&.*.=.-.;.>.,.'.).!.~.{.].^./.(._.",
"  . + :.<.[.}.|.1.2.3.4.5.6.7.7.8.9.0.a.b.c.d.e.f.g.h.i.j.k.l.m.",
"n.o.p.q.r.s.t.u.v.w.x.y.z.A.B.C.D.E.F.G.H.I.J.K.L.M.F.N.O.P.Q.R.",
"S.T.U.V.W.X.Y.Z.`. +.+++@+#+$+%+&+*+=+-+;+;+;+;+;+>+,+'+)+!+~+{+",
"]+^+/+(+_+:+<+[+}+|+1+2+#+3+4+5+5+6+7+8+9+5+5+5+4+0+a+b+c+d+e+c ",
"f+g+h+i+j+k+l+0+m+n+o+p+q+5+5+5+5+r+8+s+5+5+5+5+5+5+0+6+t+u+v+w+",
"x+y+z+A+B+C+D+5+E+F+G+H+0+D+5+5+5+5+4+5+5+5+5+5+5+5+9+I+J+K+L+M+",
"N+O+P+Q+R+S+T+U+V+W+X+H+Y+5+5+5+5+5+r+I+3+5+5+5+5+5+Z+`+ @.@+@@@",
"#@$@%@&@h+*@=@-@B.;@>@,@Y+5+5+5+5+0+'@)@!@r+5+5+5+U+#+~@{@]@^@/@",
"(@_@:@<@[@}@|@1@2@3@4@5@0+5+5+5+5+6@7@8@9@`+8+9+0@V+a@b@c@d@e@f@",
"  g@h@i@j@k@l@m@n@o@p@q@6@r+9+r+r@q@s@s@t@u@v@6@7+~@w@x@c@y@z@A@",
"  B@C@D@E@F@G@H@I@J@K@L@M@r@r+N@O@P@Q@R@S@T@U@J+V@b@b@x@c@W@X@Y@",
"  Z@`@ #.#+#@###$#%#&#*#L@M@=#-#V@;#>#,#,#S@'#)#b@b@b@x@c@W@!#~#",
"  {#]#^#/#(#_#:#<#[#}#|#1#2#b@3#4#5#+@6#7#8#9#0#a#c@b@b#c#d#e#f#",
"  g#h#i#j#k#l#m#n#o#p#q#r#s#t#u#v#w#x#y#z#A#B#C#D#E#~@F#G#H#I#J#",
"  K#L#M#k#N###O#P#Q#R#S#T#U##+u#V#y@W#X#Y#&#Z#`# $.$=#a#+$@$I##$",
"  $$%$&$*$=$-$;$>$,$'$)$!$~${$]$^$/$($_$:$<$[$}$|$1$2$3$4$5$6$7$",
"  8$9$0$a$b$c$d$e$f$g$h$i$j$k$l$m$n$o$p$q$r$s$t$u$v$w$x$y$z$A$7$",
"  B$C$D$E$a$F$G$H$I$J$K$L$M$N$O$P$Q$R$S$o$T$U$V$W$X$Y$Z$Z$`$ %.%",
"  B$+%@%^##%$%%%&%*%=%-%;%>%,%'%)%!%~%{%]%^%m$/%(%_%:%<%[%}%|%1%",
"  2%3%4%j.5%j.6%7%8%9%0%a%b%c%d%e%f%g%h%i%j%k%l%m%n%o%p%>%q%r%f#",
"  s%t%u%v%w%x%y%z%A%B%C%D%E%d%F%G%H%I%J%K%L%M%N%O%P%Q%R%S%q%T%~#",
"  U%V%W%X%A%y%Y%Z%`% &.&y%+&@&V #&$&%&&&*&=&-&;&>&,&V '&)&!&~&{&",
"  ]&^&/&(&_&:&<&[&}&|&1&2&3&4&4&5&6&7&8&9&0&a&b&c&d&e&f&g&h&i&j&",
"  . + @ # @ + $ $ $ % @ @ + @ @ & # @ @ @ + $ $ + @ @ + @ @ + @ "};
