/* XPM */
static char * exit_stairs_xpm[] = {
"32 32 703 2",
"  	c #663300",
". 	c #CC6633",
"+ 	c #FFAE4C",
"@ 	c #FFCC66",
"# 	c #FFCC33",
"$ 	c #FFC054",
"% 	c #FF9933",
"& 	c #FFCC99",
"* 	c #EAA149",
"= 	c #BD9047",
"- 	c #A47D40",
"; 	c #A47138",
"> 	c #A38144",
", 	c #A47139",
"' 	c #A48449",
") 	c #BF9A52",
"! 	c #ECBD60",
"~ 	c #E09A47",
"{ 	c #8F703F",
"] 	c #595042",
"^ 	c #605B4E",
"/ 	c #615D51",
"( 	c #615D52",
"_ 	c #5F594E",
": 	c #927644",
"< 	c #E1B45C",
"[ 	c #DE9844",
"} 	c #8B6A3B",
"| 	c #646155",
"1 	c #7B8075",
"2 	c #81887D",
"3 	c #80877C",
"4 	c #7A7F75",
"5 	c #636055",
"6 	c #8C7041",
"7 	c #DFB25A",
"8 	c #FDAD4C",
"9 	c #F0C163",
"0 	c #DFB45F",
"a 	c #DAAF83",
"b 	c #D9AD2F",
"c 	c #D9AD57",
"d 	c #DAAE58",
"e 	c #BE813B",
"f 	c #7A5C34",
"g 	c #656357",
"h 	c #82897C",
"i 	c #8C9588",
"j 	c #8C968A",
"k 	c #8B9588",
"l 	c #666458",
"m 	c #8C6F3F",
"n 	c #DFB259",
"o 	c #FBAC4C",
"p 	c #D5AD5E",
"q 	c #9C8352",
"r 	c #856F56",
"s 	c #846A34",
"t 	c #83683E",
"u 	c #84693D",
"v 	c #82683C",
"w 	c #74502D",
"x 	c #543F29",
"y 	c #5D594B",
"z 	c #7B7D6D",
"A 	c #878E80",
"B 	c #8A9388",
"C 	c #7C7E6E",
"D 	c #635D4E",
"E 	c #8B6F3F",
"F 	c #DEB159",
"G 	c #FCAC4C",
"H 	c #CAA357",
"I 	c #736449",
"J 	c #656255",
"K 	c #6A6A5E",
"L 	c #686557",
"M 	c #615B4B",
"N 	c #574B3C",
"O 	c #4C3C2D",
"P 	c #463629",
"Q 	c #585041",
"R 	c #716F5E",
"S 	c #818678",
"T 	c #899286",
"U 	c #83897B",
"V 	c #747463",
"W 	c #5E5747",
"X 	c #8A6E3E",
"Y 	c #FECB66",
"Z 	c #F9BC53",
"` 	c #F9BB53",
" .	c #F89533",
"..	c #F8C764",
"+.	c #FAC864",
"@.	c #F4A74A",
"#.	c #C29B4F",
"$.	c #6F5D42",
"%.	c #717368",
"&.	c #83897D",
"*.	c #808474",
"=.	c #747361",
"-.	c #625B49",
";.	c #534534",
">.	c #4D3D2F",
",.	c #564B3B",
"'.	c #676352",
").	c #7B7E71",
"!.	c #878F83",
"~.	c #7E8376",
"{.	c #6C6B5C",
"].	c #5A5142",
"^.	c #896D3E",
"/.	c #DD9744",
"(.	c #F8C765",
"_.	c #DC9A4D",
":.	c #C7994F",
"<.	c #C39448",
"[.	c #C37731",
"}.	c #C39B50",
"|.	c #C49D51",
"1.	c #BF843F",
"2.	c #99783E",
"3.	c #5D4D38",
"4.	c #6F7063",
"5.	c #83897A",
"6.	c #7F8272",
"7.	c #727160",
"8.	c #625B4A",
"9.	c #554837",
"0.	c #524332",
"a.	c #5A4F3F",
"b.	c #686454",
"c.	c #787A6B",
"d.	c #828778",
"e.	c #787B6B",
"f.	c #676353",
"g.	c #574C3D",
"h.	c #886C3D",
"i.	c #DC9644",
"j.	c #F1C163",
"k.	c #B6844B",
"l.	c #776649",
"m.	c #6E5D42",
"n.	c #6D543B",
"o.	c #6D5A3D",
"p.	c #6D593C",
"q.	c #695035",
"r.	c #59442C",
"s.	c #4C3D30",
"t.	c #6A6858",
"u.	c #7C7E6C",
"v.	c #777766",
"w.	c #6B6959",
"x.	c #605848",
"y.	c #574B39",
"z.	c #544635",
"A.	c #5C5343",
"B.	c #6A6757",
"C.	c #767665",
"D.	c #7B7D6B",
"E.	c #757462",
"F.	c #686351",
"G.	c #584D3D",
"H.	c #875F35",
"I.	c #DCAF59",
"J.	c #F0C062",
"K.	c #AA7943",
"L.	c #5E5645",
"M.	c #6A6554",
"N.	c #6C6958",
"O.	c #656151",
"P.	c #5E5646",
"Q.	c #574B3A",
"R.	c #4D3D2D",
"S.	c #4E4133",
"T.	c #6B6857",
"U.	c #7C7D6A",
"V.	c #757664",
"W.	c #645E4D",
"X.	c #5C5240",
"Y.	c #534535",
"Z.	c #594E3F",
"`.	c #676251",
" +	c #706E5C",
".+	c #747462",
"++	c #777764",
"@+	c #72715E",
"#+	c #5F5747",
"$+	c #875F36",
"%+	c #DBAF58",
"&+	c #C86635",
"*+	c #F1A64C",
"=+	c #EEBF61",
"-+	c #EEBF33",
";+	c #F0C061",
">+	c #DEB15A",
",+	c #9C6C36",
"'+	c #5B5140",
")+	c #777866",
"!+	c #6E6D5D",
"~+	c #645F4F",
"{+	c #5A4F3E",
"]+	c #504131",
"^+	c #524536",
"/+	c #6A6756",
"(+	c #7A7A68",
"_+	c #747564",
":+	c #6C6A5A",
"<+	c #666150",
"[+	c #5E5543",
"}+	c #524535",
"|+	c #574A3B",
"1+	c #645C4B",
"2+	c #6A6654",
"3+	c #6E6C5B",
"4+	c #767765",
"5+	c #777765",
"6+	c #615C4C",
"7+	c #855E35",
"8+	c #DAAE57",
"9+	c #B7653C",
"0+	c #BA874D",
"a+	c #A98B50",
"b+	c #A98734",
"c+	c #AA8849",
"d+	c #9D7D44",
"e+	c #714F2B",
"f+	c #524739",
"g+	c #696758",
"h+	c #717160",
"i+	c #635C4B",
"j+	c #5A4F3D",
"k+	c #514232",
"l+	c #514335",
"m+	c #646050",
"n+	c #727261",
"o+	c #717060",
"p+	c #6A6859",
"q+	c #625B4B",
"r+	c #5A4E3D",
"s+	c #584D3C",
"t+	c #635C4A",
"u+	c #686250",
"v+	c #706E5D",
"w+	c #6F6E5E",
"x+	c #5A5446",
"y+	c #815930",
"z+	c #D9AD56",
"A+	c #AB623E",
"B+	c #826A4A",
"C+	c #625A48",
"D+	c #625945",
"E+	c #605543",
"F+	c #594D3C",
"G+	c #4B3B2D",
"H+	c #4D4336",
"I+	c #646052",
"J+	c #686251",
"K+	c #5C5241",
"L+	c #534636",
"M+	c #504234",
"N+	c #5F5849",
"O+	c #6B6958",
"P+	c #6D6B5B",
"Q+	c #696555",
"R+	c #615948",
"S+	c #594D3B",
"T+	c #594F3E",
"U+	c #645E4C",
"V+	c #67614E",
"W+	c #67604E",
"X+	c #6A6655",
"Y+	c #686656",
"Z+	c #544C40",
"`+	c #7E562C",
" @	c #D8AC56",
".@	c #A85D38",
"+@	c #7A6244",
"@@	c #6A6553",
"#@	c #72715F",
"$@	c #635E4F",
"%@	c #53483A",
"&@	c #52473A",
"*@	c #656153",
"=@	c #655E4C",
"-@	c #504233",
";@	c #676250",
">@	c #686452",
",@	c #645E4B",
"'@	c #5D5442",
")@	c #534536",
"!@	c #594F40",
"~@	c #6B6757",
"{@	c #554D41",
"]@	c #7D552C",
"^@	c #D7AB55",
"/@	c #A75B34",
"(@	c #796040",
"_@	c #6B6856",
":@	c #737262",
"<@	c #676354",
"[@	c #564C3E",
"}@	c #574D3E",
"|@	c #706F5F",
"1@	c #6B6756",
"2@	c #67614F",
"3@	c #5A5140",
"4@	c #655F4C",
"5@	c #66604D",
"6@	c #5C5341",
"7@	c #524435",
"8@	c #5F5C52",
"9@	c #767C73",
"0@	c #7C837A",
"a@	c #7A8178",
"b@	c #818983",
"c@	c #7F8885",
"d@	c #636560",
"e@	c #7D5731",
"f@	c #D6AA54",
"g@	c #A65B35",
"h@	c #795F40",
"i@	c #666151",
"j@	c #6D6A59",
"k@	c #55493A",
"l@	c #71705F",
"m@	c #777867",
"n@	c #6F6D5D",
"o@	c #5D5342",
"p@	c #534635",
"q@	c #4F4032",
"r@	c #645D4A",
"s@	c #5F5643",
"t@	c #564938",
"u@	c #504133",
"v@	c #6A6D67",
"w@	c #8A9996",
"x@	c #93A5A1",
"y@	c #94A5A2",
"z@	c #9DB0B2",
"A@	c #9CB0B4",
"B@	c #768083",
"C@	c #7D5938",
"D@	c #D6A953",
"E@	c #785D3F",
"F@	c #6B695A",
"G@	c #635B49",
"H@	c #554838",
"I@	c #595041",
"J@	c #645E4E",
"K@	c #4F4031",
"L@	c #5A503F",
"M@	c #665F4B",
"N@	c #625A47",
"O@	c #5B503C",
"P@	c #50402C",
"Q@	c #493829",
"R@	c #6B716D",
"S@	c #91A3A1",
"T@	c #9AADAA",
"U@	c #98AAA6",
"V@	c #A1B5B6",
"W@	c #A0B5B9",
"X@	c #798587",
"Y@	c #7D5A39",
"Z@	c #D4A853",
"`@	c #A55B35",
" #	c #775D3F",
".#	c #635E4E",
"+#	c #635B4A",
"@#	c #564B3E",
"##	c #686556",
"$#	c #6E6C5C",
"%#	c #696554",
"&#	c #625A49",
"*#	c #594E3D",
"=#	c #514332",
"-#	c #696553",
";#	c #605949",
">#	c #564C3D",
",#	c #4C4239",
"'#	c #6B726F",
")#	c #8FA19F",
"!#	c #96A8A3",
"~#	c #919F97",
"{#	c #97A9A4",
"]#	c #96A9A8",
"^#	c #737D7C",
"/#	c #7B5837",
"(#	c #A45833",
"_#	c #73583A",
":#	c #696453",
"<#	c #554839",
"[#	c #554A3C",
"}#	c #656253",
"|#	c #6C6A5B",
"1#	c #6A6656",
"2#	c #635D4C",
"3#	c #514231",
"4#	c #514537",
"5#	c #676457",
"6#	c #787C6F",
"7#	c #7E867D",
"8#	c #7F8982",
"9#	c #7D8680",
"0#	c #78817C",
"a#	c #747E7A",
"b#	c #7E8B87",
"c#	c #8F9F99",
"d#	c #94A49E",
"e#	c #93A29C",
"f#	c #97A9A5",
"g#	c #93A6A4",
"h#	c #717A77",
"i#	c #7A5737",
"j#	c #D3A853",
"k#	c #A25630",
"l#	c #6F5336",
"m#	c #5C5342",
"n#	c #66604E",
"o#	c #544738",
"p#	c #666253",
"q#	c #6D6C5C",
"r#	c #656050",
"s#	c #50402F",
"t#	c #53483C",
"u#	c #717469",
"v#	c #889389",
"w#	c #91A19B",
"x#	c #95A7A4",
"y#	c #95A9A6",
"z#	c #95A8A6",
"A#	c #94A8A6",
"B#	c #92A39E",
"C#	c #8F9C94",
"D#	c #92A19A",
"E#	c #98ABA7",
"F#	c #9BB0AE",
"G#	c #717B78",
"H#	c #795737",
"I#	c #D2A752",
"J#	c #A35833",
"K#	c #725639",
"L#	c #5E5443",
"M#	c #514434",
"N#	c #656252",
"O#	c #635C4C",
"P#	c #4B3A28",
"Q#	c #4D4237",
"R#	c #72766B",
"S#	c #8B968C",
"T#	c #92A099",
"U#	c #95A6A1",
"V#	c #99ADAA",
"W#	c #9BB1AF",
"X#	c #96A8A4",
"Y#	c #8F9C93",
"Z#	c #9CB2B0",
"`#	c #95A8A7",
" $	c #727C79",
".$	c #785737",
"+$	c #D2A652",
"@$	c #A35A35",
"#$	c #735A3C",
"$$	c #5F5544",
"%$	c #5F5543",
"&$	c #574A39",
"*$	c #4F4030",
"=$	c #564D3F",
"-$	c #696759",
";$	c #6F6E5F",
">$	c #665F4D",
",$	c #5E5544",
"'$	c #544F45",
")$	c #74796F",
"!$	c #8A9489",
"~$	c #8D988D",
"{$	c #95A7A2",
"]$	c #99ADAB",
"^$	c #9AAEAC",
"/$	c #95A6A2",
"($	c #8D998F",
"_$	c #8F9D95",
":$	c #97AAA6",
"<$	c #9AAFAC",
"[$	c #93A6A3",
"}$	c #775637",
"|$	c #D1A652",
"1$	c #A25733",
"2$	c #6F5437",
"3$	c #5B503E",
"4$	c #4F3F2F",
"5$	c #5C564B",
"6$	c #767A6F",
"7$	c #7E8375",
"8$	c #787967",
"9$	c #74725F",
"0$	c #71705E",
"a$	c #717264",
"b$	c #757A70",
"c$	c #828A80",
"d$	c #8B958A",
"e$	c #8C968B",
"f$	c #8D988E",
"g$	c #909E96",
"h$	c #94A5A0",
"i$	c #98ACA9",
"j$	c #91A29D",
"k$	c #848D83",
"l$	c #909E97",
"m$	c #94A49D",
"n$	c #8D9B95",
"o$	c #6D736D",
"p$	c #775535",
"q$	c #D0A551",
"r$	c #A05530",
"s$	c #6B4E31",
"t$	c #584C3A",
"u$	c #554836",
"v$	c #4D3D2E",
"w$	c #5E594F",
"x$	c #7C8277",
"y$	c #848B7E",
"z$	c #7F8270",
"A$	c #7C7D69",
"B$	c #7D7E6B",
"C$	c #818576",
"D$	c #858D81",
"E$	c #889084",
"F$	c #899185",
"G$	c #8A9286",
"H$	c #8B9488",
"I$	c #909D94",
"J$	c #8F9E99",
"K$	c #7F877D",
"L$	c #7E8478",
"M$	c #878F84",
"N$	c #8B9589",
"O$	c #868F83",
"P$	c #696B61",
"Q$	c #765432",
"R$	c #9F542F",
"S$	c #694D30",
"T$	c #524433",
"U$	c #574A38",
"V$	c #483829",
"W$	c #544D42",
"X$	c #707266",
"Y$	c #797C6E",
"Z$	c #767767",
"`$	c #787561",
" %	c #7B755F",
".%	c #7B7967",
"+%	c #7B7D6F",
"@%	c #7D7D6D",
"#%	c #807E6C",
"$%	c #838473",
"%%	c #858B7D",
"&%	c #8D998E",
"*%	c #909E95",
"=%	c #909F98",
"-%	c #8D9C96",
";%	c #859089",
">%	c #7C8176",
",%	c #7F8374",
"'%	c #656457",
")%	c #745230",
"!%	c #CFA451",
"~%	c #6A4D32",
"{%	c #5D5443",
"]%	c #594F3F",
"^%	c #4F4437",
"/%	c #544D41",
"(%	c #666456",
"_%	c #6E6C5D",
":%	c #6E6A59",
"<%	c #736C58",
"[%	c #797059",
"}%	c #77725D",
"|%	c #747261",
"1%	c #787461",
"2%	c #7D7763",
"3%	c #7D7B67",
"4%	c #7E8170",
"5%	c #858A7C",
"6%	c #888F82",
"7%	c #8D9991",
"8%	c #94A4A0",
"9%	c #8B9891",
"0%	c #787B6E",
"a%	c #787764",
"b%	c #7A7965",
"c%	c #625D4D",
"d%	c #72502E",
"e%	c #CEA451",
"f%	c #9E532E",
"g%	c #6A4F34",
"h%	c #5C5446",
"i%	c #686455",
"j%	c #635F51",
"k%	c #646154",
"l%	c #6A685A",
"m%	c #6C6756",
"n%	c #6D634D",
"o%	c #746C55",
"p%	c #7C7963",
"q%	c #7D7C67",
"r%	c #818575",
"s%	c #848879",
"t%	c #7B7D6E",
"u%	c #767463",
"v%	c #7C7765",
"w%	c #7D7A68",
"x%	c #7A7B6C",
"y%	c #80887D",
"z%	c #8D9890",
"A%	c #899389",
"B%	c #7D8070",
"C%	c #7B7762",
"D%	c #615542",
"E%	c #714F2C",
"F%	c #CEA351",
"G%	c #9C512D",
"H%	c #644A32",
"I%	c #5D5445",
"J%	c #696454",
"K%	c #6F6C5B",
"L%	c #6E6958",
"M%	c #69614E",
"N%	c #6C604A",
"O%	c #736C57",
"P%	c #7A7A66",
"Q%	c #818778",
"R%	c #828A7D",
"S%	c #7A7E70",
"T%	c #757463",
"U%	c #7B7663",
"V%	c #7A7460",
"W%	c #706A59",
"X%	c #737365",
"Y%	c #80867B",
"Z%	c #82887B",
"`%	c #7C7E6D",
" &	c #7C7863",
".&	c #787059",
"+&	c #6E4D2B",
"@&	c #CCA251",
"#&	c #9B502B",
"$&	c #62452A",
"%&	c #574533",
"&&	c #655743",
"*&	c #756D58",
"=&	c #71654D",
"-&	c #64543E",
";&	c #625541",
">&	c #6A6452",
",&	c #727161",
"'&	c #737362",
")&	c #757767",
"!&	c #77796B",
"~&	c #7A7B6A",
"{&	c #7E806F",
"]&	c #85897A",
"^&	c #818274",
"/&	c #6F6654",
"(&	c #6A604E",
"_&	c #737163",
":&	c #757768",
"<&	c #797865",
"[&	c #7A7764",
"}&	c #704F2E",
"|&	c #CCA250",
"1&	c #AA562C",
"2&	c #A46F34",
"3&	c #9E7B40",
"4&	c #A58436",
"5&	c #A88B57",
"6&	c #AB8456",
"7&	c #AE8C55",
"8&	c #AC864A",
"9&	c #A57C3C",
"0&	c #A46B37",
"a&	c #A98E5B",
"b&	c #AA9260",
"c&	c #AA8458",
"d&	c #AA9160",
"e&	c #AA9172",
"f&	c #AB9355",
"g&	c #AF9867",
"h&	c #B39F70",
"i&	c #B7A67D",
"j&	c #B49571",
"k&	c #AB8854",
"l&	c #A78146",
"m&	c #A98052",
"n&	c #AB9160",
"o&	c #AB9260",
"p&	c #AE8A5F",
"q&	c #B19968",
"r&	c #A58B58",
"s&	c #AC763A",
"t&	c #DDB057",
"  . + @ # @ @ + $ $ % @ @ @ + @ & # @ @ @ @ + $ + @ @ @ + @ @ @ ",
"  . + @ # @ @ + $ $ % @ @ @ + @ & # @ @ @ * = - ; > > > , ' ) ! ",
"  . + @ # @ @ + $ $ % @ @ @ + @ & # @ @ @ ~ { ] ^ / / ( _ ] : < ",
"  . + @ # @ @ + $ $ % @ @ @ + @ & # @ @ @ [ } | 1 2 3 2 4 5 6 7 ",
"  . + @ # @ @ + $ $ % @ @ 8 9 0 a b c d d e f g h i j k h l m n ",
"  . + @ # @ @ + $ $ % @ @ o p q r s t u v w x y z A B A C D E F ",
"  . + @ # @ @ + $ $ % @ @ G H I J K L M N O P Q R S T U V W X F ",
"  . + @ # @ Y o Z `  ...+.@.#.$.%.&.*.=.-.;.>.,.'.).!.~.{.].^./.",
"  . + @ # @ (._.:.<.[.}.|.1.2.3.4.5.6.7.8.9.0.a.b.c.d.e.f.g.h.i.",
"  . + @ # @ j.k.l.m.n.o.p.q.r.s.t.u.v.w.x.y.z.A.B.C.D.E.F.G.H.I.",
"  . + @ # @ J.K.L.M.N.O.P.Q.R.S.T.U.V.w.W.X.Y.Z.`. +.+++@+#+$+%+",
"  &+*+=+-+;+>+,+'+R )+!+~+{+]+^+/+(+_+:+<+[+}+|+1+2+3+4+5+6+7+8+",
"  9+0+a+b+c+d+e+f+g+h+T.i+j+k+l+m+n+o+p+q+r+Y.s+t+u+M.v+w+x+y+z+",
"  A+B+C+D+E+F+G+H+I+w.J+-.K+L+M+N+O+P+Q+R+S+z.T+U+V+W+X+Y+Z+`+ @",
"  .@+@@@#@3+$@%@&@*@w.J+=@-.G.-@A.;@>@;@,@'@)@!@f.X+;@~@g+{@]@^@",
"  /@(@_@v.:@<@[@}@t.|@1@2@-.s+-@3@4@5@4@t+6@7@8@9@0@a@b@c@d@e@f@",
"  g@h@i@w+j@W.k@].l@m@n@i@o@p@q@'+4@V+r@s@t@u@v@w@x@y@z@A@B@C@D@",
"  g@E@$@F@X+G@H@I@v+V.P+J@{+k+K@L@r@M@N@O@P@Q@R@S@T@U@V@W@X@Y@Z@",
"  `@ #.#w.X++#H@@###$#%#&#*#=#q@A.;@-#`.;#>#,#'#)#!#~#{#]#^#/#Z@",
"  (#_#;#%#:#+#<#[#}#|#1#2#{+3#4#5#6#7#8#9#0#a#b#c#d#e#f#g#h#i#j#",
"  k#l#m#n#2@R+o#[#p#q#:+r#L@s#t#u#v#w#x#y#z#A#B#C#D#E#F#A#G#H#I#",
"  J#K#L#=@G@K+M#[#N#:+1#O#F+P#Q#R#S#T#U#V#W#W#X#Y#D#V#Z#`# $.$+$",
"  @$#$$$G@%$&$*$=$-$;$1@>$,$%@'$)$!$~$Y#{$]$^$/$($_$:$<$[$h#}$|$",
"  1$2$*#o@3$9.4$5$6$7$8$9$0$a$b$c$d$e$f$g$h$i$j$c$k$l$m$n$o$p$q$",
"  r$s$Y.t$S+u$v$w$x$y$z$A$B$C$D$E$F$G$H$e$I${$J$K$L$M$N$O$P$Q$q$",
"  R$S$T$U$t$p@V$W$X$Y$Z$`$ %.%+%@%#%$%%%G$&%*%=%-%;%>%,%,%'%)%!%",
"  R$~%k@m#{%]%^%/%(%_%:%<%[%}%|%1%2%3%4%5%6%E$7%8%9%0%a%b%c%d%e%",
"  f%g%h%p#i%p#j%k%l%m%n%o%p%q%U.r%s%t%u%v%w%x%y%z%A%B%C%[%D%E%F%",
"  G%H%I%J%:+$#K%L%M.M%N%O%P%U.u.Q%R%S%T%U%V%W%X%Y%Z%`% &.&D%+&@&",
"  #&$&%&&&M.K%*&=&-&;&>&K%,&'&V )&!&~&{&]&^&/&(&_&:&V <&[&2#}&|&",
"  1&2&3&4&5&6&7&8&9&0&a&b&c&d&d&e&f&g&h&i&j&k&l&m&n&o&p&q&r&s&t&",
"  . + @ # @ + $ $ $ % @ @ + @ @ & # @ @ @ + $ $ + @ @ + @ @ + @ "};
