/* XPM */
static char * exp_book_xpm[] = {
"32 32 18 1",
" 	c #663300",
".	c #CC6633",
"+	c #FFAE4C",
"@	c #FFCC66",
"#	c #FFCC33",
"$	c #FFC054",
"%	c #FF9933",
"&	c #FFCC99",
"*	c #000000",
"=	c #FF8274",
"-	c #D53C6A",
";	c #7C183C",
">	c #31051E",
",	c #460E2B",
"'	c #FFFFFF",
")	c #CCCCCC",
"!	c #999999",
"~	c #737373",
" .+@#@@+$$%@@@+@&#**@@+$+@@@+@@@",
" .+@#@@+$$%@@@+@&*==*+$$+@@@+@@@",
" .+@#@@+$$%@@@+@*---=*$$+@@@+@@@",
" .+@#@@+$$%@@@+*;-**-=*$+@@@+@@@",
" .+@#@@+$$%@@+*;-*>>*=-*+@@@+@@@",
" .+@#@@+$$%@@*;-*,>>,*-=*@@@+@@@",
" .+@#@@+$$%@*;;*;,,,,,*-=*@@+@@@",
" .+@#@@+$$%*--*;;;,;;;>*-=*@+@@+",
" .+@#@@+$$*-;*;;>;;;,>,>*-=*+@@+",
" .+@#@@+$*;;*,;>,;;;;;;,>*-=*@+@",
" .+@#@@+*;-*,,;,,>;;,,>,,>*-=*+@",
" .+@#@@*;-*>,>;,>>,,;>;,>>>*-=*@",
" .+@#@*--*>,;>;,;;>>;>;,>>*--**@",
" .+@#*=-*>,;>;;>,,;;,,,>>*-;*'*@",
" .+@*--*>,;;;,>>>>,;;;,>*;-*')*@",
" .+*==*>>,,,;;,,>;;>;,>*;-*')*+@",
" .*==*>>,;>;>>;;,;>;,>*-;*')*@+@",
" *==*>>>,;>;;,>>,;>,>*-;*')*+@+@",
" **==*>,,>,,;,>,,;,,*-;*')*@+@+@",
" *!*==*>,;;;;;;,>;,*-;*')*@+@@+@",
" *~!*=-*>,>,;;;>;;*-;*')*@@+@@+@",
" .*~!*=-*>;;;,;;;*;-*')*$+@+@@+@",
" .+*~!*;;*,,,,,;*-;*')*$$+@+@@+@",
" .+@*~!*=-*,>>,*;-*')*+$$+@+@@+@",
" .+@#*~!*=-*>>*-=*')*@+$$+@+@@+@",
" .+@#@*~!*=-**-=*')*@@+$$+@+@@+@",
" .+@#@@*~!*====*')*@@@+$$+@+@@+@",
" .+@#@@+*~!*==*')*@@@+$$$+@+@@+@",
" .+@#@@+$*~!**')*#@@@+$$$+@+@@+@",
" .+@#@+$$$*~!')*&#@@@+$$+@@+@@+@",
" .+@#@+$$$%*~)*@&#@@@+$$+@@+@@+@",
" .+@#@+$$$%@**@@&#@@@+$$+@@+@@+@"};
