/* XPM */
static char * sanic_right_xpm[] = {
"32 32 424 2",
"  	c #663300",
". 	c #CC6633",
"+ 	c #FFAE4C",
"@ 	c #FFCC66",
"# 	c #FFCC33",
"$ 	c #FFC054",
"% 	c #FE9834",
"& 	c #CAA388",
"* 	c #A286AB",
"= 	c #9E83AF",
"- 	c #A377A8",
"; 	c #AC8D9F",
"> 	c #DBB09B",
", 	c #F8C738",
"' 	c #F2B656",
") 	c #AD6E81",
"! 	c #8D77AF",
"~ 	c #6E62BD",
"{ 	c #4148C9",
"] 	c #3F47CB",
"^ 	c #5552BE",
"/ 	c #BE9A94",
"( 	c #FAC868",
"_ 	c #F9C764",
": 	c #FCAC4B",
"< 	c #FEBF54",
"[ 	c #FF9933",
"} 	c #F5C469",
"| 	c #CEA788",
"1 	c #6F59B7",
"2 	c #3F46C7",
"3 	c #3B43BD",
"4 	c #3D45BC",
"5 	c #3E44B9",
"6 	c #957CA5",
"7 	c #8873A6",
"8 	c #BB8383",
"9 	c #EBB165",
"0 	c #FABC57",
"a 	c #FCAC4F",
"b 	c #EAB063",
"c 	c #D9A467",
"d 	c #E88C53",
"e 	c #F4C470",
"f 	c #F9C76A",
"g 	c #F2A54C",
"h 	c #5D55AC",
"i 	c #3F47CC",
"j 	c #6F5DAE",
"k 	c #F7A950",
"l 	c #FDCA66",
"m 	c #8A68AC",
"n 	c #484BC7",
"o 	c #3F47CA",
"p 	c #3F47C9",
"q 	c #494CC6",
"r 	c #635BC2",
"s 	c #8966AC",
"t 	c #9F8297",
"u 	c #4448C8",
"v 	c #5056C8",
"w 	c #ABACD4",
"x 	c #979AC7",
"y 	c #6A6DC0",
"z 	c #A4A5D1",
"A 	c #A9AAD3",
"B 	c #7A7DC4",
"C 	c #B98287",
"D 	c #F3C265",
"E 	c #C28886",
"F 	c #C0938C",
"G 	c #B58C97",
"H 	c #9A659E",
"I 	c #9179AB",
"J 	c #655CBF",
"K 	c #4F4CC5",
"L 	c #3E44BF",
"M 	c #4047CB",
"N 	c #B0B0D1",
"O 	c #F7F7F8",
"P 	c #9FA1B9",
"Q 	c #686DBF",
"R 	c #E6E7ED",
"S 	c #F6F6F6",
"T 	c #ECECED",
"U 	c #6065C8",
"V 	c #B27E93",
"W 	c #F2C268",
"X 	c #C8A28A",
"Y 	c #A074A0",
"Z 	c #6D5DB7",
"` 	c #4D4CC1",
" .	c #4346C1",
"..	c #AB8D9E",
"+.	c #E4B775",
"@.	c #DD986A",
"#.	c #B29189",
"$.	c #5753C3",
"%.	c #8184C9",
"&.	c #8789CA",
"*.	c #4249C9",
"=.	c #3F47B4",
"-.	c #8082C7",
";.	c #D0D1E1",
">.	c #B1B2D7",
",.	c #4C53C9",
"'.	c #B17E98",
").	c #FCC966",
"!.	c #E3B569",
"~.	c #C98B70",
"{.	c #AB8487",
"].	c #6D5CAB",
"^.	c #474BC6",
"/.	c #4249CB",
"(.	c #454CC7",
"_.	c #6555B5",
":.	c #E7B96F",
"<.	c #AB8C9E",
"[.	c #424ACA",
"}.	c #454BBA",
"|.	c #474CC8",
"1.	c #4449BE",
"2.	c #3D43B8",
"3.	c #D29170",
"4.	c #DEB26A",
"5.	c #BF9B85",
"6.	c #CC8E83",
"7.	c #DDA773",
"8.	c #E9B064",
"9.	c #F59338",
"0.	c #F1C170",
"a.	c #D2AA87",
"b.	c #9D72A3",
"c.	c #5150C3",
"d.	c #7868AE",
"e.	c #7263B3",
"f.	c #4149C9",
"g.	c #ACA6A9",
"h.	c #D7CFA2",
"i.	c #D8CFA3",
"j.	c #DBD3A5",
"k.	c #8481A4",
"l.	c #7F69B0",
"m.	c #F8A94C",
"n.	c #FBC967",
"o.	c #D3927A",
"p.	c #B48B93",
"q.	c #7F67AD",
"r.	c #7155B8",
"s.	c #A487A4",
"t.	c #E4B776",
"u.	c #FCAC4E",
"v.	c #E6B878",
"w.	c #C19D92",
"x.	c #937BA8",
"y.	c #B6947B",
"z.	c #5355B1",
"A.	c #9B96A3",
"B.	c #B1A390",
"C.	c #B19B87",
"D.	c #A67993",
"E.	c #EAB169",
"F.	c #F9BB55",
"G.	c #D8835E",
"H.	c #A98B9C",
"I.	c #8973A5",
"J.	c #C78A7F",
"K.	c #FBC968",
"L.	c #F3C396",
"M.	c #76659A",
"N.	c #3D45C2",
"O.	c #AA8C9C",
"P.	c #FECB66",
"Q.	c #F5A856",
"R.	c #F6C56C",
"S.	c #FCAC4C",
"T.	c #CE9D73",
"U.	c #7C67AF",
"V.	c #6B53BC",
"W.	c #6B60BE",
"X.	c #675DB6",
"Y.	c #4046BD",
"Z.	c #8C7384",
"`.	c #E6B96D",
" +	c #7A6AB4",
".+	c #494DC5",
"++	c #3D45C3",
"@+	c #3F47C8",
"#+	c #5452C2",
"$+	c #987F9A",
"%+	c #E49C52",
"&+	c #FABC53",
"*+	c #F8C764",
"=+	c #AA8B97",
"-+	c #6154BF",
";+	c #7C6BBB",
">+	c #FECB67",
",+	c #CFA788",
"'+	c #765EB6",
")+	c #3C43BB",
"!+	c #4748B4",
"~+	c #685BBD",
"{+	c #B9828D",
"]+	c #DAAF7A",
"^+	c #A88A94",
"/+	c #D3AA80",
"(+	c #EDA25F",
"_+	c #CFA787",
":+	c #FDCA35",
"<+	c #BB9896",
"[+	c #4A4CC7",
"}+	c #3C44BC",
"|+	c #3E44BC",
"1+	c #3C44BF",
"2+	c #3C44BE",
"3+	c #3B41B1",
"4+	c #3E47C6",
"5+	c #6365BD",
"6+	c #B2ACB1",
"7+	c #B4AEB1",
"8+	c #8382B9",
"9+	c #4148C6",
"0+	c #574EB2",
"a+	c #DAAF76",
"b+	c #F9C867",
"c+	c #E7B95B",
"d+	c #484BC6",
"e+	c #3C43BC",
"f+	c #3E46C5",
"g+	c #3E45C1",
"h+	c #3C45C0",
"i+	c #3E46C4",
"j+	c #3F46C6",
"k+	c #3B42B3",
"l+	c #3E45C4",
"m+	c #484EC7",
"n+	c #C7C1AD",
"o+	c #EEE5AF",
"p+	c #EFE5AF",
"q+	c #EEE5B0",
"r+	c #DAD2AC",
"s+	c #7776BA",
"t+	c #3E46C2",
"u+	c #F5C46C",
"v+	c #FDCB69",
"w+	c #F4AD63",
"x+	c #E8D7C0",
"y+	c #D9CCBE",
"z+	c #888AC2",
"A+	c #3E45B7",
"B+	c #4046CA",
"C+	c #3E46C6",
"D+	c #3B43BC",
"E+	c #3A42B6",
"F+	c #3D45C4",
"G+	c #3C42B8",
"H+	c #3F48C8",
"I+	c #7171C0",
"J+	c #EDE4AE",
"K+	c #B4AFA5",
"L+	c #494AC4",
"M+	c #F8C76C",
"N+	c #EEC479",
"O+	c #E4CBBA",
"P+	c #FFFFFF",
"Q+	c #F8F8F9",
"R+	c #EEEFF2",
"S+	c #9391C5",
"T+	c #4649C2",
"U+	c #3F46CA",
"V+	c #3E46C3",
"W+	c #3941AE",
"X+	c #8C89BA",
"Y+	c #EBE2AE",
"Z+	c #6667C0",
"`+	c #6556BE",
" @	c #E9D0BF",
".@	c #E8BC9C",
"+@	c #D3A06E",
"@@	c #6E5DAC",
"#@	c #3D44BF",
"$@	c #3D45C0",
"%@	c #3C44B9",
"&@	c #3E48CA",
"*@	c #918EB9",
"=@	c #E1D8AF",
"-@	c #5155C7",
";@	c #765EB8",
">@	c #F5AB58",
",@	c #F8F6F2",
"'@	c #FEFDFC",
")@	c #F7B97F",
"!@	c #F5B95A",
"~@	c #9764A2",
"{@	c #6E62BC",
"]@	c #524FB2",
"^@	c #8784BD",
"/@	c #EEE4AF",
"(@	c #B0ABB2",
"_@	c #4048CA",
":@	c #4449C9",
"<@	c #B17E9A",
"[@	c #F5CC84",
"}@	c #F0E1CA",
"|@	c #F0EAE3",
"1@	c #ECD2AD",
"2@	c #FEAE4E",
"3@	c #E5B86A",
"4@	c #4045BC",
"5@	c #5C5FC2",
"6@	c #C8C1A9",
"7@	c #D9CFA4",
"8@	c #E0D7AA",
"9@	c #B8B1AB",
"0@	c #9677A5",
"a@	c #FECC3C",
"b@	c #FECD6E",
"c@	c #FECC68",
"d@	c #FBC965",
"e@	c #A88A99",
"f@	c #574A9F",
"g@	c #484EC9",
"h@	c #4D52C8",
"i@	c #4F54C8",
"j@	c #464DC9",
"k@	c #4148CA",
"l@	c #D7A47E",
"m@	c #F5C467",
"n@	c #B7958D",
"o@	c #8263AC",
"p@	c #3E45BC",
"q@	c #4B4BB8",
"r@	c #C28888",
"s@	c #FBBD57",
"t@	c #ED8F52",
"u@	c #8D77AD",
"v@	c #464AC8",
"w@	c #735CBA",
"x@	c #AC8D89",
"y@	c #5753C4",
"z@	c #6D60B0",
"A@	c #5250B6",
"B@	c #F3A65E",
"C@	c #D29F7C",
"D@	c #4F4AC5",
"E@	c #605ABD",
"F@	c #BD9991",
"G@	c #FFAE4D",
"H@	c #DDB17C",
"I@	c #7B6BBA",
"J@	c #4D4EC2",
"K@	c #937CAA",
"L@	c #EBBD72",
"M@	c #8F77A0",
"N@	c #D59372",
"O@	c #FEAD4C",
"P@	c #BD928C",
"Q@	c #504EC6",
"R@	c #C07881",
"S@	c #F5C46E",
"T@	c #FDCB66",
"U@	c #F9C799",
"V@	c #EFC04F",
"W@	c #F4C36F",
"X@	c #FCC968",
"Y@	c #DAB080",
"Z@	c #6654B2",
"`@	c #FCBD54",
" #	c #C48988",
".#	c #4E4DC3",
"+#	c #BF928D",
"@#	c #FD9836",
"##	c #FFCC99",
"$#	c #F3C26E",
"%#	c #5A50C3",
"&#	c #E9B16A",
"*#	c #E9BB71",
"=#	c #554EC5",
"-#	c #9274A9",
";#	c #FCCA66",
">#	c #6C5ABA",
",#	c #B78D95",
"'#	c #FDBE54",
")#	c #D4AB86",
"!#	c #4549C9",
"~#	c #A37FA1",
"{#	c #C09277",
"]#	c #454AC7",
"^#	c #9B7AA1",
"/#	c #F1A558",
"(#	c #FDAD4B",
"_#	c #F5C060",
":#	c #F3B75C",
"<#	c #F8A94A",
"[#	c #E88044",
"}#	c #E87329",
"|#	c #EA7C42",
"1#	c #D26D53",
"2#	c #C92C66",
"3#	c #D1644D",
"4#	c #D4A17D",
"5#	c #504DC1",
"6#	c #5F52C1",
"7#	c #AD5777",
"8#	c #E4472C",
"9#	c #EA3F2D",
"0#	c #E65433",
"a#	c #E79D44",
"b#	c #E8342A",
"c#	c #ED1D26",
"d#	c #EC2026",
"e#	c #E8833D",
"f#	c #E69E65",
"g#	c #A586A1",
"h#	c #D97F54",
"i#	c #E77F3B",
"j#	c #E69B4F",
"k#	c #F5BF60",
"l#	c #F0AF58",
"m#	c #E8852B",
"n#	c #EE6C3C",
"o#	c #EC5E33",
"p#	c #E99142",
"q#	c #F9B851",
"  . + @ # @ @ + $ $ % & * = - ; > , @ @ @ @ + $ + @ @ @ + @ @ @ ",
"  . + @ # @ @ + $ ' ) ! ~ { ] ] ] ^ / ( _ : $ $ + @ @ @ + @ @ @ ",
"  . + @ # @ @ + $ < [ @ } | 1 2 3 4 5 6 7 8 9 0 + @ @ @ + @ @ @ ",
"  . + @ # @ @ a b c d e f @ g h ] ] i ] ] ] ] j k @ @ @ + @ @ @ ",
"  . + @ # @ l m n o p q r s t u v w x y z A B o C @ @ @ + @ @ @ ",
"  . + @ # @ D E F G H I J K L M N O P Q R S T U V @ @ @ + @ @ @ ",
"  . + @ # W X Y Z `  ...+.@.#.$.%.&.*.=.-.;.>.,.'.@ @ @ + @ @ @ ",
"  . + @ # ).!.~.{.].^./.(._.:.<.i ] [.}.|.1.2.] 3.@ @ @ + @ @ + ",
"  . + @ # 4.5.6.7.8.9.0.a.b.c.d.e.f.g.h.i.j.k.l.m.@ @ @ + @ @ + ",
"  . + @ # n.0.o.p.q.r.s.t.u.v.w.x.y.z.A.B.C.D.E.+ @ @ @ + @ + @ ",
"  . + @ # @ @ + $ F.G.H.I.J.K.@ L.M.N.o O.P.+ $ + @ @ P.Q.R.+ @ ",
"  . + @ # @ @ S.T.U.V.W.X.Y.Z.`. +.+++@+#+$+%+&++ @ *+=+-+;++ @ ",
"  . + @ # >+,+'+o ] o p p p )+!+p ] ] ] ] ] p ~+{+]+^+/+(+_++ @ ",
"  . + @ :+<+[+p }+|+}+1+2+3+4+@+o 5+6+7+8+9+] ] 0+a+b+@ + @ + @ ",
"  . + P.c+d+p e+f+g+h+i+j+k+l+] m+n+o+p+q+r+s+] t+u+@ @ + v++ @ ",
"  . w+x+y+z+A+B+C+D+E+F+G+H+i ] I+J+p+p+p+p+K+] L+M+@ @ + N++ @ ",
"  . O+P+P+Q+R+S+T+C+U+V+W+p ] ] X+p+p+p+p+Y+Z+] `+K.@ @ + @ + @ ",
"  .  @P+P+P+P+.@+@@@#@$@%@p ] &@*@p+p+p+p+=@-@] ;@l @ @ + @ + @ ",
"  . >@,@P+P+'@)@$ !@~@{@]@o ] ] ^@p+p+p+/@(@_@:@<@@ @ @ + @ + @ ",
"  . + [@}@|@1@2@$ $ [ P.3@4@] ] 5@6@7@8@9@@+] 0@S.@ @ + @ @ + @ ",
"  . + @ a@b@c@+ $ $ [ d@e@f@f+] M g@h@i@j@] k@l@+ @ @ + @ @ + @ ",
"  . + @ # @ @ + $ $ [ m@n@o@p@o ] ] ] ] f+q@r@s@$ + @ + @ @ + @ ",
"  . + @ # @ @ + $ $ t@u@v@w@x@y@] ] ] ] z@A@B@$ $ + @ + @ @ + @ ",
"  . + @ # @ @ + $ C@D@E@F@G@@ H@I@@+J@K@L@M@N@$ $ + @ + @ @ + @ ",
"  . + @ # @ @ O@P@Q@R@S@T@+ @ @ U@V@W@X@@ Y@Z@`@$ + @ + @ @ + @ ",
"  . + @ # @ @  #.#+#@#@ @ + @ @ ### @ @ @ $#%#&#$ + @ + @ @ + @ ",
"  . + @ # @ *#=#-#$ [ @ @ + @ @ ### @ @ @ ;#>#,#'#+ @ + @ @ + @ ",
"  . + @ # @ )#!#~#$ [ @ @ + @ @ ### @ @ @ + {#]#^#/#d@(#_#:#+ @ ",
"  . <#[#}#|#1#2#3#$ [ @ @ + @ @ ### @ @ @ + < 4#5#6#7#8#9#0#+ @ ",
"  . a#b#c#c#c#d#e#$ [ @ @ + @ @ ### @ @ @ + $ $ f#g#h#i#j#k#+ @ ",
"  . + l#m#n#o#p#q#$ [ @ @ + @ @ ### @ @ @ + $ $ + @ @ + @ @ + @ ",
"  . + @ # @ + $ $ $ [ @ @ + @ @ ### @ @ @ + $ $ + @ @ + @ @ + @ "};
