/* XPM */
static char * sanic_right_xpm_xpm_xpm[] = {
"32 32 423 2",
"  	c #663300",
". 	c #CC6633",
"+ 	c #FFAE4C",
"@ 	c #FFCC66",
"# 	c #FFCC33",
"$ 	c #FFC054",
"% 	c #FF9933",
"& 	c #F8AA4E",
"* 	c #DBB07B",
"= 	c #AC8DAD",
"- 	c #A387A6",
"; 	c #9E83AF",
"> 	c #A286AB",
", 	c #CAA388",
"' 	c #FECB66",
") 	c #FC9732",
"! 	c #F9C764",
"~ 	c #FAC868",
"{ 	c #BE9A94",
"] 	c #554EBE",
"^ 	c #3F47CB",
"/ 	c #4148C9",
"( 	c #6E62BD",
"_ 	c #8D77AF",
": 	c #AD7B85",
"< 	c #F2B656",
"[ 	c #FABC57",
"} 	c #EBB165",
"| 	c #BB747E",
"1 	c #8873A6",
"2 	c #957CA5",
"3 	c #3E44B9",
"4 	c #3D45BC",
"5 	c #3B43BD",
"6 	c #3F46C7",
"7 	c #6F62B6",
"8 	c #CEA788",
"9 	c #F5C469",
"0 	c #FEBF54",
"a 	c #F7A950",
"b 	c #6F5DAE",
"c 	c #3F47CC",
"d 	c #5D55AF",
"e 	c #F2C137",
"f 	c #F9C76A",
"g 	c #F4C470",
"h 	c #E89F61",
"i 	c #D9A467",
"j 	c #EAB063",
"k 	c #FCAC4F",
"l 	c #B98287",
"m 	c #3F47CA",
"n 	c #7A7DC4",
"o 	c #A9AAD3",
"p 	c #A4A5D1",
"q 	c #6A6DC0",
"r 	c #979AC7",
"s 	c #ABACD4",
"t 	c #5056C8",
"u 	c #4448C9",
"v 	c #9F8290",
"w 	c #8973AE",
"x 	c #635BC2",
"y 	c #494CC6",
"z 	c #3F47C9",
"A 	c #484BC7",
"B 	c #8A68AC",
"C 	c #FDCA66",
"D 	c #B27E93",
"E 	c #6065C8",
"F 	c #ECECED",
"G 	c #F6F6F6",
"H 	c #E6E7ED",
"I 	c #686DBF",
"J 	c #9FA1B9",
"K 	c #F7F7F8",
"L 	c #B0B0D1",
"M 	c #4047CB",
"N 	c #3E44BF",
"O 	c #4F4FC5",
"P 	c #655CBF",
"Q 	c #9179AB",
"R 	c #9A70A1",
"S 	c #B58C97",
"T 	c #C0938C",
"U 	c #C28886",
"V 	c #F3C265",
"W 	c #B17E98",
"X 	c #4C53C9",
"Y 	c #B1B2D7",
"Z 	c #D0D1E1",
"` 	c #8082C7",
" .	c #3F47B4",
"..	c #4249C9",
"+.	c #8789CA",
"@.	c #8184C9",
"#.	c #5753C4",
"$.	c #B2917E",
"%.	c #DDB178",
"&.	c #E4B775",
"*.	c #AB8D9E",
"=.	c #4347C1",
"-.	c #4D4CC1",
";.	c #6D5DB7",
">.	c #A074A0",
",.	c #C8A28A",
"'.	c #F2C268",
").	c #D29170",
"!.	c #3D43B8",
"~.	c #4449BE",
"{.	c #474CC8",
"].	c #454BBA",
"^.	c #424ACA",
"/.	c #AB8CAC",
"(.	c #E7B950",
"_.	c #655CB6",
":.	c #454CC7",
"<.	c #4249CB",
"[.	c #474CC6",
"}.	c #6D57AB",
"|.	c #AB8487",
"1.	c #C98B70",
"2.	c #E3B569",
"3.	c #FCC966",
"4.	c #F8A94C",
"5.	c #7F69B0",
"6.	c #8481A4",
"7.	c #DBD3A5",
"8.	c #D8CFA3",
"9.	c #D7CFA2",
"0.	c #ACA6A9",
"a.	c #4149C9",
"b.	c #7263AE",
"c.	c #7868B3",
"d.	c #5150C2",
"e.	c #9D82A7",
"f.	c #D2AA87",
"g.	c #F1C170",
"h.	c #F5C465",
"i.	c #E99F5F",
"j.	c #DDA773",
"k.	c #CC8E83",
"l.	c #BF9B85",
"m.	c #DEB26A",
"n.	c #EAB169",
"o.	c #A68395",
"p.	c #B18A80",
"q.	c #B1A390",
"r.	c #9B96A3",
"s.	c #5355B1",
"t.	c #B69487",
"u.	c #937B9E",
"v.	c #C19DA6",
"w.	c #E6B85D",
"x.	c #FCCA67",
"y.	c #E4B776",
"z.	c #A487A4",
"A.	c #7163BA",
"B.	c #7F60AC",
"C.	c #B48B93",
"D.	c #D3927A",
"E.	c #FBC967",
"F.	c #F6A856",
"G.	c #F5C56B",
"H.	c #FECB34",
"I.	c #FE9833",
"J.	c #AA8C9C",
"K.	c #3D45C2",
"L.	c #76659D",
"M.	c #F3C369",
"N.	c #FFCC99",
"O.	c #FBC93A",
"P.	c #C7A188",
"Q.	c #8973A5",
"R.	c #A98B9C",
"S.	c #D8AD76",
"T.	c #F9AA4E",
"U.	c #7C61B9",
"V.	c #615AC0",
"W.	c #AA8B8E",
"X.	c #F8C764",
"Y.	c #FABC53",
"Z.	c #E4AC57",
"`.	c #986593",
" +	c #5452C2",
".+	c #3F47C8",
"++	c #3D45C3",
"@+	c #494DC6",
"#+	c #7A6AAF",
"$+	c #E6B995",
"%+	c #8C737E",
"&+	c #4046BD",
"*+	c #675DB6",
"=+	c #6B60BE",
"-+	c #7C61AF",
";+	c #CE9D73",
">+	c #FCAC4C",
",+	c #CF907D",
"'+	c #EDBE71",
")+	c #D3AA6D",
"!+	c #A88A94",
"~+	c #DAAF7A",
"{+	c #B9828D",
"]+	c #685BBD",
"^+	c #4748B5",
"/+	c #3C43BB",
"(+	c #765EB6",
"_+	c #CFA788",
":+	c #FECB67",
"<+	c #F9C867",
"[+	c #DAAF76",
"}+	c #574EB2",
"|+	c #4148C6",
"1+	c #8382B9",
"2+	c #B4AEB1",
"3+	c #B2ACB1",
"4+	c #6365BD",
"5+	c #3E47C6",
"6+	c #3B41B1",
"7+	c #3C44BE",
"8+	c #3C44BF",
"9+	c #3C44BC",
"0+	c #3E44BC",
"a+	c #4A4CC7",
"b+	c #BB9896",
"c+	c #FDAE51",
"d+	c #F5C46C",
"e+	c #3E46C2",
"f+	c #7776BA",
"g+	c #DAD2AC",
"h+	c #EEE5B0",
"i+	c #EFE5AF",
"j+	c #EEE5AF",
"k+	c #C7C1AD",
"l+	c #484EC7",
"m+	c #3E45C4",
"n+	c #3B42B3",
"o+	c #3F46C6",
"p+	c #3E46C4",
"q+	c #3C45C0",
"r+	c #3E45C1",
"s+	c #3E46C5",
"t+	c #3C43BC",
"u+	c #484BC6",
"v+	c #E7B977",
"w+	c #FEAD4C",
"x+	c #EEAC6B",
"y+	c #F8C76C",
"z+	c #494AC4",
"A+	c #B4AFA5",
"B+	c #EDE4AE",
"C+	c #7171C0",
"D+	c #3F48C8",
"E+	c #3C42B8",
"F+	c #3D45C4",
"G+	c #3A42B6",
"H+	c #3B43BC",
"I+	c #3E46C6",
"J+	c #4046CA",
"K+	c #3E45B7",
"L+	c #888AC2",
"M+	c #D9CCC1",
"N+	c #E8CFBD",
"O+	c #F4C775",
"P+	c #FFAE4D",
"Q+	c #FBC968",
"R+	c #6556BE",
"S+	c #6667C0",
"T+	c #EBE2AE",
"U+	c #8C89BA",
"V+	c #3941AE",
"W+	c #3E46C3",
"X+	c #3F46CA",
"Y+	c #4649C2",
"Z+	c #9391C5",
"`+	c #EEEFF2",
" @	c #F8F8F9",
".@	c #FFFFFF",
"+@	c #E4D4BD",
"@@	c #765EB8",
"#@	c #5155C7",
"$@	c #E1D8AF",
"%@	c #918EB9",
"&@	c #3E48CA",
"*@	c #3C44B9",
"=@	c #3D45C0",
"-@	c #3D44BF",
";@	c #6E58AC",
">@	c #D3A06E",
",@	c #E8BC9C",
"'@	c #E9D9C3",
")@	c #B17E9A",
"!@	c #4449C9",
"~@	c #4048CA",
"{@	c #B0ABB2",
"]@	c #EEE4AF",
"^@	c #8784BD",
"/@	c #524FB2",
"(@	c #6E62BC",
"_@	c #977DA7",
":@	c #F5A854",
"<@	c #F7B97F",
"[@	c #FEFDFC",
"}@	c #F8F4F2",
"|@	c #F5C66D",
"1@	c #9677A5",
"2@	c #B8B1AB",
"3@	c #E0D7AA",
"4@	c #D9CFA4",
"5@	c #C8C1A9",
"6@	c #5C5FC2",
"7@	c #4045BC",
"8@	c #E5B86A",
"9@	c #FEAE4E",
"0@	c #ECD2AD",
"a@	c #F0EAE3",
"b@	c #F0DACC",
"c@	c #F5CC84",
"d@	c #D7A47E",
"e@	c #4148CA",
"f@	c #464DC9",
"g@	c #4F54C8",
"h@	c #4D52C8",
"i@	c #484EC9",
"j@	c #5750A0",
"k@	c #A88A99",
"l@	c #FBC965",
"m@	c #FECC68",
"n@	c #FECD6E",
"o@	c #FEAE51",
"p@	c #FBBD57",
"q@	c #C2958B",
"r@	c #4B47B8",
"s@	c #3E45BC",
"t@	c #826FAE",
"u@	c #B7958D",
"v@	c #F5C467",
"w@	c #F3B764",
"x@	c #524AB5",
"y@	c #6D60B0",
"z@	c #5753C5",
"A@	c #AC8D7E",
"B@	c #7365BB",
"C@	c #464AC8",
"D@	c #8D77AD",
"E@	c #EDBE72",
"F@	c #D5A175",
"G@	c #8F609B",
"H@	c #EBBD72",
"I@	c #937CAA",
"J@	c #4D4BC2",
"K@	c #7B6BB4",
"L@	c #DDB19C",
"M@	c #BD9991",
"N@	c #605ABD",
"O@	c #4F4EC5",
"P@	c #D29179",
"Q@	c #FCBD54",
"R@	c #6658B3",
"S@	c #DA856B",
"T@	c #FCC968",
"U@	c #F4A75B",
"V@	c #EFC071",
"W@	c #FDCB66",
"X@	c #F5C46E",
"Y@	c #C09C8E",
"Z@	c #504CC6",
"`@	c #BD928C",
" #	c #E9B16A",
".#	c #5A53C3",
"+#	c #F39249",
"@#	c #FDCB67",
"##	c #BF868B",
"$#	c #4E4DC3",
"%#	c #C4968B",
"&#	c #FDAC4C",
"*#	c #B78D95",
"=#	c #6C5FBA",
"-#	c #FC9736",
";#	c #9274A9",
">#	c #5550C5",
",#	c #E9A060",
"'#	c #F39C45",
")#	c #F5C060",
"!#	c #FDCB33",
"~#	c #F1C16C",
"{#	c #9B71A0",
"]#	c #454AC7",
"^#	c #C09277",
"/#	c #A37FA1",
"(#	c #4549C9",
"_#	c #D4937B",
":#	c #E6482C",
"<#	c #EA3F2D",
"[#	c #E45327",
"}#	c #AD5777",
"|#	c #5F57C1",
"1#	c #504BC1",
"2#	c #D4A17D",
"3#	c #D1644D",
"4#	c #C92C66",
"5#	c #D25E4C",
"6#	c #EA7C42",
"7#	c #E86332",
"8#	c #E88044",
"9#	c #F8C763",
"0#	c #F5A347",
"a#	c #E69B4F",
"b#	c #E7952C",
"c#	c #D97F54",
"d#	c #A5759D",
"e#	c #E6AE6A",
"f#	c #E8833D",
"g#	c #EC1F26",
"h#	c #ED1D26",
"i#	c #E8342A",
"j#	c #E7B85B",
"k#	c #F9B851",
"l#	c #E9833D",
"m#	c #EC6D3E",
"n#	c #EE6C3C",
"o#	c #E87137",
"p#	c #F0AF58",
"  . + @ # @ @ + $ $ % @ @ @ & * = - ; > , ' + $ + @ @ @ + @ @ @ ",
"  . + @ # @ @ + $ $ ) ! ~ { ] ^ ^ ^ / ( _ : < $ + @ @ @ + @ @ @ ",
"  . + @ # @ @ + [ } | 1 2 3 4 5 6 7 8 9 @ + 0 $ + @ @ @ + @ @ @ ",
"  . + @ # @ @ a b ^ ^ ^ ^ c ^ ^ d e @ f g h i j k @ @ @ + @ @ @ ",
"  . + @ # @ @ l m n o p q r s t u v w x y z m A B C @ @ + @ @ @ ",
"  . + @ # @ @ D E F G H I J K L M N O P Q R S T U V @ @ + @ @ @ ",
"  . + @ # @ @ W X Y Z `  ...+.@.#.$.%.&.*.=.-.;.>.,.'.@ + @ @ @ ",
"  . + @ # @ @ ).^ !.~.{.].^.^ c /.(._.:.<.[.}.|.1.2.3.@ + @ @ + ",
"  . + @ # @ @ 4.5.6.7.8.9.0.a.b.c.d.e.f.g.h.i.j.k.l.m.@ + @ @ + ",
"  . + @ # @ @ + n.o.p.q.r.s.t.u.v.w.x.y.z.A.B.C.D.g.E.@ + @ + @ ",
"  . F.G.H.@ @ + $ $ I.J.m K.L.M.N.O.P.Q.R.S.T.$ + @ @ @ + @ + @ ",
"  . U.V.W.X.@ + Y.Z.`. +.+++@+#+$+%+&+*+=+=+-+;+>+@ @ @ + @ + @ ",
"  . ,+'+)+!+~+{+]+z ^ ^ ^ ^ ^ z ^+/+z z z m ^ m (+_+:+@ + @ + @ ",
"  . + @ # <+[+}+^ ^ |+1+2+3+4+m .+5+6+7+8+9+0+9+z a+b+C + @ + @ ",
"  . c+@ # @ d+e+^ f+g+h+i+j+k+l+^ m+n+o+p+q+r+s+t+z u+v+w+@ + @ ",
"  . x+@ # @ y+z+^ A+i+i+i+i+B+C+^ c D+E+F+G+H+I+J+K+L+M+N+O++ @ ",
"  . P+@ # @ Q+R+^ S+T+i+i+i+i+U+^ ^ z V+W+X+I+Y+Z+`+ @.@.@+@+ @ ",
"  . + @ # @ C @@^ #@$@i+i+i+i+%@&@^ z *@=@-@;@>@,@.@.@.@.@'@+ @ ",
"  . + @ # @ @ )@!@~@{@]@i+i+i+^@^ ^ m /@(@_@:@$ <@[@.@.@}@|@+ @ ",
"  . + @ # @ @ >+1@^ .+2@3@4@5@6@^ ^ 7@8@' @ + $ 9@0@a@b@c@@ + @ ",
"  . + @ # @ @ + d@e@^ f@g@h@i@M ^ s+j@k@l@@ + $ + m@n@o@@ @ + @ ",
"  . + @ # @ @ + p@q@r@s+^ ^ ^ ^ m s@t@u@v@@ + $ $ + @ + @ @ + @ ",
"  . + @ # @ @ + $ w@x@y@^ ^ ^ ^ z@A@B@C@D@E@+ $ $ + @ + @ @ + @ ",
"  . + @ # @ @ + $ F@G@H@I@J@.+K@L@# @ M@N@O@P@$ $ + @ + @ @ + @ ",
"  . + @ # @ @ + Q@R@S@@ T@U@V@f N.# @ W@X@Y@Z@`@0 + @ + @ @ + @ ",
"  . + @ # @ @ +  #.#+#@ @ + @ @ N.# @ @ @ @###$#%#+ @ + @ @ + @ ",
"  . + @ # @ @ &#*#=#-#@ @ + @ @ N.# @ @ @ @ + ;#>#,#@ + @ @ + @ ",
"  . '#)#!#l@~#{#]#^#% @ @ + @ @ N.# @ @ @ + $ /#(#_#@ + @ @ + @ ",
"  . :#<#[#}#|#1#2#0 % @ @ + @ @ N.# @ @ @ + $ 3#4#5#6#7#8#9#+ @ ",
"  . 0#a#b#c#d#e#$ $ % @ @ + @ @ N.# @ @ @ + $ f#g#h#h#h#i#j#+ @ ",
"  . + @ # @ + $ $ $ % @ @ + @ @ N.# @ @ @ + $ k#l#m#n#o#p#@ + @ ",
"  . + @ # @ + $ $ $ % @ @ + @ @ N.# @ @ @ + $ $ + @ @ + @ @ + @ "};
