/* XPM */
static char * Sanic_exit_right_xpm[] = {
"32 32 849 2",
"  	c #663300",
". 	c #CC6633",
"+ 	c #FFAE4C",
"@ 	c #FFCC66",
"# 	c #FFCC33",
"$ 	c #FFC054",
"% 	c #FF9933",
"& 	c #FFCC99",
"* 	c #F3B756",
"= 	c #FB973D",
"- 	c #EFC075",
"; 	c #E2B684",
"> 	c #DEB38B",
", 	c #DF9A7D",
"' 	c #E5B881",
") 	c #F2C29D",
"! 	c #F9C745",
"~ 	c #FDCA68",
"{ 	c #FAC868",
"] 	c #F9C764",
"^ 	c #E79F48",
"/ 	c #BD9047",
"( 	c #A47D40",
"_ 	c #A47138",
": 	c #A38144",
"< 	c #A47139",
"[ 	c #A48449",
"} 	c #BF9A52",
"| 	c #ECBD60",
"1 	c #FCBE56",
"2 	c #EF9051",
"3 	c #CCA58D",
"4 	c #A286A8",
"5 	c #8F79B5",
"6 	c #8465B6",
"7 	c #937BB1",
"8 	c #B896B0",
"9 	c #D2A97F",
"0 	c #EABC7A",
"a 	c #F6C56F",
"b 	c #F9C76B",
"c 	c #DF994A",
"d 	c #886B52",
"e 	c #584F47",
"f 	c #605B4E",
"g 	c #615D51",
"h 	c #615D52",
"i 	c #5F594E",
"j 	c #595042",
"k 	c #927644",
"l 	c #E1B45C",
"m 	c #FCAC4F",
"n 	c #F0B55F",
"o 	c #F2B75C",
"p 	c #E1885E",
"q 	c #D3AA89",
"r 	c #CBA494",
"s 	c #B292A5",
"t 	c #7A60B7",
"u 	c #474BC5",
"v 	c #464AC3",
"w 	c #7466B4",
"x 	c #AB8CA2",
"y 	c #C5A095",
"z 	c #D3AB8B",
"A 	c #CA8C6B",
"B 	c #866752",
"C 	c #646156",
"D 	c #777C75",
"E 	c #81887D",
"F 	c #80877C",
"G 	c #7A7F75",
"H 	c #636055",
"I 	c #8C7041",
"J 	c #DFB25A",
"K 	c #FDCA66",
"L 	c #FBAC54",
"M 	c #ECB36F",
"N 	c #E3AC78",
"O 	c #E1896D",
"P 	c #E9BB80",
"Q 	c #E9BB7F",
"R 	c #DD9978",
"S 	c #AF9099",
"T 	c #5251BD",
"U 	c #4C53C7",
"V 	c #5D61C6",
"W 	c #5E5FC2",
"X 	c #6C67BE",
"Y 	c #7D73BB",
"Z 	c #7F66AB",
"` 	c #64538A",
" .	c #626161",
"..	c #82897C",
"+.	c #8C9588",
"@.	c #8C968A",
"#.	c #8B9588",
"$.	c #666458",
"%.	c #8C6F3F",
"&.	c #DFB259",
"*.	c #F4C365",
"=.	c #F0A564",
"-.	c #B28A9C",
";.	c #9C7CAC",
">.	c #9564AC",
",.	c #977EB1",
"'.	c #9B80B0",
").	c #A175A3",
"!.	c #826FA6",
"~.	c #5659C4",
"{.	c #8789CF",
"].	c #A0A2D2",
"^.	c #8286C7",
"/.	c #9597D0",
"(.	c #A9AAD6",
"_.	c #8D90CE",
":.	c #5556B2",
"<.	c #545373",
"[.	c #7B7D6D",
"}.	c #878E80",
"|.	c #8A9388",
"1.	c #7C7E6E",
"2.	c #635D4E",
"3.	c #8B6F3F",
"4.	c #DEB159",
"5.	c #F3C368",
"6.	c #FCCA68",
"7.	c #E59E6D",
"8.	c #B08898",
"9.	c #9F7DA4",
"0.	c #9062A9",
"a.	c #8D77AF",
"b.	c #8F78AF",
"c.	c #8967AE",
"d.	c #6158B5",
"e.	c #696CCA",
"f.	c #B0B0D5",
"g.	c #B9BBD8",
"h.	c #898CC3",
"i.	c #B2B4D6",
"j.	c #DADAE7",
"k.	c #C0C1DE",
"l.	c #696BBC",
"m.	c #4F4C7F",
"n.	c #716F5E",
"o.	c #818678",
"p.	c #899286",
"q.	c #83897B",
"r.	c #747463",
"s.	c #5E5747",
"t.	c #8A6E3E",
"u.	c #FBC966",
"v.	c #E8BA6E",
"w.	c #CC8E7D",
"x.	c #A07D9C",
"y.	c #7863B0",
"z.	c #6451B9",
"A.	c #8C76B0",
"B.	c #BE9B97",
"C.	c #C48981",
"D.	c #836E93",
"E.	c #585ABC",
"F.	c #7679CA",
"G.	c #6B6EC8",
"H.	c #555AC1",
"I.	c #7E80C4",
"J.	c #A6A7D2",
"K.	c #9596CF",
"L.	c #5659B8",
"M.	c #4E4879",
"N.	c #666255",
"O.	c #7B7E71",
"P.	c #878F83",
"Q.	c #7E8376",
"R.	c #6C6B5C",
"S.	c #5A5142",
"T.	c #896D3E",
"U.	c #DD9744",
"V.	c #F2C268",
"W.	c #F0C068",
"X.	c #C28966",
"Y.	c #95767F",
"Z.	c #866B8C",
"`.	c #7B57A0",
" +	c #7667B1",
".+	c #7566B0",
"++	c #7C5FA3",
"@+	c #77628D",
"#+	c #4746A6",
"$+	c #454BC3",
"%+	c #5D60C3",
"&+	c #7F7DBA",
"*+	c #8B88B7",
"=+	c #8280B5",
"-+	c #6161B5",
";+	c #4747A4",
">+	c #554C58",
",+	c #656154",
"'+	c #787A6B",
")+	c #828778",
"!+	c #787B6B",
"~+	c #676353",
"{+	c #574C3D",
"]+	c #886C3D",
"^+	c #DC9644",
"/+	c #F9C867",
"(+	c #DAAF71",
"_+	c #9D7470",
":+	c #685C78",
"<+	c #625574",
"[+	c #604F78",
"}+	c #615477",
"|+	c #5C507D",
"1+	c #584A85",
"2+	c #49439A",
"3+	c #414098",
"4+	c #4F52A6",
"5+	c #7574B0",
"6+	c #A7A2A9",
"7+	c #BBB49F",
"8+	c #ACA597",
"9+	c #7B7793",
"0+	c #524B79",
"a+	c #585159",
"b+	c #6A6757",
"c+	c #767665",
"d+	c #7B7D6B",
"e+	c #757462",
"f+	c #686351",
"g+	c #584D3D",
"h+	c #875F35",
"i+	c #DCAF59",
"j+	c #F0C062",
"k+	c #A7774B",
"l+	c #585265",
"m+	c #595785",
"n+	c #53549B",
"o+	c #4E509E",
"p+	c #4E4C8F",
"q+	c #4F4872",
"r+	c #493D5A",
"s+	c #49416D",
"t+	c #515392",
"u+	c #5356A9",
"v+	c #6465B7",
"w+	c #7674A2",
"x+	c #6D6A81",
"y+	c #5B5565",
"z+	c #524541",
"A+	c #594E3F",
"B+	c #676252",
"C+	c #6E6C63",
"D+	c #6F7071",
"E+	c #727373",
"F+	c #6D6D69",
"G+	c #5F5747",
"H+	c #875F36",
"I+	c #DBAF58",
"J+	c #C86635",
"K+	c #F1A64C",
"L+	c #EEBF61",
"M+	c #EEBF33",
"N+	c #F0C061",
"O+	c #DDB05C",
"P+	c #95684E",
"Q+	c #554E6D",
"R+	c #5E5E90",
"S+	c #585CA6",
"T+	c #4C50B0",
"U+	c #454AB3",
"V+	c #4546A5",
"W+	c #453F7D",
"X+	c #49437B",
"Y+	c #4E51A7",
"Z+	c #4048BF",
"`+	c #4048C4",
" @	c #484DB8",
".@	c #525397",
"+@	c #565174",
"@@	c #4B4260",
"#@	c #53484D",
"$@	c #615A58",
"%@	c #615F73",
"&@	c #5C5C8B",
"*@	c #67698F",
"=@	c #727374",
"-@	c #615C4C",
";@	c #855E35",
">@	c #DAAE57",
",@	c #B7653C",
"'@	c #BA874D",
")@	c #A98B50",
"!@	c #A98734",
"~@	c #A8864E",
"{@	c #927664",
"]@	c #5D4A89",
"^@	c #4446AA",
"/@	c #444AB9",
"(@	c #4148C3",
"_@	c #4047C3",
":@	c #3F47C2",
"<@	c #3E44BD",
"[@	c #3E42B0",
"}@	c #4144AF",
"|@	c #464DC4",
"1@	c #595CC5",
"2@	c #6667C4",
"3@	c #5B5EC4",
"4@	c #494EBE",
"5@	c #4648B2",
"6@	c #4745A0",
"7@	c #4E497A",
"8@	c #5B5667",
"9@	c #5A577A",
"0@	c #5E5B7F",
"a@	c #646383",
"b@	c #666674",
"c@	c #5A5446",
"d@	c #815930",
"e@	c #D9AD56",
"f@	c #AB623E",
"g@	c #826A4A",
"h@	c #625A48",
"i@	c #615847",
"j@	c #5D535C",
"k@	c #4C4896",
"l@	c #4045BA",
"m@	c #3D45C1",
"n@	c #3E45C0",
"o@	c #3D45C0",
"p@	c #3C44BC",
"q@	c #3D45C2",
"r@	c #4149C6",
"s@	c #6567C4",
"t@	c #9F9BB9",
"u@	c #B7B1B6",
"v@	c #A8A3B9",
"w@	c #8584C0",
"x@	c #5B5EC6",
"y@	c #4248C1",
"z@	c #48489A",
"A@	c #5F5A5C",
"B@	c #615C5F",
"C@	c #645D56",
"D@	c #69655A",
"E@	c #676658",
"F@	c #544C40",
"G@	c #7E562C",
"H@	c #D8AC56",
"I@	c #A85D38",
"J@	c #7A6244",
"K@	c #6F6B5B",
"L@	c #838383",
"M@	c #878694",
"N@	c #6365B9",
"O@	c #4149C3",
"P@	c #3E46C2",
"Q@	c #3C44BE",
"R@	c #3D44BF",
"S@	c #3E46C6",
"T@	c #4C52C8",
"U@	c #928FBE",
"V@	c #DBD3AF",
"W@	c #EAE1AF",
"X@	c #E6DDB0",
"Y@	c #CFC8B1",
"Z@	c #928FBB",
"`@	c #4C51C6",
" #	c #4949A4",
".#	c #676354",
"+#	c #66635E",
"@#	c #676250",
"##	c #6B6757",
"$#	c #696758",
"%#	c #554D41",
"&#	c #7D552C",
"*#	c #D7AB55",
"=#	c #A75B34",
"-#	c #796040",
";#	c #8B8980",
">#	c #C3C3C0",
",#	c #D1D1D8",
"'#	c #B7B7D5",
")#	c #9193CC",
"!#	c #5B5EC5",
"~#	c #3F46C0",
"{#	c #3E46C5",
"]#	c #3F47CB",
"^#	c #5B5EC7",
"/#	c #AEA8B9",
"(#	c #EEE5AF",
"_#	c #EFE5AF",
":#	c #DFD7AF",
"<#	c #A29FB7",
"[#	c #5155C6",
"}#	c #4C4FA8",
"|#	c #767C73",
"1#	c #79807E",
"2#	c #7A8178",
"3#	c #818983",
"4#	c #7F8885",
"5#	c #636560",
"6#	c #7D5731",
"7#	c #D6AA54",
"8#	c #A65B35",
"9#	c #795F40",
"0#	c #A4A39E",
"a#	c #E8E8E7",
"b#	c #FEFEFE",
"c#	c #FAFAFB",
"d#	c #E2E3E9",
"e#	c #8182AE",
"f#	c #4D51AD",
"g#	c #444ABD",
"h#	c #3E46C0",
"i#	c #6365C6",
"j#	c #B7B0B6",
"k#	c #EDE3AF",
"l#	c #D2CBB3",
"m#	c #8280C2",
"n#	c #444AC4",
"o#	c #5459A5",
"p#	c #8A9996",
"q#	c #91A2A0",
"r#	c #94A5A2",
"s#	c #9DB0B2",
"t#	c #9CB0B4",
"u#	c #768083",
"v#	c #7D5938",
"w#	c #D6A953",
"x#	c #785D3F",
"y#	c #92908A",
"z#	c #D6D6D4",
"A#	c #F6F6F6",
"B#	c #FAFAFA",
"C#	c #E1E0DF",
"D#	c #7A7679",
"E#	c #64637A",
"F#	c #595C9E",
"G#	c #494EB0",
"H#	c #4348B5",
"I#	c #3F46C2",
"J#	c #6063C6",
"K#	c #B2ACB7",
"L#	c #EBE2AE",
"M#	c #ECE2AE",
"N#	c #E4DBAF",
"O#	c #BDB7B7",
"P#	c #6E6EC4",
"Q#	c #4145BB",
"R#	c #5B6199",
"S#	c #91A3A1",
"T#	c #99ACA9",
"U#	c #98AAA6",
"V#	c #A1B5B6",
"W#	c #A0B5B9",
"X#	c #798587",
"Y#	c #7D5A39",
"Z#	c #D4A853",
"`#	c #A55B35",
" $	c #775D3F",
".$	c #6F6B5F",
"+$	c #A5A59F",
"@$	c #D1D0CE",
"#$	c #DAD9D8",
"$$	c #BEBCBA",
"%$	c #5E544A",
"&$	c #64615F",
"*$	c #696771",
"=$	c #5C5B85",
"-$	c #4F4E95",
";$	c #4246B7",
">$	c #3F47C9",
",$	c #5458C8",
"'$	c #9793BC",
")$	c #CFC7B1",
"!$	c #D2CAB1",
"~$	c #C1BAB5",
"{$	c #8E8BBF",
"]$	c #5154C0",
"^$	c #4344A0",
"/$	c #656C80",
"($	c #8FA19F",
"_$	c #96A8A3",
":$	c #919F97",
"<$	c #97A9A4",
"[$	c #96A9A8",
"}$	c #737D7C",
"|$	c #7B5837",
"1$	c #A45833",
"2$	c #73583A",
"3$	c #757167",
"4$	c #726E60",
"5$	c #8C8981",
"6$	c #949089",
"7$	c #746D66",
"8$	c #554A3C",
"9$	c #656253",
"0$	c #6C6A5B",
"a$	c #67635E",
"b$	c #525080",
"c$	c #4144A8",
"d$	c #3E45C3",
"e$	c #444BCA",
"f$	c #6264C5",
"g$	c #8784C0",
"h$	c #8B89BF",
"i$	c #7B7AC1",
"j$	c #565AC3",
"k$	c #5159B7",
"l$	c #677191",
"m$	c #7E8B87",
"n$	c #8E9D98",
"o$	c #94A49E",
"p$	c #93A29C",
"q$	c #97A9A5",
"r$	c #93A6A4",
"s$	c #717A77",
"t$	c #7A5737",
"u$	c #D3A853",
"v$	c #A25630",
"w$	c #6F5336",
"x$	c #5C5342",
"y$	c #696453",
"z$	c #6F695A",
"A$	c #635B4B",
"B$	c #544738",
"C$	c #666253",
"D$	c #6C6B60",
"E$	c #636275",
"F$	c #515195",
"G$	c #4245A9",
"H$	c #3E44B7",
"I$	c #3F47C8",
"J$	c #4048CB",
"K$	c #4249CA",
"L$	c #434AC9",
"M$	c #434AC3",
"N$	c #525DBC",
"O$	c #7786B1",
"P$	c #8FA2A8",
"Q$	c #8E9F9F",
"R$	c #8F9C94",
"S$	c #92A19A",
"T$	c #98ABA7",
"U$	c #9BB0AE",
"V$	c #94A8A6",
"W$	c #717B78",
"X$	c #795737",
"Y$	c #D2A752",
"Z$	c #A35833",
"`$	c #725639",
" %	c #5E5443",
".%	c #655E4C",
"+%	c #635B49",
"@%	c #5C5241",
"#%	c #514434",
"$%	c #554A3D",
"%%	c #63605C",
"&%	c #62627E",
"*%	c #53549E",
"=%	c #4A4CA9",
"-%	c #4A489A",
";%	c #433F8C",
">%	c #4245B1",
",%	c #4249C6",
"'%	c #4149C8",
")%	c #4B53C3",
"!%	c #5A64B9",
"~%	c #6876B2",
"{%	c #8A9DB0",
"]%	c #9AB0AF",
"^%	c #94A6A3",
"/%	c #8F9C93",
"(%	c #99ADAA",
"_%	c #9CB2B0",
":%	c #95A8A7",
"<%	c #727C79",
"[%	c #785737",
"}%	c #D2A652",
"|%	c #A35A35",
"1%	c #735A3C",
"2%	c #5F5544",
"3%	c #5F5543",
"4%	c #574A39",
"5%	c #4F4031",
"6%	c #544C4F",
"7%	c #5D5C85",
"8%	c #5254A5",
"9%	c #5354A1",
"0%	c #595684",
"a%	c #5B535C",
"b%	c #51474B",
"c%	c #4E4C75",
"d%	c #5A60A6",
"e%	c #646DB2",
"f%	c #6F79A9",
"g%	c #7C87A0",
"h%	c #7988A8",
"i%	c #7F90AD",
"j%	c #90A3AD",
"k%	c #95A6A2",
"l%	c #8D998F",
"m%	c #8F9D95",
"n%	c #97AAA6",
"o%	c #9AAFAC",
"p%	c #93A6A3",
"q%	c #775637",
"r%	c #D1A652",
"s%	c #A25733",
"t%	c #6F5437",
"u%	c #594E3D",
"v%	c #5D5342",
"w%	c #5B503E",
"x%	c #554837",
"y%	c #4E3F42",
"z%	c #535080",
"A%	c #545AA9",
"B%	c #64699F",
"C%	c #727473",
"D%	c #74725F",
"E%	c #71705E",
"F%	c #717264",
"G%	c #717676",
"H%	c #828A80",
"I%	c #8B958A",
"J%	c #8C968B",
"K%	c #8B968F",
"L%	c #7985A1",
"M%	c #717EB0",
"N%	c #8DA0AB",
"O%	c #91A29D",
"P%	c #848D83",
"Q%	c #909E97",
"R%	c #94A49D",
"S%	c #8D9B95",
"T%	c #6D736D",
"U%	c #775535",
"V%	c #D0A551",
"W%	c #A05530",
"X%	c #6B4E31",
"Y%	c #534535",
"Z%	c #584C3A",
"`%	c #594D3B",
" &	c #554839",
".&	c #493E65",
"+&	c #484AAB",
"@&	c #5C62A8",
"#&	c #7D8487",
"$&	c #7A7E77",
"%&	c #7B7C69",
"&&	c #7D7E6B",
"*&	c #818576",
"=&	c #858D81",
"-&	c #858D85",
";&	c #828A89",
">&	c #858C8A",
",&	c #899288",
"'&	c #818A98",
")&	c #6973B0",
"!&	c #8191AB",
"~&	c #8A989A",
"{&	c #7F877D",
"]&	c #7E8478",
"^&	c #878F84",
"/&	c #8B9589",
"(&	c #868F83",
"_&	c #696B61",
":&	c #765432",
"<&	c #9F542F",
"[&	c #694D30",
"}&	c #554433",
"|&	c #674837",
"1&	c #724838",
"2&	c #6E423D",
"3&	c #643A76",
"4&	c #6643B1",
"5&	c #6C5F8C",
"6&	c #787B6F",
"7&	c #767767",
"8&	c #787561",
"9&	c #7B755F",
"0&	c #7B7967",
"a&	c #7B7D6F",
"b&	c #7D7D6D",
"c&	c #807E6C",
"d&	c #838473",
"e&	c #858B7D",
"f&	c #838B8D",
"g&	c #6A74A6",
"h&	c #6873AF",
"i&	c #7581A7",
"j&	c #8A9299",
"k&	c #908784",
"l&	c #92786E",
"m&	c #917B6D",
"n&	c #858172",
"o&	c #656457",
"p&	c #745230",
"q&	c #CFA451",
"r&	c #6A4D32",
"s&	c #644739",
"t&	c #97473B",
"u&	c #B33F36",
"v&	c #B13945",
"w&	c #AC3464",
"x&	c #AB3885",
"y&	c #895269",
"z&	c #6E6C5D",
"A&	c #6E6A59",
"B&	c #736C58",
"C&	c #797059",
"D&	c #77725D",
"E&	c #747261",
"F&	c #787461",
"G&	c #7D7763",
"H&	c #7D7B67",
"I&	c #7E8170",
"J&	c #83887D",
"K&	c #7B818D",
"L&	c #6A71A5",
"M&	c #676DAF",
"N&	c #8879A2",
"O&	c #AB7077",
"P&	c #B35C54",
"Q&	c #A76254",
"R&	c #897461",
"S&	c #625D4D",
"T&	c #72502E",
"U&	c #CEA451",
"V&	c #9E532E",
"W&	c #6A4F34",
"X&	c #6E5144",
"Y&	c #AB4C43",
"Z&	c #D23634",
"`&	c #DA2F34",
" *	c #D62E3A",
".*	c #C43B47",
"+*	c #915A52",
"@*	c #6C6756",
"#*	c #6D634D",
"$*	c #746C55",
"%*	c #7C7963",
"&*	c #7D7C67",
"**	c #7C7D6A",
"=*	c #818575",
"-*	c #848879",
";*	c #7B7D6E",
">*	c #767463",
",*	c #7C7765",
"'*	c #7C796A",
")*	c #73757B",
"!*	c #6F7398",
"~*	c #887198",
"{*	c #A96870",
"]*	c #AB6358",
"^*	c #9C6756",
"/*	c #876853",
"(*	c #615542",
"_*	c #714F2C",
":*	c #CEA351",
"<*	c #9C512D",
"[*	c #644A32",
"}*	c #645344",
"|*	c #8C5A4D",
"1*	c #AE5348",
"2*	c #BE4D45",
"3*	c #B94F46",
"4*	c #9D594C",
"5*	c #766252",
"6*	c #69614E",
"7*	c #6C604A",
"8*	c #736C57",
"9*	c #7A7A66",
"0*	c #7C7E6C",
"a*	c #818778",
"b*	c #828A7D",
"c*	c #7A7E70",
"d*	c #757463",
"e*	c #7B7663",
"f*	c #7A7460",
"g*	c #6F6959",
"h*	c #706F6F",
"i*	c #817F7F",
"j*	c #8C8176",
"k*	c #847A69",
"l*	c #7F7662",
"m*	c #787059",
"n*	c #6E4D2B",
"o*	c #CCA251",
"p*	c #9B502B",
"q*	c #62452A",
"r*	c #584533",
"s*	c #685643",
"t*	c #756252",
"u*	c #7F6858",
"v*	c #826955",
"w*	c #76634C",
"x*	c #64543E",
"y*	c #625541",
"z*	c #6A6452",
"A*	c #6F6C5B",
"B*	c #727161",
"C*	c #737362",
"D*	c #757767",
"E*	c #77796B",
"F*	c #7A7B6A",
"G*	c #7E806F",
"H*	c #85897A",
"I*	c #818274",
"J*	c #6F6654",
"K*	c #6A604E",
"L*	c #6E6C6D",
"M*	c #757768",
"N*	c #797865",
"O*	c #7A7764",
"P*	c #635D4C",
"Q*	c #704F2E",
"R*	c #CCA250",
"S*	c #AA562C",
"T*	c #A46F34",
"U*	c #9E7B40",
"V*	c #A58436",
"W*	c #A88B57",
"X*	c #AB8456",
"Y*	c #AE8C55",
"Z*	c #AC864A",
"`*	c #A57C3C",
" =	c #A46B37",
".=	c #A98E5B",
"+=	c #AA9260",
"@=	c #AA8458",
"#=	c #AA9160",
"$=	c #AA9172",
"%=	c #AB9355",
"&=	c #AF9867",
"*=	c #B39F70",
"==	c #B7A67D",
"-=	c #B49571",
";=	c #AB8854",
">=	c #A78146",
",=	c #A98052",
"'=	c #AB9160",
")=	c #AB9260",
"!=	c #AE8A5F",
"~=	c #B19968",
"{=	c #A58B58",
"]=	c #AC763A",
"^=	c #DDB057",
"  . + @ # @ @ + $ $ % @ @ @ + @ & # @ @ @ @ + $ + @ @ @ + @ @ @ ",
"  . + @ # @ @ + $ * = - ; > , ' ) ! ~ { ] ^ / ( _ : : : < [ } | ",
"  . + @ # @ @ + $ 1 2 3 4 5 6 7 8 9 0 a b c d e f g g h i j k l ",
"  . + @ # @ @ m n o p q r s t u v w x y z A B C D E F E G H I J ",
"  . + @ # @ K L M N O P Q R S T U V W X Y Z `  ...+.@.#...$.%.&.",
"  . + @ # @ *.=.-.;.>.,.'.).!.~.{.].^./.(._.:.<.[.}.|.}.1.2.3.4.",
"  . + @ # 5.6.7.8.9.0.a.b.c.d.e.f.g.h.i.j.k.l.m.n.o.p.q.r.s.t.4.",
"  . + @ # u.v.w.x.y.z.A.B.C.D.E.F.G.H.I.J.K.L.M.N.O.P.Q.R.S.T.U.",
"  . + @ # V.W.X.Y.Z.`. +.+++@+#+$+%+&+*+=+-+;+>+,+'+)+!+~+{+]+^+",
"  . + @ # /+(+_+:+<+[+}+|+1+2+3+4+5+6+7+8+9+0+a+b+c+d+e+f+g+h+i+",
"  . + @ # @ j+k+l+m+n+o+p+q+r+s+t+u+v+w+x+y+z+A+B+C+D+E+F+G+H+I+",
"  J+K+L+M+N+O+P+Q+R+S+T+U+V+W+X+Y+Z+`+ @.@+@@@#@$@%@&@*@=@-@;@>@",
"  ,@'@)@!@~@{@]@^@/@(@_@:@<@[@}@|@1@2@3@4@5@6@7@8@9@0@a@b@c@d@e@",
"  f@g@h@i@j@k@l@m@m@n@m@o@p@q@r@s@t@u@v@w@x@y@z@A@B@C@D@E@F@G@H@",
"  I@J@K@L@M@N@O@q@P@Q@o@m@R@S@T@U@V@W@X@Y@Z@`@ #.#+#@###$#%#&#*#",
"  =#-#;#>#,#'#)#!#~#Q@Q@Q@{#]#^#/#(#_#_#:#<#[#}#|#1#2#3#4#5#6#7#",
"  8#9#0#a#b#c#d#e#f#g#h#p@{#]#i#j#_#_#k#l#m#n#o#p#q#r#s#t#u#v#w#",
"  8#x#y#z#A#B#C#D#E#F#G#H#I#]#J#K#L#M#N#O#P#Q#R#S#T#U#V#W#X#Y#Z#",
"  `# $.$+$@$#$$$%$&$*$=$-$;$>$,$'$)$!$~${$]$^$/$($_$:$<$[$}$|$Z#",
"  1$2$3$4$5$6$7$8$9$0$a$b$c$d$e$f$g$h$i$j$k$l$m$n$o$p$q$r$s$t$u$",
"  v$w$x$y$z$A$B$8$C$D$E$F$G$H$I$J$K$L$M$N$O$P$Q$R$S$T$U$V$W$X$Y$",
"  Z$`$ %.%+%@%#%$%%%&%*%=%-%;%>%,%'%)%!%~%{%]%^%/%S$(%_%:%<%[%}%",
"  |%1%2%+%3%4%5%6%7%8%9%0%a%b%c%d%e%f%g%h%i%j%k%l%m%n%o%p%s$q%r%",
"  s%t%u%v%w%x%y%z%A%B%C%D%E%F%G%H%I%J%K%L%M%N%O%H%P%Q%R%S%T%U%V%",
"  W%X%Y%Z%`% &.&+&@&#&$&%&&&*&=&-&;&>&,&'&)&!&~&{&]&^&/&(&_&:&V%",
"  <&[&}&|&1&2&3&4&5&6&7&8&9&0&a&b&c&d&e&f&g&h&i&j&k&l&m&n&o&p&q&",
"  <&r&s&t&u&v&w&x&y&z&A&B&C&D&E&F&G&H&I&J&K&L&M&N&O&P&Q&R&S&T&U&",
"  V&W&X&Y&Z&`& *.*+*@*#*$*%*&***=*-*;*>*,*'*)*!*~*{*]*^*/*(*_*:*",
"  <*[*}*|*1*2*3*4*5*6*7*8*9***0*a*b*c*d*e*f*g*h*i*j*k*l*m*(*n*o*",
"  p*q*r*s*t*u*v*w*x*y*z*A*B*C*r.D*E*F*G*H*I*J*K*L*M*r.N*O*P*Q*R*",
"  S*T*U*V*W*X*Y*Z*`* =.=+=@=#=#=$=%=&=*===-=;=>=,='=)=!=~={=]=^=",
"  . + @ # @ + $ $ $ % @ @ + @ @ & # @ @ @ + $ $ + @ @ + @ @ + @ "};
