/* XPM */
static char * sanic_left_xpm_xpm[] = {
"32 32 427 2",
"  	c #FFCC66",
". 	c #FFAE4C",
"+ 	c #FFC054",
"@ 	c #FFCC33",
"# 	c #FFCC99",
"$ 	c #FF9933",
"% 	c #CC6633",
"& 	c #663300",
"* 	c #F8C766",
"= 	c #DBB064",
"- 	c #AC8DAD",
"; 	c #A387AC",
"> 	c #9E73AB",
", 	c #A286AB",
"' 	c #CAA388",
") 	c #FECB66",
"! 	c #FCBE53",
"~ 	c #F9AA4A",
"{ 	c #FAC868",
"] 	c #BE9A94",
"^ 	c #5552BF",
"/ 	c #3F47CB",
"( 	c #4148C9",
"_ 	c #6E62BD",
": 	c #8D77AF",
"< 	c #AD8D8B",
"[ 	c #F2913C",
"} 	c #FAAB50",
"| 	c #EBB165",
"1 	c #BB8F85",
"2 	c #8866A4",
"3 	c #957CA5",
"4 	c #3E44B9",
"5 	c #3D45BC",
"6 	c #3B43BD",
"7 	c #3F46C7",
"8 	c #6F62B8",
"9 	c #CE8F7F",
"0 	c #F5C469",
"a 	c #FE9833",
"b 	c #F7C667",
"c 	c #6F58AE",
"d 	c #3F47CC",
"e 	c #5D55AF",
"f 	c #F2C164",
"g 	c #F9AA53",
"h 	c #F4C470",
"i 	c #E8BA72",
"j 	c #D98358",
"k 	c #EAB063",
"l 	c #FCBE56",
"m 	c #B9978E",
"n 	c #3F47CA",
"o 	c #7A7DC4",
"p 	c #A9AAD3",
"q 	c #A4A5D1",
"r 	c #6A6DC0",
"s 	c #979AC7",
"t 	c #ABACD4",
"u 	c #5056C8",
"v 	c #4448C9",
"w 	c #9F8297",
"x 	c #8973AE",
"y 	c #6354C1",
"z 	c #494CC6",
"A 	c #3F47C9",
"B 	c #484BC7",
"C 	c #8A70AD",
"D 	c #FDAC4C",
"E 	c #B29199",
"F 	c #6065C8",
"G 	c #ECECED",
"H 	c #F6F6F6",
"I 	c #E6E7ED",
"J 	c #686DBF",
"K 	c #9FA1B9",
"L 	c #F7F7F8",
"M 	c #B0B0D1",
"N 	c #4047CB",
"O 	c #3E44BF",
"P 	c #4F4FC5",
"Q 	c #6556BE",
"R 	c #9179AB",
"S 	c #9A80A4",
"T 	c #B57391",
"U 	c #C0938C",
"V 	c #C29588",
"W 	c #F3A64E",
"X 	c #B1919E",
"Y 	c #4C53C9",
"Z 	c #B1B2D7",
"` 	c #D0D1E1",
" .	c #8082C7",
"..	c #3F47B4",
"+.	c #4249C9",
"@.	c #8789CA",
"#.	c #8184C9",
"$.	c #5753C4",
"%.	c #B29189",
"&.	c #DDB178",
"*.	c #E49C65",
"=.	c #AB8D9E",
"-.	c #4347C1",
";.	c #4D49C1",
">.	c #6D5DB7",
",.	c #A07EA1",
"'.	c #C88C82",
").	c #F2C268",
"!.	c #D2A97B",
"~.	c #3D43B8",
"{.	c #4449BE",
"].	c #474CC8",
"^.	c #454BBA",
"/.	c #424ACA",
"(.	c #AB8CAC",
"_.	c #E7B96F",
":.	c #655CB6",
"<.	c #454BC7",
"[.	c #4249CB",
"}.	c #474CC6",
"|.	c #6D52AA",
"1.	c #AB8487",
"2.	c #C99873",
"3.	c #E39B56",
"4.	c #FCC966",
"5.	c #F8C765",
"6.	c #7F62B0",
"7.	c #8481A4",
"8.	c #DBD3A5",
"9.	c #D8CFA3",
"0.	c #D7CFA2",
"a.	c #ACA6A9",
"b.	c #4149C9",
"c.	c #7263AC",
"d.	c #7868B3",
"e.	c #5150C3",
"f.	c #9D82A7",
"g.	c #D2927D",
"h.	c #F1C170",
"i.	c #F5C465",
"j.	c #E98D52",
"k.	c #DDA773",
"l.	c #CC9C86",
"m.	c #BF857D",
"n.	c #DEB26A",
"o.	c #EAA165",
"p.	c #A68395",
"q.	c #B19183",
"r.	c #B1A390",
"s.	c #9B96A3",
"t.	c #5355B1",
"u.	c #B69487",
"v.	c #937B99",
"w.	c #C19DA6",
"x.	c #E6B878",
"y.	c #FCCA67",
"z.	c #E49C67",
"A.	c #A487A4",
"B.	c #7163BA",
"C.	c #7F59AB",
"D.	c #B48B93",
"E.	c #D3A07D",
"F.	c #F1A55D",
"G.	c #FBC967",
"H.	c #F6A856",
"I.	c #F5C56B",
"J.	c #FEAD4C",
"K.	c #AA8C9C",
"L.	c #3D45C2",
"M.	c #76659D",
"N.	c #F3C340",
"O.	c #FBC968",
"P.	c #C7A188",
"Q.	c #8966A3",
"R.	c #A98B9C",
"S.	c #D8AD76",
"T.	c #F99537",
"U.	c #7C61B9",
"V.	c #615AC0",
"W.	c #AA7991",
"X.	c #F8C764",
"Y.	c #FAAB4C",
"Z.	c #E4AC57",
"`.	c #986F96",
" +	c #5452C2",
".+	c #3F47C8",
"++	c #3D45C3",
"@+	c #494DC6",
"#+	c #7A6AAC",
"$+	c #E6B995",
"%+	c #8C7384",
"&+	c #4046BD",
"*+	c #6756B5",
"=+	c #6B60BE",
"-+	c #7C5AAD",
";+	c #CE9D73",
">+	c #FCBE54",
",+	c #CF907D",
"'+	c #EDBE71",
")+	c #D39275",
"!+	c #A88A94",
"~+	c #DAAF7A",
"{+	c #B99793",
"]+	c #6857BD",
"^+	c #4748B5",
"/+	c #3C43BB",
"(+	c #7663B6",
"_+	c #CF907E",
":+	c #FECB67",
"<+	c #F9C867",
"[+	c #DAAF76",
"}+	c #5753B3",
"|+	c #4148C6",
"1+	c #8382B9",
"2+	c #B4AEB1",
"3+	c #B2ACB1",
"4+	c #6365BD",
"5+	c #3E47C6",
"6+	c #3B41B1",
"7+	c #3C44BE",
"8+	c #3C44BF",
"9+	c #3C44BC",
"0+	c #3E44BC",
"a+	c #4A4AC6",
"b+	c #BB9896",
"c+	c #FDCA66",
"d+	c #FDAE51",
"e+	c #F5C46C",
"f+	c #3E46C2",
"g+	c #7776BA",
"h+	c #DAD2AC",
"i+	c #EEE5B0",
"j+	c #EFE5AF",
"k+	c #EEE5AF",
"l+	c #C7C1AD",
"m+	c #484EC7",
"n+	c #3E45C4",
"o+	c #3B42B3",
"p+	c #3F46C6",
"q+	c #3E46C4",
"r+	c #3C45C0",
"s+	c #3E45C1",
"t+	c #3E46C5",
"u+	c #3C43BC",
"v+	c #484BC6",
"w+	c #E7B977",
"x+	c #FECB33",
"y+	c #EEAC6B",
"z+	c #F8C76C",
"A+	c #494CC5",
"B+	c #B4AFA5",
"C+	c #EDE4AE",
"D+	c #7171C0",
"E+	c #3F48C8",
"F+	c #3C42B8",
"G+	c #3D45C4",
"H+	c #3A42B6",
"I+	c #3B43BC",
"J+	c #3E46C6",
"K+	c #4046CA",
"L+	c #3E45B7",
"M+	c #888AC2",
"N+	c #D9CCC1",
"O+	c #E8D7BB",
"P+	c #F4C775",
"Q+	c #FFAE4D",
"R+	c #655CBF",
"S+	c #6667C0",
"T+	c #EBE2AE",
"U+	c #8C89BA",
"V+	c #3941AE",
"W+	c #3E46C3",
"X+	c #3F46CA",
"Y+	c #4649C2",
"Z+	c #9392C5",
"`+	c #EEEFF2",
" @	c #F8F8F9",
".@	c #FFFFFF",
"+@	c #E4D4BD",
"@@	c #7667B9",
"#@	c #5155C7",
"$@	c #E1D8AF",
"%@	c #918EB9",
"&@	c #3E48CA",
"*@	c #3C44B9",
"=@	c #3D45C0",
"-@	c #3D44BF",
";@	c #6E53AB",
">@	c #D3A06E",
",@	c #E8C59E",
"'@	c #E9D9C3",
")@	c #B1919F",
"!@	c #4449C9",
"~@	c #4048CA",
"{@	c #B0ABB2",
"]@	c #EEE4AF",
"^@	c #8784BD",
"/@	c #524BB2",
"(@	c #6E62BC",
"_@	c #977DA7",
":@	c #F59340",
"<@	c #F7C682",
"[@	c #FEFDFC",
"}@	c #F8F6F2",
"|@	c #F5C66D",
"1@	c #FCCA66",
"2@	c #966EA4",
"3@	c #B8B1AB",
"4@	c #E0D7AA",
"5@	c #D9CFA4",
"6@	c #C8C1A9",
"7@	c #5C5FC2",
"8@	c #4045BC",
"9@	c #E59D57",
"0@	c #FEC056",
"a@	c #ECC5A8",
"b@	c #F0EAE3",
"c@	c #F0E1CE",
"d@	c #F5CC6D",
"e@	c #D7A47E",
"f@	c #4148CA",
"g@	c #464DC9",
"h@	c #4F54C8",
"i@	c #4D52C8",
"j@	c #484EC9",
"k@	c #5750A0",
"l@	c #A87894",
"m@	c #FBC965",
"n@	c #FEAE4F",
"o@	c #FECD6E",
"p@	c #FECC69",
"q@	c #FBBD57",
"r@	c #C2958B",
"s@	c #4B49B8",
"t@	c #3E45BC",
"u@	c #826FAE",
"v@	c #B78086",
"w@	c #F5C467",
"x@	c #F3B764",
"y@	c #524CB5",
"z@	c #6D60B0",
"A@	c #5753C5",
"B@	c #AC8D89",
"C@	c #7365BB",
"D@	c #4649C8",
"E@	c #8D77AD",
"F@	c #EDBE72",
"G@	c #FF9934",
"H@	c #D5A175",
"I@	c #8F699D",
"J@	c #EBBD72",
"K@	c #937CAA",
"L@	c #4D4EC2",
"M@	c #7B6BB2",
"N@	c #DDB19C",
"O@	c #BD848A",
"P@	c #605ABD",
"Q@	c #4F4EC5",
"R@	c #D28171",
"S@	c #FCBD54",
"T@	c #6658B3",
"U@	c #DA9774",
"V@	c #FCC968",
"W@	c #F4C36F",
"X@	c #EFC071",
"Y@	c #F9C73F",
"Z@	c #FDAD4C",
"`@	c #F5C46E",
" #	c #C09C8E",
".#	c #504AC5",
"+#	c #BD928C",
"@#	c #FEBF54",
"##	c #E9B16A",
"$#	c #5A53C3",
"%#	c #F3A65A",
"&#	c #FDCB67",
"*#	c #BF7786",
"=#	c #4E4DC3",
"-#	c #C4968B",
";#	c #B78D95",
">#	c #6C5FBA",
",#	c #FCBE55",
"'#	c #9274A9",
")#	c #5550C5",
"!#	c #E9A060",
"~#	c #F39C45",
"{#	c #F5C060",
"]#	c #FDCB65",
"^#	c #FBAC4B",
"/#	c #F1C16C",
"(#	c #9B71A0",
"_#	c #454AC7",
":#	c #C09277",
"<#	c #A37FA1",
"[#	c #4549C9",
"}#	c #D4937B",
"|#	c #E6482C",
"1#	c #EA3F2D",
"2#	c #E45333",
"3#	c #AD4D75",
"4#	c #5F57C1",
"5#	c #504EC1",
"6#	c #D4937A",
"7#	c #D1644D",
"8#	c #C92C66",
"9#	c #D2674E",
"0#	c #EA6A35",
"a#	c #E8733E",
"b#	c #E8802B",
"c#	c #F8C763",
"d#	c #F5A347",
"e#	c #E69B4F",
"f#	c #E7954D",
"g#	c #D96D4A",
"h#	c #A586A1",
"i#	c #E6B975",
"j#	c #E8833D",
"k#	c #EC2026",
"l#	c #ED1D26",
"m#	c #E83427",
"n#	c #E7B85B",
"o#	c #F9B851",
"p#	c #E99142",
"q#	c #EC6736",
"r#	c #EE5C32",
"s#	c #E88546",
"t#	c #F0AF2F",
"      .       . + .         @ #   .       $ + + .     @   . % & ",
"      .       . + + .     * = - ; > , ' ) $ + + .     @   . % & ",
"      .       . + ! ~ { ] ^ / / / ( _ : < [ + + .     @   . % & ",
"      .       } | 1 2 3 4 5 6 7 8 9 0     a + + .     @   . % & ",
"      .     b c / / / / d / / e f   g h i j k l .     @   . % & ",
"      .     m n o p q r s t u v w x y z A n B C D     @   . % & ",
"      .     E F G H I J K L M N O P Q R S T U V W     @   . % & ",
".     .     X Y Z `  ...+.@.#.$.%.&.*.=.-.;.>.,.'.).  @   . % & ",
".     .     !./ ~.{.].^././ d (._.:.<.[.}.|.1.2.3.4.  @   . % & ",
"  .   .     5.6.7.8.9.0.a.b.c.d.e.f.g.h.i.j.k.l.m.n.  @   . % & ",
"  .   .       o.p.q.r.s.t.u.v.w.x.y.z.A.B.C.D.E.F.G.  @   . % & ",
"  H.I.J.      . + J.K.n L.M.N.# O.P.Q.R.S.T.+ + .     @   . % & ",
"  U.V.W.X.    Y.Z.`. +.+++@+#+$+%+&+*+=+=+-+;+>+.     @   . % & ",
"  ,+'+)+!+~+{+]+A / / / / / A ^+/+A A A n / n (+_+:+  @   . % & ",
"  .   . <+[+}+/ / |+1+2+3+4+n .+5+6+7+8+9+0+9+A a+b+c+@   . % & ",
"  d+  .   e+f+/ g+h+i+j+k+l+m+/ n+o+p+q+r+s+t+u+A v+w+x+  . % & ",
"  y+  .   z+A+/ B+j+j+j+j+C+D+/ d E+F+G+H+I+J+K+L+M+N+O+P+. % & ",
"  Q+  .   O.R+/ S+T+j+j+j+j+U+/ / A V+W+X+J+Y+Z+`+ @.@.@+@. % & ",
"  .   .   c+@@/ #@$@j+j+j+j+%@&@/ A *@=@-@;@>@,@.@.@.@.@'@. % & ",
"  .     .   )@!@~@{@]@j+j+j+^@/ / n /@(@_@:@+ <@[@.@.@}@|@. % & ",
"  .     .   1@2@/ .+3@4@5@6@7@/ / 8@9@)   $ + 0@a@b@c@d@  . % & ",
"  .     .   . e@f@/ g@h@i@j@N / t+k@l@m@  $ + + n@o@p@@   . % & ",
"  .     .   . q@r@s@t+/ / / / n t@u@v@w@  $ + + .     @   . % & ",
"  .     .   . + x@y@z@/ / / / A@B@C@D@E@F@G@+ + .     @   . % & ",
"  .     .   . + H@I@J@K@L@.+M@N@    O@P@Q@R@+ + .     @   . % & ",
"  .     .   . S@T@U@  V@W@X@Y@#     Z@`@ #.#+#@#.     @   . % & ",
"  .     .   . ##$#%#        @ #     .   &#*#=#-#.     @   . % & ",
"  .     .   D ;#>#,#.       @ #     .     $ '#)#!#    @   . % & ",
"  ~#{#]#^#/#(#_#:#+ .       @ #     .     $ <#[#}#    @   . % & ",
"  |#1#2#3#4#5#6#@#+ .       @ #     .     $ 7#8#9#0#a#b#c#. % & ",
"  d#e#f#g#h#i#. + + .       @ #     .     $ j#k#l#l#l#m#n#. % & ",
"  .     .     . + + .       @ #     .     $ o#p#q#r#s#t#  . % & "};
