/* XPM */
static char * sanic_stairs_left_xpm[] = {
"32 32 754 2",
"  	c #663300",
". 	c #CC6633",
"+ 	c #FFAE4C",
"@ 	c #FFCC66",
"# 	c #FFCC33",
"$ 	c #FFC054",
"% 	c #FF9933",
"& 	c #F8AA4E",
"* 	c #DBB07B",
"= 	c #AC8DAD",
"- 	c #A387A6",
"; 	c #9E83AF",
"> 	c #A286AB",
", 	c #CAA388",
"' 	c #FECB66",
") 	c #FC9732",
"! 	c #F9C764",
"~ 	c #FAC868",
"{ 	c #BE9A94",
"] 	c #554EBE",
"^ 	c #3F47CB",
"/ 	c #4148C9",
"( 	c #6E62BD",
"_ 	c #8D77AF",
": 	c #A07385",
"< 	c #B3894B",
"[ 	c #A47D40",
"} 	c #A47138",
"| 	c #A38144",
"1 	c #A47139",
"2 	c #A48449",
"3 	c #BF9A52",
"4 	c #ECBD60",
"5 	c #FABC57",
"6 	c #EBB165",
"7 	c #BB747E",
"8 	c #8873A6",
"9 	c #957CA5",
"0 	c #3E44B9",
"a 	c #3D45BC",
"b 	c #3B43BD",
"c 	c #3F46C7",
"d 	c #6F62B6",
"e 	c #CEA788",
"f 	c #F5C469",
"g 	c #E09A47",
"h 	c #8E703F",
"i 	c #595042",
"j 	c #605B4E",
"k 	c #615D51",
"l 	c #615D52",
"m 	c #5F594E",
"n 	c #927644",
"o 	c #E1B45C",
"p 	c #F7A950",
"q 	c #6F5DAE",
"r 	c #3F47CC",
"s 	c #5D55AF",
"t 	c #F2C137",
"u 	c #F9C76A",
"v 	c #F4C470",
"w 	c #CA8B5C",
"x 	c #775C5C",
"y 	c #5D5B63",
"z 	c #7A7F76",
"A 	c #81887D",
"B 	c #80877C",
"C 	c #7A7F75",
"D 	c #636055",
"E 	c #8C7041",
"F 	c #DFB25A",
"G 	c #B98287",
"H 	c #3F47CA",
"I 	c #7A7DC4",
"J 	c #A9AAD3",
"K 	c #A4A5D1",
"L 	c #6A6DC0",
"M 	c #979AC7",
"N 	c #ABACD4",
"O 	c #5056C8",
"P 	c #4248C9",
"Q 	c #89718F",
"R 	c #7766AD",
"S 	c #5954C1",
"T 	c #464AC6",
"U 	c #3F47C9",
"V 	c #4048C7",
"W 	c #5359B1",
"X 	c #8B9487",
"Y 	c #8C968A",
"Z 	c #8B9588",
"` 	c #82897C",
" .	c #666458",
"..	c #8C6F3F",
"+.	c #DFB259",
"@.	c #B27E93",
"#.	c #6065C8",
"$.	c #ECECED",
"%.	c #F6F6F6",
"&.	c #E6E7ED",
"*.	c #686DBF",
"=.	c #9FA1B9",
"-.	c #F7F7F8",
";.	c #B0B0D1",
">.	c #4047CB",
",.	c #3E44BF",
"'.	c #4247C4",
").	c #484ABE",
"!.	c #554EA7",
"~.	c #51469E",
"{.	c #484190",
"].	c #4E4E89",
"^.	c #626690",
"/.	c #81877D",
"(.	c #8A9388",
"_.	c #878E80",
":.	c #7C7E6E",
"<.	c #635D4E",
"[.	c #8B6F3F",
"}.	c #DEB159",
"|.	c #B17E98",
"1.	c #4C53C9",
"2.	c #B1B2D7",
"3.	c #D0D1E1",
"4.	c #8082C7",
"5.	c #3F47B4",
"6.	c #4249C9",
"7.	c #8789CA",
"8.	c #8184C9",
"9.	c #4148C2",
"0.	c #515387",
"a.	c #5C5B6F",
"b.	c #595464",
"c.	c #484697",
"d.	c #3E45C1",
"e.	c #4145B6",
"f.	c #5154A3",
"g.	c #696E92",
"h.	c #828B85",
"i.	c #83897B",
"j.	c #747463",
"k.	c #5E5747",
"l.	c #8A6E3E",
"m.	c #CF8F70",
"n.	c #3D43B8",
"o.	c #4449BE",
"p.	c #474CC8",
"q.	c #454BBA",
"r.	c #424ACA",
"s.	c #55599F",
"t.	c #787D80",
"u.	c #474DB6",
"v.	c #3F4AC7",
"w.	c #4048CB",
"x.	c #4049C6",
"y.	c #3D41AA",
"z.	c #444282",
"A.	c #555372",
"B.	c #6D7071",
"C.	c #858D82",
"D.	c #7E8376",
"E.	c #6C6B5C",
"F.	c #5A5142",
"G.	c #896D3E",
"H.	c #DD9744",
"I.	c #F8C765",
"J.	c #D6964D",
"K.	c #685BB0",
"L.	c #8481A4",
"M.	c #DBD3A5",
"N.	c #D8CFA3",
"O.	c #D7CFA2",
"P.	c #ACA6A9",
"Q.	c #4048C9",
"R.	c #4143AC",
"S.	c #474CAE",
"T.	c #434AC3",
"U.	c #585CA9",
"V.	c #626284",
"W.	c #5E585C",
"X.	c #52463B",
"Y.	c #4D4151",
"Z.	c #524B6A",
"`.	c #595886",
" +	c #5F6287",
".+	c #727777",
"++	c #787B6B",
"@+	c #676353",
"#+	c #574C3D",
"$+	c #886C3D",
"%+	c #DC9644",
"&+	c #F1C163",
"*+	c #B6844B",
"=+	c #6F6063",
"-+	c #575292",
";+	c #807A81",
">+	c #9A948D",
",+	c #9B96A3",
"'+	c #5154B1",
")+	c #483F7A",
"!+	c #3F4098",
"~+	c #57588E",
"{+	c #71737B",
"]+	c #767667",
"^+	c #62616E",
"/+	c #4B4BA0",
"(+	c #4246B8",
"_+	c #4243AB",
":+	c #4B498F",
"<+	c #5C5B7E",
"[+	c #71716F",
"}+	c #797B6B",
"|+	c #757462",
"1+	c #686351",
"2+	c #584D3D",
"3+	c #875F35",
"4+	c #DCAF59",
"5+	c #F6A856",
"6+	c #F5C56B",
"7+	c #FECB34",
"8+	c #F0C062",
"9+	c #AA7943",
"0+	c #5E5645",
"a+	c #6A6554",
"b+	c #6C6958",
"c+	c #4E4F98",
"d+	c #3D45C2",
"e+	c #3C3E99",
"f+	c #4B4040",
"g+	c #6B6857",
"h+	c #7A7B6C",
"i+	c #494BA4",
"j+	c #4D4E98",
"k+	c #514A63",
"l+	c #514439",
"m+	c #594E3F",
"n+	c #676251",
"o+	c #706E5C",
"p+	c #747462",
"q+	c #777764",
"r+	c #72715E",
"s+	c #5F5747",
"t+	c #875F36",
"u+	c #DBAF58",
"v+	c #C86635",
"w+	c #765EB9",
"x+	c #5D57C0",
"y+	c #9F838E",
"z+	c #EABB60",
"A+	c #DEB15A",
"B+	c #9C6C36",
"C+	c #594F40",
"D+	c #65645F",
"E+	c #50559A",
"F+	c #3F47C8",
"G+	c #3D45C3",
"H+	c #3E47C5",
"I+	c #4145AC",
"J+	c #615F62",
"K+	c #4A4D84",
"L+	c #3E45BD",
"M+	c #4549B6",
"N+	c #444ABD",
"O+	c #4348BD",
"P+	c #4045AE",
"Q+	c #4B446A",
"R+	c #635B4B",
"S+	c #6A6654",
"T+	c #6E6C5B",
"U+	c #767765",
"V+	c #777765",
"W+	c #615C4C",
"X+	c #855E35",
"Y+	c #DAAE57",
"Z+	c #B7653C",
"`+	c #98727D",
" @	c #9D8261",
".@	c #8D736D",
"+@	c #74628E",
"@@	c #886E69",
"#@	c #584787",
"$@	c #4146BC",
"%@	c #3C43B4",
"&@	c #3C43BB",
"*@	c #4449B6",
"=@	c #59577F",
"-@	c #6A6555",
";@	c #706E5D",
">@	c #6F6E5E",
",@	c #5A5446",
"'@	c #815930",
")@	c #D9AD56",
"!@	c #AB623E",
"~@	c #826A4A",
"{@	c #625A48",
"]@	c #625945",
"^@	c #5E5447",
"/@	c #504862",
"(@	c #3C43B2",
"_@	c #4148C6",
":@	c #8382B9",
"<@	c #B4AEB1",
"[@	c #B2ACB1",
"}@	c #6365BD",
"|@	c #3E47C6",
"1@	c #3B41B1",
"2@	c #3C44BE",
"3@	c #3C44BF",
"4@	c #3C44BC",
"5@	c #3E44BC",
"6@	c #4047C6",
"7@	c #545190",
"8@	c #696556",
"9@	c #686656",
"0@	c #544C40",
"a@	c #7E562C",
"b@	c #D8AC56",
"c@	c #A85D38",
"d@	c #7C654A",
"e@	c #6A6553",
"f@	c #72715F",
"g@	c #605B5A",
"h@	c #3E46C2",
"i@	c #7776BA",
"j@	c #DAD2AC",
"k@	c #EEE5B0",
"l@	c #EFE5AF",
"m@	c #EEE5AF",
"n@	c #C7C1AD",
"o@	c #484EC7",
"p@	c #3E45C4",
"q@	c #3B42B3",
"r@	c #3F46C6",
"s@	c #3E46C4",
"t@	c #3C45C0",
"u@	c #3E46C5",
"v@	c #3C43BC",
"w@	c #63606D",
"x@	c #696758",
"y@	c #554D41",
"z@	c #7D552C",
"A@	c #D7AB55",
"B@	c #A75B34",
"C@	c #867665",
"D@	c #6B6856",
"E@	c #777766",
"F@	c #737262",
"G@	c #65615C",
"H@	c #3F46C4",
"I@	c #B4AFA5",
"J@	c #EDE4AE",
"K@	c #7171C0",
"L@	c #3F48C8",
"M@	c #3C42B8",
"N@	c #3D45C4",
"O@	c #3A42B6",
"P@	c #3B43BC",
"Q@	c #3E46C6",
"R@	c #4046CA",
"S@	c #3E45B7",
"T@	c #888AC2",
"U@	c #BEC0C5",
"V@	c #C4C6C5",
"W@	c #727470",
"X@	c #7D5731",
"Y@	c #D6AA54",
"Z@	c #A65B35",
"`@	c #795F41",
" #	c #666151",
".#	c #6D6A59",
"+#	c #635D50",
"@#	c #4046BE",
"##	c #6667C0",
"$#	c #EBE2AE",
"%#	c #8C89BA",
"&#	c #3941AE",
"*#	c #3E46C3",
"=#	c #3F46CA",
"-#	c #8E90C6",
";#	c #EEEFF2",
">#	c #F8F8F9",
",#	c #FFFFFF",
"'#	c #C0C1C2",
")#	c #7D5938",
"!#	c #D6A953",
"~#	c #785D3F",
"{#	c #635E4F",
"]#	c #6B695A",
"^#	c #6A6655",
"/#	c #625A4A",
"(#	c #4245B7",
"_#	c #5155C7",
":#	c #E1D8AF",
"<#	c #918EB9",
"[#	c #3E48CA",
"}#	c #3C44B9",
"|#	c #3D45C0",
"1#	c #3D44BF",
"2#	c #3D41AB",
"3#	c #5B617B",
"4#	c #AFB7B9",
"5#	c #C5C8C8",
"6#	c #7D5A39",
"7#	c #D4A853",
"8#	c #A55B35",
"9#	c #775D3F",
"0#	c #635E4E",
"a#	c #6B6959",
"b#	c #635B4A",
"c#	c #4048CA",
"d#	c #B0ABB2",
"e#	c #EEE4AF",
"f#	c #8784BD",
"g#	c #3E44B2",
"h#	c #4248BB",
"i#	c #4446A3",
"j#	c #4A4145",
"k#	c #6B726F",
"l#	c #A3B0AE",
"m#	c #FDFDFD",
"n#	c #F4F4F4",
"o#	c #77807F",
"p#	c #7B5837",
"q#	c #A45833",
"r#	c #73583A",
"s#	c #605949",
"t#	c #696554",
"u#	c #696453",
"v#	c #54473A",
"w#	c #4345A3",
"x#	c #B8B1AB",
"y#	c #E0D7AA",
"z#	c #D9CFA4",
"A#	c #C8C1A9",
"B#	c #5C5FC2",
"C#	c #737C7F",
"D#	c #7C8580",
"E#	c #78817C",
"F#	c #747E7A",
"G#	c #7E8B87",
"H#	c #8F9F99",
"I#	c #BBC1BF",
"J#	c #E6E7E6",
"K#	c #D6D9D8",
"L#	c #A1AFAD",
"M#	c #717A77",
"N#	c #7A5737",
"O#	c #D3A853",
"P#	c #A25630",
"Q#	c #6F5336",
"R#	c #5C5342",
"S#	c #66604E",
"T#	c #67614F",
"U#	c #615948",
"V#	c #544738",
"W#	c #4D4876",
"X#	c #464DC9",
"Y#	c #4F54C8",
"Z#	c #4D52C8",
"`#	c #484EC9",
" $	c #4148A3",
".$	c #6874AA",
"+$	c #93A6A4",
"@$	c #95A8A6",
"#$	c #94A8A6",
"$$	c #92A39E",
"%$	c #8F9C94",
"&$	c #93A19A",
"*$	c #9BADA9",
"=$	c #9CB0AE",
"-$	c #717B78",
";$	c #795737",
">$	c #D2A752",
",$	c #A35833",
"'$	c #725639",
")$	c #5E5443",
"!$	c #655E4C",
"~$	c #635B49",
"{$	c #5C5241",
"]$	c #514434",
"^$	c #544941",
"/$	c #54548A",
"($	c #3D44B8",
"_$	c #545EB4",
":$	c #6F7BA3",
"<$	c #93A6A6",
"[$	c #9BB1AF",
"}$	c #96A8A4",
"|$	c #8F9C93",
"1$	c #92A19A",
"2$	c #99ADAA",
"3$	c #9CB2B0",
"4$	c #95A8A7",
"5$	c #727C79",
"6$	c #785737",
"7$	c #D2A652",
"8$	c #A35A35",
"9$	c #735A3C",
"0$	c #5F5544",
"a$	c #5F5543",
"b$	c #574A39",
"c$	c #4F4030",
"d$	c #564D3F",
"e$	c #656467",
"f$	c #4046B6",
"g$	c #4347AF",
"h$	c #4449C4",
"i$	c #626A94",
"j$	c #4E56BE",
"k$	c #4149C8",
"l$	c #5B67B6",
"m$	c #8FA1A9",
"n$	c #9AAEAC",
"o$	c #95A6A2",
"p$	c #8D998F",
"q$	c #8F9D95",
"r$	c #97AAA6",
"s$	c #9AAFAC",
"t$	c #93A6A3",
"u$	c #775637",
"v$	c #D1A652",
"w$	c #A25733",
"x$	c #6F5437",
"y$	c #594E3D",
"z$	c #5D5342",
"A$	c #5B503E",
"B$	c #554837",
"C$	c #4F3F2F",
"D$	c #5C564B",
"E$	c #656982",
"F$	c #5156A2",
"G$	c #707172",
"H$	c #4F54A9",
"I$	c #4048C2",
"J$	c #4950B5",
"K$	c #737A8B",
"L$	c #8B958A",
"M$	c #8C968B",
"N$	c #6C75A0",
"O$	c #4751BF",
"P$	c #444BC6",
"Q$	c #7F90A9",
"R$	c #91A29D",
"S$	c #828A80",
"T$	c #848D83",
"U$	c #909E97",
"V$	c #94A49D",
"W$	c #8D9B95",
"X$	c #6D736D",
"Y$	c #775535",
"Z$	c #D0A551",
"`$	c #A05530",
" %	c #6B4E31",
".%	c #534535",
"+%	c #584C3A",
"@%	c #594D3B",
"#%	c #554836",
"$%	c #4D3D2E",
"%%	c #5D5850",
"&%	c #464BB4",
"*%	c #737A8E",
"=%	c #7F8270",
"-%	c #7A7C6A",
";%	c #787973",
">%	c #7A7E7D",
",%	c #828A83",
"'%	c #889084",
")%	c #899185",
"!%	c #8A9286",
"~%	c #87908E",
"{%	c #707AA0",
"]%	c #454CC7",
"^%	c #6E7AA5",
"/%	c #7F877D",
"(%	c #7E8478",
"_%	c #878F84",
":%	c #8B9589",
"<%	c #868F83",
"[%	c #696B61",
"}%	c #765432",
"|%	c #9F542F",
"1%	c #694D30",
"2%	c #524433",
"3%	c #574A38",
"4%	c #534635",
"5%	c #483829",
"6%	c #4F4B60",
"7%	c #4449C3",
"8%	c #747774",
"9%	c #767767",
"0%	c #787561",
"a%	c #7B755F",
"b%	c #7B7967",
"c%	c #7B7D6F",
"d%	c #7D7D6D",
"e%	c #807E6C",
"f%	c #838473",
"g%	c #858B7D",
"h%	c #8C988E",
"i%	c #6F7BA4",
"j%	c #434AC4",
"k%	c #707CA4",
"l%	c #859089",
"m%	c #7C8176",
"n%	c #7F8374",
"o%	c #656457",
"p%	c #745230",
"q%	c #CFA451",
"r%	c #6A4D32",
"s%	c #55493A",
"t%	c #5D5443",
"u%	c #594F3F",
"v%	c #4E4338",
"w%	c #474892",
"x%	c #434BBA",
"y%	c #6D6B5E",
"z%	c #6E6A59",
"A%	c #736C58",
"B%	c #797059",
"C%	c #77725D",
"D%	c #747261",
"E%	c #787461",
"F%	c #7D7763",
"G%	c #7D7B67",
"H%	c #7E8170",
"I%	c #858A7C",
"J%	c #888F82",
"K%	c #5A62B2",
"L%	c #454CC6",
"M%	c #808C92",
"N%	c #787B6E",
"O%	c #787764",
"P%	c #7A7965",
"Q%	c #625D4D",
"R%	c #72502E",
"S%	c #CEA451",
"T%	c #9E532E",
"U%	c #844731",
"V%	c #6A4F42",
"W%	c #656152",
"X%	c #676354",
"Y%	c #615E5D",
"Z%	c #4A4DA1",
"`%	c #3F47C7",
" &	c #545479",
".&	c #6C6756",
"+&	c #6D634D",
"@&	c #746C55",
"#&	c #7C7963",
"$&	c #7D7C67",
"%&	c #7C7D6A",
"&&	c #818575",
"*&	c #848879",
"=&	c #7B7D6E",
"-&	c #767463",
";&	c #7C7765",
">&	c #7D7A68",
",&	c #5A61A9",
"'&	c #4148CA",
")&	c #747D98",
"!&	c #7D8070",
"~&	c #7B7762",
"{&	c #615542",
"]&	c #714F2C",
"^&	c #CEA351",
"/&	c #9C512D",
"(&	c #D72727",
"_&	c #E22429",
":&	c #D62D2E",
"<&	c #993A76",
"[&	c #4448C1",
"}&	c #4147C1",
"|&	c #5F5D7F",
"1&	c #696454",
"2&	c #69614E",
"3&	c #6C604A",
"4&	c #736C57",
"5&	c #7A7A66",
"6&	c #7C7E6C",
"7&	c #818778",
"8&	c #828A7D",
"9&	c #7A7E70",
"0&	c #757463",
"a&	c #7B7663",
"b&	c #7A7460",
"c&	c #706A59",
"d&	c #B53F51",
"e&	c #C92B66",
"f&	c #B64B5A",
"g&	c #C64D46",
"h&	c #CA453D",
"i&	c #C0473D",
"j&	c #5F5340",
"k&	c #6E4D2B",
"l&	c #CCA251",
"m&	c #9B502B",
"n&	c #6E4129",
"o&	c #97372C",
"p&	c #A44135",
"q&	c #AB424D",
"r&	c #56529F",
"s&	c #6B656C",
"t&	c #71654D",
"u&	c #64543E",
"v&	c #625541",
"w&	c #6A6452",
"x&	c #6F6C5B",
"y&	c #727161",
"z&	c #737362",
"A&	c #757767",
"B&	c #77796B",
"C&	c #7A7B6A",
"D&	c #7E806F",
"E&	c #85897A",
"F&	c #818274",
"G&	c #6F6654",
"H&	c #B3433A",
"I&	c #EC1E26",
"J&	c #ED1D26",
"K&	c #E4262A",
"L&	c #5B5344",
"M&	c #704F2E",
"N&	c #CCA250",
"O&	c #AA562C",
"P&	c #A46F34",
"Q&	c #9E7B40",
"R&	c #A58436",
"S&	c #A88B57",
"T&	c #AB8456",
"U&	c #AE8C55",
"V&	c #AC864A",
"W&	c #A57C3C",
"X&	c #A46B37",
"Y&	c #A98E5B",
"Z&	c #AA9260",
"`&	c #AA8458",
" *	c #AA9160",
".*	c #AA9172",
"+*	c #AB9355",
"@*	c #AF9867",
"#*	c #B39F70",
"$*	c #B7A67D",
"%*	c #B49571",
"&*	c #AB8854",
"**	c #A87B43",
"=*	c #BB6141",
"-*	c #D94F3B",
";*	c #DD4E3A",
">*	c #CA5A42",
",*	c #B7835A",
"'*	c #A58B58",
")*	c #AC763A",
"!*	c #DDB057",
"~*	c #FFCC99",
"  . + @ # @ @ + $ $ % @ @ @ & * = - ; > , ' + $ + @ @ @ + @ @ @ ",
"  . + @ # @ @ + $ $ ) ! ~ { ] ^ ^ ^ / ( _ : < [ } | | | 1 2 3 4 ",
"  . + @ # @ @ + 5 6 7 8 9 0 a b c d e f @ g h i j k k l m i n o ",
"  . + @ # @ @ p q ^ ^ ^ ^ r ^ ^ s t @ u v w x y z A B A C D E F ",
"  . + @ # @ @ G H I J K L M N O P Q R S T U H V W X Y Z `  ...+.",
"  . + @ # @ @ @.#.$.%.&.*.=.-.;.>.,.'.).!.~.{.].^./.(._.:.<.[.}.",
"  . + @ # @ @ |.1.2.3.4.5.6.7.8.9.0.a.b.c.d.d.e.f.g.h.i.j.k.l.}.",
"  . + @ # @ ' m.^ n.o.p.q.r.^ r s.t.u.v.w.x.y.z.A.B.C.D.E.F.G.H.",
"  . + @ # @ I.J.K.L.M.N.O.P.Q.R.S.T.U.V.W.X.Y.Z.`. +.+++@+#+$+%+",
"  . + @ # @ &+*+=+-+;+>+,+'+)+!+~+{+]+^+/+(+_+:+<+[+}+|+1+2+3+4+",
"  . 5+6+7+@ 8+9+0+a+b+c+H d+e+f+g+h+ +i+j+k+l+m+n+o+p+q+r+s+t+u+",
"  v+w+x+y+z+A+B+C+D+E+9.F+G+H+I+J+K+L+M+N+O+P+Q+R+S+T+U+V+W+X+Y+",
"  Z+`+ @.@+@@@#@$@U ^ ^ ^ ^ ^ U %@&@U U U H ^ H *@=@-@;@>@,@'@)@",
"  !@~@{@]@^@/@(@^ ^ _@:@<@[@}@H F+|@1@2@3@4@5@4@U 6@7@8@9@0@a@b@",
"  c@d@e@f@T+g@h@^ i@j@k@l@m@n@o@^ p@q@r@s@t@d.u@v@U 6@w@x@y@z@A@",
"  B@C@D@E@F@G@H@^ I@l@l@l@l@J@K@^ r L@M@N@O@P@Q@R@S@T@U@V@W@X@Y@",
"  Z@`@ #>@.#+#@#^ ##$#l@l@l@l@%#^ ^ U &#*#=#Q@h@-#;#>#,#,#'#)#!#",
"  Z@~#{#]#^#/#(#^ _#:#l@l@l@l@<#[#^ U }#|#1#2#3#4#,#,#,#,#5#6#7#",
"  8#9#0#a#^#b#c.U c#d#e#l@l@l@f#^ ^ H g#h#i#j#k#l#m#,#,#n#o#p#7#",
"  q#r#s#t#u#b#v#w#^ F+x#y#z#A#B#^ ^ 5@C#D#E#F#G#H#I#J#K#L#M#N#O#",
"  P#Q#R#S#T#U#V#W#H ^ X#Y#Z#`#>.^ u@ $.$+$@$#$$$%$&$*$=$#$-$;$>$",
"  ,$'$)$!$~${$]$^$/$($u@^ ^ ^ ^ H a _$:$<$[$[$}$|$1$2$3$4$5$6$7$",
"  8$9$0$~$a$b$c$d$e$f$g$^ ^ ^ ^ h$i$j$k$l$m$n$o$p$q$r$s$t$M#u$v$",
"  w$x$y$z$A$B$C$D$E$F$G$H$I$F+J$K$L$M$N$O$P$Q$R$S$T$U$V$W$X$Y$Z$",
"  `$ %.%+%@%#%$%%%&%*%=%-%;%>%,%'%)%!%(.~%{%]%^%/%(%_%:%<%[%}%Z$",
"  |%1%2%3%+%4%5%6%7%8%9%0%a%b%c%d%e%f%g%!%h%i%j%k%l%m%n%n%o%p%q%",
"  |%r%s%R#t%u%v%w%x%y%z%A%B%C%D%E%F%G%H%I%J%'%K%L%M%N%O%P%Q%R%S%",
"  T%U%V%W%X%Y%Z%`% &.&+&@&#&$&%&&&*&=&-&;&>&h+,&'&)&!&~&B%{&]&^&",
"  /&(&_&:&<&[&}&|&1&2&3&4&5&%&6&7&8&9&0&a&b&c&d&e&f&g&h&i&j&k&l&",
"  m&n&o&p&q&r&s&t&u&v&w&x&y&z&j.A&B&C&D&E&F&G&H&I&J&J&J&K&L&M&N&",
"  O&P&Q&R&S&T&U&V&W&X&Y&Z&`& * *.*+*@*#*$*%*&***=*-*;*>*,*'*)*!*",
"  . + @ # @ + $ $ $ % @ @ + @ @ ~*# @ @ @ + $ $ + @ @ + @ @ + @ "};
