/* XPM */
static char * character_right_xpm[] = {
"32 32 15 1",
" 	c #663300",
".	c #CC6633",
"+	c #FFAE4C",
"@	c #FFCC66",
"#	c #FFCC33",
"$	c #FFC054",
"%	c #FF9933",
"&	c #FFCC99",
"*	c #000000",
"=	c #7A3A2A",
"-	c #8C4C38",
";	c #5E2C1D",
">	c #361914",
",	c #CF936B",
"'	c #DEBAA2",
" .+@#@@+$$%@@@+@&#@@@@+$+@@@+@@@",
" .+@#@@+$$%@@@+@&#@@@+$$+@@@+@@@",
" .+@#@@+$$%@@@+@&#@@@+$$+@@@+@@@",
" .+@#@@+$$%@@@+@&#@@@+$$+@@@+@@@",
" .+@#@@+$$%@@+@@&#@@@+$$+@@@+@@@",
" .+@#@@+$$%@@+@@&#@@@+$$+@@@+@@@",
" .+@#@@+$$%@@+@@&#@@@+$$+@@@+@@@",
" .+@#@@+$$%@@+@@&#@@@@+$+@@@+@@+",
" .+@#@@+$$%@@+@@&#@@@@+$+@@@+@@+",
" .+@#@@+$$%@*+*@**@@@@+$+@@@+@+@",
" .+@#@@+$*%*=*-*-=*@*@+$+@@@+@+@",
" .+@#@@+*=*=;=-;=;=*-*+$+@@@+@+@",
" .+@#@@*--=--=-=;-;-;=*$+@@@+@+@",
" .+@#@*;=;;=;-;-=;=;-;=*+@@@+@+@",
" .+@#*>=;-=;==;=>=>=>;>>*@@@+@+@",
" .+@#@*;=;;=;>;>;>;>;>***@@@+@+@",
" .+@#*;>;==;>;>;;>>***,,,*@@+@+@",
" .+@#@*;>;>>;;>;>**,,,'*'*@@+@+@",
" .+@#*>>;>;;>;>**,,''''*'*@@+@+@",
" .+@#@*;>******,,''''''''=*+@@+@",
" .+@#@@**,,,,,,,,,,,,,,***@+@@+@",
" .+@#@@+*---*>>>*--*>>*$$+@+@@+@",
" .+@#@@+$***@***&**@**+$$+@+@@+@",
" .+@#@@+$$%@@+@@&#@@@@+$$+@+@@+@",
" .+@#@@+$$%@@+@@&#@@@@+$$+@+@@+@",
" .+@#@@+$$%@@+@@&#@@@@+$$+@+@@+@",
" .+@#@@+$$%@@+@@&#@@@@+$$+@+@@+@",
" .+@#@@+$$%@@+@@&#@@@+$$$+@+@@+@",
" .+@#@@+$$%@@+@@&#@@@+$$$+@+@@+@",
" .+@#@+$$$%@@+@@&#@@@+$$+@@+@@+@",
" .+@#@+$$$%@@+@@&#@@@+$$+@@+@@+@",
" .+@#@+$$$%@@+@@&#@@@+$$+@@+@@+@"};
