/* XPM */
static char * collectible_test_xpm[] = {
"32 32 58 1",
" 	c #FFFFFF",
".	c #A9A9A9",
"+	c #888888",
"@	c #BBBBBB",
"#	c #F4F4F4",
"$	c #5E5E5E",
"%	c #1C1C1C",
"&	c #464646",
"*	c #7B7B7B",
"=	c #575757",
"-	c #606060",
";	c #0B0B0B",
">	c #3E3E3E",
",	c #000000",
"'	c #252525",
")	c #6D6D6D",
"!	c #0E0E0E",
"~	c #373737",
"{	c #3D3D3D",
"]	c #E8E8E8",
"^	c #797979",
"/	c #8A8A8A",
"(	c #2A2A2A",
"_	c #101010",
":	c #626262",
"<	c #4F4F4F",
"[	c #DDDDDD",
"}	c #060606",
"|	c #2B2B2B",
"1	c #141414",
"2	c #6F6F6F",
"3	c #181818",
"4	c #4E4E4E",
"5	c #1F1F1F",
"6	c #111111",
"7	c #707070",
"8	c #131313",
"9	c #828282",
"0	c #2F2F2F",
"a	c #BFBFBF",
"b	c #020202",
"c	c #AAAAAA",
"d	c #9A9A9A",
"e	c #BEBEBE",
"f	c #585858",
"g	c #ADADAD",
"h	c #040404",
"i	c #D3D3D3",
"j	c #0C0C0C",
"k	c #595959",
"l	c #B8B8B8",
"m	c #A2A2A2",
"n	c #5F5F5F",
"o	c #535353",
"p	c #999999",
"q	c #4C4C4C",
"r	c #434343",
"s	c #383838",
"                                ",
"                                ",
"               .+@              ",
"             #$%&*=             ",
"             -;>,')             ",
"             *!~==,             ",
"             +{] ^,             ",
"             +{] ^,             ",
"             +,  ^,             ",
"             /'  ^)]            ",
"             '(  .{]            ",
"             _-  =:@            ",
"            <,[   +{]           ",
"           ]}'    @=,]          ",
"          @|1]     ]23          ",
"          4,+        51]        ",
"          |6]        78]        ",
"          ,4         90]        ",
"         ],.  ]]]]]] *,         ",
"         abc.3,,,,,,,23         ",
"         d,e:f     ++gh         ",
"         *,i{c     ++ij.        ",
"         k,]=4     ++dj]        ",
"         k,@+*lmcc*++i'@        ",
"         k,*@@no=={++i'@        ",
"         @,p         ],+        ",
"         @,q@@       ]{+        ",
"         ]r,(%(~~~~~'h3^        ",
"           @*f>~~~~~'sd]        ",
"                                ",
"                                ",
"                                "};
