/* XPM */
static char * ennemy_left_xpm[] = {
"32 32 18 1",
" 	c #663300",
".	c #CC6633",
"+	c #FFAE4C",
"@	c #FFCC66",
"#	c #FFCC33",
"$	c #FFC054",
"%	c #FF9933",
"&	c #FFCC99",
"*	c #000000",
"=	c #82472B",
"-	c #A15A39",
";	c #62321C",
">	c #D76969",
",	c #AE1F1F",
"'	c #3A1D0F",
")	c #BC9569",
"!	c #AE8456",
"~	c #DBAF7F",
" .+@#@@+$$%@@@+@&#@@@@+$+@@@+@@@",
" .+@#@@+$$%@@@+@&#@@@+$$+@@@+@@@",
" .+@#@@+$$%@@@+@&#@@@+$$+@@@+@@@",
" .+@#@@+$$%@@@+@&#@@@+$$+@@@+@@@",
" .+@#@@+$$%@@+@@&#@@@+$$+@@@+@@@",
" .+@#@@+$$%@@+@@&#@@@+$$+@@@+@@@",
" .+@#@@+$$%@@+@@&#@@@+$$+@@@+@@@",
" .+@#@@+$$%@@+@@&#@@@@+$+@@@+@@+",
" .+@#@@+$$%@@+@@&#@@@@+$+@@@+@@+",
" .+@#@@+$$%@@+@@&#@@@@+$+@@@+@+@",
" .+@#@@+$$%@@+@@&#@@@@+$+@@@+@+@",
" .+@#@@+$$%@@+@@&#@@@@+$+@@@+@+@",
" .+@#@@+$$%@@+@@&#@@@@+$+@@@+@+@",
" .+@#@@+$$%@@+@@&#@@@@+$+@@@+@+@",
" .+@#@@+$$%@@+@@&#@@@@+$+@@@+@+@",
" .+@#@@+$$%@@+@@&#@@@@+$+@@@+@+@",
" .+@#@@+$$%@@+@@&#@*******@@+@+@",
" .+@#@@+$$%@@+@@&**=----==**+@+@",
" .+@#@@+$$****@@*;=------===*@+@",
" .+@#@@+$*>,=;**;=---------==*+@",
" .+@#@@+$*--==;';;====------=*+@",
" .+@#@@+$*;=*********;=-----=*+@",
" .+@#@@+$$**)!!*!!!))*;=--==;*+@",
" .+@#@@+$$*)*)*@**)**)*;==;;*@+@",
" .+@#@@+$*~**~*@&*~*;*~*;;**@@+@",
" .+@#@@+*~**~*@@&#*~*;*~**@+@@+@",
" .+@#@@+*)**)*@@&#*)***)*+@+@@+@",
" .+@#@@+$*%@*+@@&#@*@+$*$+@+@@+@",
" .+@#@@+$$%@@+@@&#@@@+$$$+@+@@+@",
" .+@#@+$$$%@@+@@&#@@@+$$+@@+@@+@",
" .+@#@+$$$%@@+@@&#@@@+$$+@@+@@+@",
" .+@#@+$$$%@@+@@&#@@@+$$+@@+@@+@"};
