/* XPM */
static char * exit_stairs_right_xpm[] = {
"32 32 558 2",
"  	c #663300",
". 	c #CC6633",
"+ 	c #FFAE4C",
"@ 	c #FFCC66",
"# 	c #FFCC33",
"$ 	c #FFC054",
"% 	c #FF9933",
"& 	c #FFCC99",
"* 	c #EAA149",
"= 	c #BD9047",
"- 	c #A47D40",
"; 	c #A47138",
"> 	c #A38144",
", 	c #A47139",
"' 	c #A48449",
") 	c #BF9A52",
"! 	c #ECBD60",
"~ 	c #E09A47",
"{ 	c #8F703F",
"] 	c #595042",
"^ 	c #605B4E",
"/ 	c #615D51",
"( 	c #615D52",
"_ 	c #5F594E",
": 	c #927644",
"< 	c #E1B45C",
"[ 	c #DE9844",
"} 	c #8B6A3B",
"| 	c #646155",
"1 	c #7B8075",
"2 	c #81887D",
"3 	c #80877C",
"4 	c #7A7F75",
"5 	c #636055",
"6 	c #8C7041",
"7 	c #DFB25A",
"8 	c #FDAD4C",
"9 	c #F0C163",
"0 	c #DFB45F",
"a 	c #DAAF83",
"b 	c #D9AD2F",
"c 	c #D9AD57",
"d 	c #DAAE58",
"e 	c #BE813B",
"f 	c #7A5C34",
"g 	c #656357",
"h 	c #82897C",
"i 	c #8C9588",
"j 	c #8C968A",
"k 	c #8B9588",
"l 	c #666458",
"m 	c #8C6F3F",
"n 	c #DFB259",
"o 	c #FBAC4C",
"p 	c #D5AD5E",
"q 	c #9C8352",
"r 	c #856F56",
"s 	c #846A34",
"t 	c #83683E",
"u 	c #84693D",
"v 	c #82683C",
"w 	c #74502D",
"x 	c #543F29",
"y 	c #5D594B",
"z 	c #7B7D6D",
"A 	c #878E80",
"B 	c #8A9388",
"C 	c #7C7E6E",
"D 	c #635D4E",
"E 	c #8B6F3F",
"F 	c #DEB159",
"G 	c #FCAC4C",
"H 	c #CAA357",
"I 	c #736449",
"J 	c #656255",
"K 	c #6A6A5E",
"L 	c #686557",
"M 	c #615B4B",
"N 	c #574B3C",
"O 	c #4C3C2D",
"P 	c #463629",
"Q 	c #585041",
"R 	c #716F5E",
"S 	c #818678",
"T 	c #899286",
"U 	c #83897B",
"V 	c #747463",
"W 	c #5E5747",
"X 	c #8A6E3E",
"Y 	c #FECB66",
"Z 	c #F9BC53",
"` 	c #F9BB53",
" .	c #F89533",
"..	c #F8C764",
"+.	c #FAC864",
"@.	c #F4A74A",
"#.	c #C29B4F",
"$.	c #6F5D42",
"%.	c #717368",
"&.	c #83897D",
"*.	c #808474",
"=.	c #747361",
"-.	c #625B49",
";.	c #534534",
">.	c #4D3D2F",
",.	c #564B3B",
"'.	c #676352",
").	c #7B7E71",
"!.	c #878F83",
"~.	c #7E8376",
"{.	c #6C6B5C",
"].	c #5A5142",
"^.	c #896D3E",
"/.	c #DD9744",
"(.	c #F8C765",
"_.	c #DC9A4D",
":.	c #C7994F",
"<.	c #C39448",
"[.	c #C37731",
"}.	c #C39B50",
"|.	c #C49D51",
"1.	c #BF843F",
"2.	c #99783E",
"3.	c #5D4D38",
"4.	c #6F7063",
"5.	c #83897A",
"6.	c #7F8272",
"7.	c #727160",
"8.	c #625B4A",
"9.	c #554837",
"0.	c #524332",
"a.	c #5A4F3F",
"b.	c #686454",
"c.	c #787A6B",
"d.	c #828778",
"e.	c #787B6B",
"f.	c #676353",
"g.	c #574C3D",
"h.	c #886C3D",
"i.	c #DC9644",
"j.	c #F1C163",
"k.	c #B6844B",
"l.	c #776649",
"m.	c #6E5D42",
"n.	c #6D543B",
"o.	c #6D5A3D",
"p.	c #000000",
"q.	c #695035",
"r.	c #4C3D30",
"s.	c #777766",
"t.	c #6B6959",
"u.	c #605848",
"v.	c #574B39",
"w.	c #544635",
"x.	c #5C5343",
"y.	c #6A6757",
"z.	c #767665",
"A.	c #7B7D6B",
"B.	c #757462",
"C.	c #686351",
"D.	c #584D3D",
"E.	c #875F35",
"F.	c #DCAF59",
"G.	c #F0C062",
"H.	c #AA7943",
"I.	c #5E5645",
"J.	c #6C6958",
"K.	c #7A3A2A",
"L.	c #8C4C38",
"M.	c #5C5240",
"N.	c #534535",
"O.	c #594E3F",
"P.	c #676251",
"Q.	c #706E5C",
"R.	c #747462",
"S.	c #777764",
"T.	c #72715E",
"U.	c #5F5747",
"V.	c #875F36",
"W.	c #DBAF58",
"X.	c #C86635",
"Y.	c #F1A64C",
"Z.	c #EEBF61",
"`.	c #EEBF33",
" +	c #F0C061",
".+	c #DEB15A",
"++	c #9C6C36",
"@+	c #5E2C1D",
"#+	c #524535",
"$+	c #574A3B",
"%+	c #645C4B",
"&+	c #6A6654",
"*+	c #6E6C5B",
"=+	c #767765",
"-+	c #777765",
";+	c #615C4C",
">+	c #855E35",
",+	c #DAAE57",
"'+	c #B7653C",
")+	c #BA874D",
"!+	c #A98B50",
"~+	c #A98734",
"{+	c #AA8849",
"]+	c #9D7D44",
"^+	c #584D3C",
"/+	c #635C4A",
"(+	c #686250",
"_+	c #6A6554",
":+	c #706E5D",
"<+	c #6F6E5E",
"[+	c #5A5446",
"}+	c #815930",
"|+	c #D9AD56",
"1+	c #AB623E",
"2+	c #826A4A",
"3+	c #625A48",
"4+	c #625945",
"5+	c #605543",
"6+	c #645E4C",
"7+	c #67614E",
"8+	c #67604E",
"9+	c #6A6655",
"0+	c #686656",
"a+	c #544C40",
"b+	c #7E562C",
"c+	c #D8AC56",
"d+	c #A85D38",
"e+	c #7A6244",
"f+	c #6A6553",
"g+	c #72715F",
"h+	c #361914",
"i+	c #676250",
"j+	c #6B6757",
"k+	c #696758",
"l+	c #554D41",
"m+	c #7D552C",
"n+	c #D7AB55",
"o+	c #A75B34",
"p+	c #796040",
"q+	c #6B6856",
"r+	c #737262",
"s+	c #7C837A",
"t+	c #7A8178",
"u+	c #818983",
"v+	c #7F8885",
"w+	c #636560",
"x+	c #7D5731",
"y+	c #D6AA54",
"z+	c #A65B35",
"A+	c #795F40",
"B+	c #666151",
"C+	c #CF936B",
"D+	c #94A5A2",
"E+	c #9DB0B2",
"F+	c #9CB0B4",
"G+	c #768083",
"H+	c #7D5938",
"I+	c #D6A953",
"J+	c #785D3F",
"K+	c #635E4F",
"L+	c #6B695A",
"M+	c #DEBAA2",
"N+	c #98AAA6",
"O+	c #A1B5B6",
"P+	c #A0B5B9",
"Q+	c #798587",
"R+	c #7D5A39",
"S+	c #D4A853",
"T+	c #A55B35",
"U+	c #775D3F",
"V+	c #635E4E",
"W+	c #919F97",
"X+	c #97A9A4",
"Y+	c #96A9A8",
"Z+	c #737D7C",
"`+	c #7B5837",
" @	c #A45833",
".@	c #73583A",
"+@	c #605949",
"@@	c #696554",
"#@	c #696453",
"$@	c #97A9A5",
"%@	c #93A6A4",
"&@	c #717A77",
"*@	c #7A5737",
"=@	c #D3A853",
"-@	c #A25630",
";@	c #6F5336",
">@	c #5C5342",
",@	c #66604E",
"'@	c #67614F",
")@	c #615948",
"!@	c #98ABA7",
"~@	c #9BB0AE",
"{@	c #94A8A6",
"]@	c #717B78",
"^@	c #795737",
"/@	c #D2A752",
"(@	c #A35833",
"_@	c #725639",
":@	c #5E5443",
"<@	c #655E4C",
"[@	c #635B49",
"}@	c #5C5241",
"|@	c #514434",
"1@	c #96A8A4",
"2@	c #8F9C93",
"3@	c #92A19A",
"4@	c #99ADAA",
"5@	c #9CB2B0",
"6@	c #95A8A7",
"7@	c #727C79",
"8@	c #785737",
"9@	c #D2A652",
"0@	c #A35A35",
"a@	c #735A3C",
"b@	c #5F5544",
"c@	c #5F5543",
"d@	c #574A39",
"e@	c #4F4030",
"f@	c #564D3F",
"g@	c #665F4D",
"h@	c #74796F",
"i@	c #9AAEAC",
"j@	c #95A6A2",
"k@	c #8D998F",
"l@	c #8F9D95",
"m@	c #97AAA6",
"n@	c #9AAFAC",
"o@	c #93A6A3",
"p@	c #775637",
"q@	c #D1A652",
"r@	c #A25733",
"s@	c #6F5437",
"t@	c #594E3D",
"u@	c #5D5342",
"v@	c #5B503E",
"w@	c #4F3F2F",
"x@	c #5C564B",
"y@	c #767A6F",
"z@	c #7E8375",
"A@	c #787967",
"B@	c #74725F",
"C@	c #71705E",
"D@	c #717264",
"E@	c #757A70",
"F@	c #828A80",
"G@	c #8B958A",
"H@	c #8C968B",
"I@	c #8D988E",
"J@	c #909E96",
"K@	c #94A5A0",
"L@	c #98ACA9",
"M@	c #91A29D",
"N@	c #848D83",
"O@	c #909E97",
"P@	c #94A49D",
"Q@	c #8D9B95",
"R@	c #6D736D",
"S@	c #775535",
"T@	c #D0A551",
"U@	c #A05530",
"V@	c #6B4E31",
"W@	c #584C3A",
"X@	c #594D3B",
"Y@	c #554836",
"Z@	c #4D3D2E",
"`@	c #5E594F",
" #	c #7C8277",
".#	c #848B7E",
"+#	c #7F8270",
"@#	c #7C7D69",
"##	c #7D7E6B",
"$#	c #818576",
"%#	c #858D81",
"&#	c #889084",
"*#	c #899185",
"=#	c #8A9286",
"-#	c #8B9488",
";#	c #909D94",
">#	c #95A7A2",
",#	c #8F9E99",
"'#	c #7F877D",
")#	c #7E8478",
"!#	c #878F84",
"~#	c #8B9589",
"{#	c #868F83",
"]#	c #696B61",
"^#	c #765432",
"/#	c #9F542F",
"(#	c #694D30",
"_#	c #524433",
":#	c #574A38",
"<#	c #534635",
"[#	c #483829",
"}#	c #544D42",
"|#	c #707266",
"1#	c #797C6E",
"2#	c #767767",
"3#	c #787561",
"4#	c #7B755F",
"5#	c #7B7967",
"6#	c #7B7D6F",
"7#	c #7D7D6D",
"8#	c #807E6C",
"9#	c #838473",
"0#	c #858B7D",
"a#	c #8D998E",
"b#	c #909E95",
"c#	c #909F98",
"d#	c #8D9C96",
"e#	c #859089",
"f#	c #7C8176",
"g#	c #7F8374",
"h#	c #656457",
"i#	c #745230",
"j#	c #CFA451",
"k#	c #6A4D32",
"l#	c #55493A",
"m#	c #5D5443",
"n#	c #594F3F",
"o#	c #4F4437",
"p#	c #544D41",
"q#	c #666456",
"r#	c #6E6C5D",
"s#	c #6E6A59",
"t#	c #736C58",
"u#	c #797059",
"v#	c #77725D",
"w#	c #747261",
"x#	c #787461",
"y#	c #7D7763",
"z#	c #7D7B67",
"A#	c #7E8170",
"B#	c #858A7C",
"C#	c #888F82",
"D#	c #8D9991",
"E#	c #94A4A0",
"F#	c #8B9891",
"G#	c #787B6E",
"H#	c #787764",
"I#	c #7A7965",
"J#	c #625D4D",
"K#	c #72502E",
"L#	c #CEA451",
"M#	c #9E532E",
"N#	c #6A4F34",
"O#	c #5C5446",
"P#	c #666253",
"Q#	c #686455",
"R#	c #635F51",
"S#	c #646154",
"T#	c #6A685A",
"U#	c #6C6756",
"V#	c #6D634D",
"W#	c #746C55",
"X#	c #7C7963",
"Y#	c #7D7C67",
"Z#	c #7C7D6A",
"`#	c #818575",
" $	c #848879",
".$	c #7B7D6E",
"+$	c #767463",
"@$	c #7C7765",
"#$	c #7D7A68",
"$$	c #7A7B6C",
"%$	c #80887D",
"&$	c #8D9890",
"*$	c #899389",
"=$	c #7D8070",
"-$	c #7B7762",
";$	c #615542",
">$	c #714F2C",
",$	c #CEA351",
"'$	c #9C512D",
")$	c #644A32",
"!$	c #5D5445",
"~$	c #696454",
"{$	c #6C6A5A",
"]$	c #6E6C5C",
"^$	c #6F6C5B",
"/$	c #6E6958",
"($	c #69614E",
"_$	c #6C604A",
":$	c #736C57",
"<$	c #7A7A66",
"[$	c #7C7E6C",
"}$	c #818778",
"|$	c #828A7D",
"1$	c #7A7E70",
"2$	c #757463",
"3$	c #7B7663",
"4$	c #7A7460",
"5$	c #706A59",
"6$	c #737365",
"7$	c #80867B",
"8$	c #82887B",
"9$	c #7C7E6D",
"0$	c #7C7863",
"a$	c #787059",
"b$	c #6E4D2B",
"c$	c #CCA251",
"d$	c #9B502B",
"e$	c #62452A",
"f$	c #574533",
"g$	c #655743",
"h$	c #756D58",
"i$	c #71654D",
"j$	c #64543E",
"k$	c #625541",
"l$	c #6A6452",
"m$	c #727161",
"n$	c #737362",
"o$	c #757767",
"p$	c #77796B",
"q$	c #7A7B6A",
"r$	c #7E806F",
"s$	c #85897A",
"t$	c #818274",
"u$	c #6F6654",
"v$	c #6A604E",
"w$	c #737163",
"x$	c #757768",
"y$	c #797865",
"z$	c #7A7764",
"A$	c #635D4C",
"B$	c #704F2E",
"C$	c #CCA250",
"D$	c #AA562C",
"E$	c #A46F34",
"F$	c #9E7B40",
"G$	c #A58436",
"H$	c #A88B57",
"I$	c #AB8456",
"J$	c #AE8C55",
"K$	c #AC864A",
"L$	c #A57C3C",
"M$	c #A46B37",
"N$	c #A98E5B",
"O$	c #AA9260",
"P$	c #AA8458",
"Q$	c #AA9160",
"R$	c #AA9172",
"S$	c #AB9355",
"T$	c #AF9867",
"U$	c #B39F70",
"V$	c #B7A67D",
"W$	c #B49571",
"X$	c #AB8854",
"Y$	c #A78146",
"Z$	c #A98052",
"`$	c #AB9160",
" %	c #AB9260",
".%	c #AE8A5F",
"+%	c #B19968",
"@%	c #A58B58",
"#%	c #AC763A",
"$%	c #DDB057",
"  . + @ # @ @ + $ $ % @ @ @ + @ & # @ @ @ @ + $ + @ @ @ + @ @ @ ",
"  . + @ # @ @ + $ $ % @ @ @ + @ & # @ @ @ * = - ; > > > , ' ) ! ",
"  . + @ # @ @ + $ $ % @ @ @ + @ & # @ @ @ ~ { ] ^ / / ( _ ] : < ",
"  . + @ # @ @ + $ $ % @ @ @ + @ & # @ @ @ [ } | 1 2 3 2 4 5 6 7 ",
"  . + @ # @ @ + $ $ % @ @ 8 9 0 a b c d d e f g h i j k h l m n ",
"  . + @ # @ @ + $ $ % @ @ o p q r s t u v w x y z A B A C D E F ",
"  . + @ # @ @ + $ $ % @ @ G H I J K L M N O P Q R S T U V W X F ",
"  . + @ # @ Y o Z `  ...+.@.#.$.%.&.*.=.-.;.>.,.'.).!.~.{.].^./.",
"  . + @ # @ (._.:.<.[.}.|.1.2.3.4.5.6.7.8.9.0.a.b.c.d.e.f.g.h.i.",
"  . + @ # @ j.k.l.m.n.o.p.q.p.r.p.p.s.t.u.v.w.x.y.z.A.B.C.D.E.F.",
"  . + @ # @ G.H.I.p.J.p.K.p.L.p.L.K.p.t.p.M.N.O.P.Q.R.S.T.U.V.W.",
"  X.Y.Z.`. +.+++p.K.p.K.@+K.L.@+K.@+K.p.L.p.#+$+%+&+*+=+-+;+>+,+",
"  '+)+!+~+{+]+p.L.L.K.L.L.K.L.K.@+L.@+L.@+K.p.^+/+(+_+:+<+[+}+|+",
"  1+2+3+4+5+p.@+K.@+@+K.@+L.@+L.K.@+K.@+L.@+K.p.6+7+8+9+0+a+b+c+",
"  d+e+f+g+p.h+K.@+L.K.@+K.K.@+K.h+K.h+K.h+@+h+h+p.9+i+j+k+l+m+n+",
"  o+p+q+s.r+p.@+K.@+@+K.@+h+@+h+@+h+@+h+@+h+p.p.p.s+t+u+v+w+x+y+",
"  z+A+B+<+p.@+h+@+K.K.@+h+@+h+@+@+h+h+p.p.p.C+C+C+p.D+E+F+G+H+I+",
"  z+J+K+L+9+p.@+h+@+h+h+@+@+h+@+h+p.p.C+C+C+M+p.M+p.N+O+P+Q+R+S+",
"  T+U+V+t.p.h+h+@+h+@+@+h+@+h+p.p.C+C+M+M+M+M+p.M+p.W+X+Y+Z+`+S+",
"   @.@+@@@#@p.@+h+p.p.p.p.p.p.C+C+M+M+M+M+M+M+M+M+K.p.$@%@&@*@=@",
"  -@;@>@,@'@)@p.p.C+C+C+C+C+C+C+C+C+C+C+C+C+C+p.p.p.!@~@{@]@^@/@",
"  (@_@:@<@[@}@|@p.L.L.L.p.h+h+h+p.L.L.p.h+h+p.1@2@3@4@5@6@7@8@9@",
"  0@a@b@[@c@d@e@f@p.p.p.g@p.p.p.h@p.p.2@p.p.i@j@k@l@m@n@o@&@p@q@",
"  r@s@t@u@v@9.w@x@y@z@A@B@C@D@E@F@G@H@I@J@K@L@M@F@N@O@P@Q@R@S@T@",
"  U@V@N.W@X@Y@Z@`@ #.#+#@###$#%#&#*#=#-#H@;#>#,#'#)#!#~#{#]#^#T@",
"  /#(#_#:#W@<#[#}#|#1#2#3#4#5#6#7#8#9#0#=#a#b#c#d#e#f#g#g#h#i#j#",
"  /#k#l#>@m#n#o#p#q#r#s#t#u#v#w#x#y#z#A#B#C#&#D#E#F#G#H#I#J#K#L#",
"  M#N#O#P#Q#P#R#S#T#U#V#W#X#Y#Z#`# $.$+$@$#$$$%$&$*$=$-$u#;$>$,$",
"  '$)$!$~${$]$^$/$_+($_$:$<$Z#[$}$|$1$2$3$4$5$6$7$8$9$0$a$;$b$c$",
"  d$e$f$g$_+^$h$i$j$k$l$^$m$n$V o$p$q$r$s$t$u$v$w$x$V y$z$A$B$C$",
"  D$E$F$G$H$I$J$K$L$M$N$O$P$Q$Q$R$S$T$U$V$W$X$Y$Z$`$ %.%+%@%#%$%",
"  . + @ # @ + $ $ $ % @ @ + @ @ & # @ @ @ + $ $ + @ @ + @ @ + @ "};
