/* XPM */
static char * exit_test_xpm[] = {
"32 32 51 1",
" 	c #626262",
".	c #BBBBBB",
"+	c #000000",
"@	c #303030",
"#	c #363636",
"$	c #3D3D3D",
"%	c #4E4E4E",
"&	c #141414",
"*	c #202020",
"=	c #888888",
"-	c #797979",
";	c #313131",
">	c #FFFFFF",
",	c #E8E8E8",
"'	c #D2D2D2",
")	c #BFBFBF",
"!	c #464646",
"~	c #6D6D6D",
"{	c #010101",
"]	c #030303",
"^	c #373737",
"/	c #040404",
"(	c #A9A9A9",
"_	c #9A9A9A",
":	c #242424",
"<	c #181818",
"[	c #575757",
"}	c #585858",
"|	c #434343",
"1	c #CBCBCB",
"2	c #DDDDDD",
"3	c #F4F4F4",
"4	c #7B7B7B",
"5	c #646464",
"6	c #1C1C1C",
"7	c #4A4A4A",
"8	c #252525",
"9	c #969696",
"0	c #8E8E8E",
"a	c #A2A2A2",
"b	c #6F6F6F",
"c	c #EBEBEB",
"d	c #E5E5E5",
"e	c #C2C2C2",
"f	c #666666",
"g	c #262626",
"h	c #808080",
"i	c #949494",
"j	c #B3B3B3",
"k	c #3F3F3F",
"l	c #AAAAAA",
" .++++++++++++@@@#+$%$$$&&&+&*=-",
"++$;.>,,,,,,,,'''',,,,,,,,,,)!$~",
"{'+,>>>>>>>>>>>>>>>>>>>>>>>>>,+-",
"]~+>>>>>>>>>>>>>>>>>>>>>>>>>>>^%",
"/(+>>>>>>>>>>>>>>>>>>>>>>>>>>>_:",
"<([>>>>>>>>>>>>>>>>>>>,..>>>>>'&",
"}-+>>(->>>>=.>>>>>>>([#[|1>>>>(:",
", ->>(+>>>>+=>>>+>>+@~,,23>>>>(:",
">[.>>.:'>>. .>,[>>.=~,>>>>>>>>'+",
"-(.>>>&)>>+=.>-(>>=!.>>>>>>>>>)&",
"-4=>>>:!>==-,..>>>([>>>>>>>>>>'+",
"+-,>>><5..>-'%.>>>==>>>>>>>>>>'&",
"++>>>>%%[(>-([>>>>4$>>>>>>>>>>.+",
"+.>>>>4^->>[4>>>>>.= ''($(>>>>.:",
"#,>>>>_:>>>.=>>>>>>=!##%$.>>>>=+",
"#>>>>>>>>>>>>>>>>>>>>>>>>>>>>>.+",
"#>>>>>>>>>>>>>>>>>>>>>>>>>>>>>.+",
"+>>>>>>>>>>>>>. .>>>>>>>>>>>>>.+",
"#,>>>>>>>>>>>-+&%>>>>>>>>>>>>>(:",
"[.>>>>>>>>>>,[6+~>>>>>>>>>>>>> @",
"~+>>>>>>>>>>>.78~>>>>>>>>>>>>>~+",
"^6=>>>>>>>>>>>90>>>>>>>>>>>>>>%%",
"%$.>>>>>>>>>>>,->>,>>>>>>>>>>>%%",
"+~->>>>>>>>>ab+#++->>>>>>>>>>>%%",
"@ ->>>>>>>>>cd,~>>>>>>>>>>>>>>  ",
"++->>>>>>>>>>>..>>>>>>>>>>>>>>!!",
"+_[>>>>>>>>>>>=.>>>>>>>>>>>>>>  ",
"(^[>>>>>>>>>>ef|a=.>>>>>>>>>>>  ",
"'*+>>>>>>>>>-ghij=.>>>>>>>>>>> !",
">++>>>>>>>>>%(>>>>-,>>>>>>>>>>8k",
".[!}(,,,,,..l............+.--+$.",
"..%$::6$ -.............(((=+~4[>"};
