/* XPM */
static char * green_potion_xpm[] = {
"32 32 21 1",
" 	c #663300",
".	c #CC6633",
"+	c #FFAE4C",
"@	c #FFCC66",
"#	c #FFCC33",
"$	c #FFC054",
"%	c #FF9933",
"&	c #FFCC99",
"*	c #CCFFF5",
"=	c #FFB35B",
"-	c #FFDC73",
";	c #D77E4B",
">	c #FCFCFC",
",	c #BCEBE1",
"'	c #B15C51",
")	c #E2F5C9",
"!	c #A7ED00",
"~	c #022E21",
"{	c #4AB907",
"]	c #0A5D45",
"^	c #41BFAE",
" .+@#@@+$$%@@@+@&#@@@@+$+@@@+@@@",
" .+@#@@+$$%@@@+@&#@@@+$$+@@@+@@@",
" .+@#@@+$$%@@@+@&#@@@+$$+@@@+@@@",
" .+@#@@+$$%@@@+@&#@@@+$$+@@@+@@@",
" .+@#@@+$$%@@+@@&#@@@+$$+@@@+@@@",
" .+@#@@+$$%@@*=-=-;*@+$$+@@@+@@@",
" .+@#@@+$$>>*=-=-;=;**>$+@@@+@@@",
" .+@#@@+$>%@>*=-;=;**@+>+@@@+@@+",
" .+@#@@+$*%@**>=;;,**@+*+@@@+@@+",
" .+@#@@+$$**@**>>,**@**$+@@@+@+@",
" .+@#@@+$$%@@+*';'*@@@+$+@@@+@+@",
" .+@#@@+$$%@>>*;';***@+$+@@@+@+@",
" .+@#@@+$$>>)))';')))**$+@@@+@+@",
" .+@#@@+$>)))))))))*)))*+@@@+@+@",
" .+@#@@+$>)))>>)))*))))*+@@@+@+@",
" .+@#@@+>)))>>>!!!!!!)))*@@@+@+@",
" .+@#@@+*)!>>>!!!!!!!!!)*@@@+@+@",
" .+@#@@>~!!>>!!!!!!!!!!!~*@@+@+@",
" .+@#@@*~!!>!!!!!!!!!!!!~*@@+@+@",
" .+@#@@*~{{{!!!!!!!!!{{{~,@+@@+@",
" .+@#@@*~{{{{{{{{{{{{{{{~,@+@@+@",
" .+@#@@*~{{{{{{{{{{{{{]]~,@+@@+@",
" .+@#@@+*~{{{{{{{{{{{]]~^+@+@@+@",
" .+@#@@+*~{{{{{{{{{{]]]~^+@+@@+@",
" .+@#@@+$*~{{{{{{{]]]]~^$+@+@@+@",
" .+@#@@+$,~~{{{]]]]]]~~^$+@+@@+@",
" .+@#@@+$$,,~~~~~~~~~^^$$+@+@@+@",
" .+@#@@+$$%@,,,,^^^^^+$$$+@+@@+@",
" .+@#@@+$$%@@+@@&#@@@+$$$+@+@@+@",
" .+@#@+$$$%@@+@@&#@@@+$$+@@+@@+@",
" .+@#@+$$$%@@+@@&#@@@+$$+@@+@@+@",
" .+@#@+$$$%@@+@@&#@@@+$$+@@+@@+@"};
