/* XPM */
static char *perso_test[] = {
/* columns rows colors chars-per-pixel */
"22 14 186 2 ",
"   c #000800",
".  c #000B01",
"X  c #030B01",
"o  c #000C01",
"O  c #000E01",
"+  c #000F01",
"@  c #001101",
"#  c #031101",
"$  c #001301",
"%  c #051301",
"&  c #001501",
"*  c #001601",
"=  c #001701",
"-  c #021601",
";  c #051601",
":  c #0A1601",
">  c #0A1701",
",  c #001801",
"<  c #001901",
"1  c #021801",
"2  c #001A01",
"3  c #001B01",
"4  c #051801",
"5  c #051901",
"6  c #061901",
"7  c #011E02",
"8  c #0B1801",
"9  c #0A1B01",
"0  c #0C2303",
"q  c #082603",
"w  c #0D2F05",
"e  c #1D3708",
"r  c #212B04",
"t  c #2E5A1F",
"y  c #365F1D",
"u  c #365E1F",
"i  c #395A1D",
"p  c #3E5A1E",
"a  c #395E1F",
"s  c #384F27",
"d  c #2A5725",
"f  c #365C22",
"g  c #355824",
"h  c #365B25",
"j  c #315E24",
"k  c #3D5F23",
"l  c #3D5C24",
"z  c #3C5D24",
"x  c #3F5F27",
"c  c #3C5629",
"v  c #3B552E",
"b  c #3E572D",
"n  c #3D552F",
"m  c #375D29",
"M  c #325E2F",
"N  c #365D2C",
"B  c #375E2F",
"V  c #3D5C2C",
"C  c #3D5C2F",
"Z  c #3B5530",
"A  c #325F32",
"S  c #3E5C31",
"D  c #3D5E33",
"F  c #356322",
"G  c #376322",
"H  c #376422",
"J  c #336426",
"K  c #356426",
"L  c #386120",
"P  c #386323",
"I  c #3E6221",
"U  c #396423",
"Y  c #3B6422",
"T  c #3C6423",
"R  c #386224",
"E  c #3B6325",
"W  c #3D6224",
"Q  c #386524",
"!  c #3B6624",
"~  c #386727",
"^  c #3F6525",
"/  c #3E6A27",
"(  c #33632A",
")  c #39672B",
"_  c #3F602C",
"`  c #39662F",
"'  c #3C6A2C",
"]  c #346230",
"[  c #386431",
"{  c #3C6335",
"}  c #356238",
"|  c #3D6A3A",
" . c #40641C",
".. c #435F27",
"X. c #415A28",
"o. c #415A29",
"O. c #415B2B",
"+. c #445F2B",
"@. c #40592E",
"#. c #455F2E",
"$. c #495E2F",
"%. c #415A33",
"&. c #405836",
"*. c #465936",
"=. c #445B37",
"-. c #405E39",
";. c #435C3A",
":. c #42593D",
">. c #415A3D",
",. c #456224",
"<. c #406825",
"1. c #416827",
"2. c #406228",
"3. c #406729",
"4. c #436628",
"5. c #45652D",
"6. c #406230",
"7. c #416132",
"8. c #719C59",
"9. c #719F59",
"0. c #749E59",
"q. c #759D5D",
"w. c #7A9C5E",
"e. c #7AA04C",
"r. c #7EA15A",
"t. c #79A65E",
"y. c #7B9664",
"u. c #7F9564",
"i. c #7C9964",
"p. c #7A9E67",
"a. c #7B9C68",
"s. c #7F986F",
"d. c #76A261",
"f. c #76A661",
"g. c #78A060",
"h. c #77A86E",
"j. c #76A471",
"k. c #829F30",
"l. c #89A82A",
"z. c #8CAA2C",
"x. c #8CA92E",
"c. c #86A13A",
"v. c #8BA038",
"b. c #8DA43C",
"n. c #8AA83B",
"m. c #90A737",
"M. c #93AC3B",
"N. c #8D9F45",
"B. c #82964E",
"V. c #839E4D",
"C. c #839D5B",
"Z. c #8FA647",
"A. c #88A448",
"S. c #97AB4F",
"D. c #9AB444",
"F. c #8CA652",
"G. c #839668",
"H. c #84966D",
"J. c #88976E",
"K. c #839D69",
"L. c #8F9F6D",
"P. c #8D9E6F",
"I. c #859272",
"U. c #859473",
"Y. c #8D957D",
"T. c #8A987A",
"R. c #909A7D",
"E. c #84A068",
"W. c #96A361",
"Q. c #87A271",
"!. c #85AD73",
"~. c #A0AB73",
"^. c #8F9881",
"/. c #93A781",
"(. c #A2A98A",
"). c #EDFFD3",
"_. c #F8FEDD",
"`. c #F8FEDE",
"'. c #F7FEE7",
"]. c #F8FFE3",
"[. c #F8FEE7",
"{. c #FDFFE7",
"}. c #F7FFF7",
"|. c #F9FFF9",
" X c #F8FFFF",
".X c None",
/* pixels */
".X.X.X.X.X.X.X.X.X.X.X.X.X.X.X(..X.X.X.X.X.X",
".X.X.X.X.X.X.X.X.X6 , , * 6 + .X.X.X.X.X.X.X",
".X.X.X.X.X.X.X.X$ :.Z O.p C.$.$ .X.XY..X.X.X",
".X.X.X.XQ..X, , :.-.V 4.e. ...s., * .X.X.X.X",
".X.X.X.X)., =.v 5.h d.U <.y a 2.i.C , .X.X.X",
".X.X^..X6 /.%.7.q.~ ' ) t ~ t.L I z y.0 ].I.",
".X.X.X+ T.*.n a.L / d A h.J f.G R p.5.s $ }.",
".X.X+ 6 * , , w E 9.| } ] ( K G G E l Q.$ |.",
".X8 S.D.c.A.q 7 ^ 9.` j.M ] j ~ E 9.k +.* U.",
"X ~.M.l.e n.V.7 i 3.m B { m !.f y <...K.$ _.",
"8 W.M.x.x.k.F.7 ,.w.S D p.h C +.I r.c , _.J.",
"X r N.k.b.Z.B.* , O.&.;.+.7 7 n E.O., '..X.X",
".XX X $ % ; * P.G., * $ * u.H.* * X '.R..X.X",
".X.X.X.X.X.X> + , , .X.X* * 9 $  X X.X{..X.X"
};
