/* XPM */
static char * test_hedgehog_right_xpm[] = {
"32 32 23 1",
" 	c None",
".	c #896868",
"+	c #CC6633",
"@	c #FFAE4C",
"#	c #FFCC66",
"$	c #FFCC33",
"%	c #FFC054",
"&	c #FF9933",
"*	c #FFCC99",
"=	c #977272",
"-	c #926F6F",
";	c #8C6A6A",
">	c #663300",
",	c #9BBC0F",
"'	c #8BAC0F",
")	c #000800",
"!	c #306230",
"~	c #032403",
"{	c #92706C",
"]	c #91706B",
"^	c #AD9091",
"/	c #AD9090",
"(	c #B39898",
".+@#$##@%%&###@#*$####@%@###@##=",
"-+@#$##@%%&###@#*$###@%%@###@###",
";+@#$##@%%&###@#*$###@%%@###@###",
">+@#$##@%%&###@#*$###@%%@###@###",
">+@#$##@%%&##@##*$###@%%@###@###",
">+@#$##@%%&##@##*$###@%%@###@###",
">+@#$##@%%&##@##*$###@%%@###@###",
">+@#$##@%%&##@##*$####@%@###@##@",
">+@#$##@%%&,#@##*$'###@%@###@##@",
">+@#$##@%%&#))))))####@%@###@#@#",
">+@#$##@'%&)!'!!!!)##'@%@###@#@#",
">+@#$##@%))'!!'!!!!)) '%@###@#@#",
">+@#$##@)!'!!!!!'!!!!)@%@###@#@#",
">+@#$'#)'!!!'!!!!!'!!,)%'###@#@#",
">+@#$#)!!'!!'!'!!!!'!!')@###@#@#",
">+@#$#)'!!!!!!!!!'!~)))))###@#@#",
">+@#$')!!'!!!!!'!'!)~'',,)##@#@#",
">+@#$#)'!!!!'!!!!!!)''~',,)#@#@#",
">+@#$'#)!'!!!!'!!'!)''''',)#@#@#",
">+@#$##@)!'))!!!!!!))''''~)@##@#",
">+@#$##'%))''))))))'')))))#@##@#",
">+@#$##@%%))))##*$))))@%%@#@##@#",
">+@#$##@%%&##@##*$####@%%@#@##@#",
"{+@#$##@%%&##@##*$####@%%@#@##@#",
"]+@#$##@%%&##@##*$####@%%@#@##@#",
"{+@#$##@%%&##@##*$####@%%@#@##@#",
"{+@#$##@%%&##@##*$####@%%@#@##@#",
"^+@#$##@%%&##@##*$###@%%%@#@##@#",
"^+@#$##@%%&##@##*$###@%%%@#@##@#",
"/+@#$#@%%%&##@##*$###@%%@##@##@#",
"(+@#$#@%%%&##@##*$###@%%@##@##@#",
"(+@#$#@%%%&##@##*$###@%%@##@##@#"};
