/* XPM */
static char * test_perso_xpm[] = {
"32 32 80 1",
" 	c #FFFFFF",
".	c #BBBBBB",
"+	c #797979",
"@	c #626262",
"#	c #424242",
"$	c #727272",
"%	c #575757",
"&	c #000000",
"*	c #202020",
"=	c #272727",
"-	c #333333",
";	c #373737",
">	c #060606",
",	c #050505",
"'	c #474747",
")	c #0B0B0B",
"!	c #010101",
"~	c #191919",
"{	c #535353",
"]	c #0D0D0D",
"^	c #9A9A9A",
"/	c #7B7B7B",
"(	c #2A2A2A",
"_	c #252525",
":	c #181818",
"<	c #0A0A0A",
"[	c #A9A9A9",
"}	c #D2D2D2",
"|	c #111111",
"1	c #141414",
"2	c #161616",
"3	c #2B2B2B",
"4	c #5A5A5A",
"5	c #3C3C3C",
"6	c #242424",
"7	c #101010",
"8	c #1D1D1D",
"9	c #3A3A3A",
"0	c #1E1E1E",
"a	c #6D6D6D",
"b	c #E8E8E8",
"c	c #999999",
"d	c #2D2D2D",
"e	c #070707",
"f	c #020202",
"g	c #343434",
"h	c #0E0E0E",
"i	c #040404",
"j	c #0F0F0F",
"k	c #565656",
"l	c #282828",
"m	c #3D3D3D",
"n	c #212121",
"o	c #464646",
"p	c #A2A2A2",
"q	c #F4F4F4",
"r	c #646464",
"s	c #4E4E4E",
"t	c #949494",
"u	c #1F1F1F",
"v	c #303030",
"w	c #444444",
"x	c #A4A4A4",
"y	c #B3B3B3",
"z	c #6B6B6B",
"A	c #8B8B8B",
"B	c #979797",
"C	c #171717",
"D	c #6F6F6F",
"E	c #585858",
"F	c #888888",
"G	c #262626",
"H	c #D3D3D3",
"I	c #313131",
"J	c #030303",
"K	c #707070",
"L	c #AAAAAA",
"M	c #151515",
"N	c #2C2C2C",
"O	c #363636",
"                                ",
"                                ",
"               ...              ",
"             +@@#$%             ",
"            &&*&=-;%            ",
"           .>,')!~{]^           ",
"           /(_:&,_<{[           ",
"           }|&1&|(&2/           ",
"            |&&&3=45[           ",
"            &678903ab           ",
"            bcdefg@b            ",
"        b.+&hijk&lmab           ",
"       .mn&(opqr&s&**%b         ",
"      &turmb   4!  .v&wx        ",
"       qy      r!b    0z%       ",
"               A&.     [s       ",
"               A&.              ",
"               A&.              ",
"               r&.              ",
"               B!.              ",
"               C&h              ",
"              ;&&!&             ",
"             Dh&.E&&            ",
"             fm  FGf.           ",
"           He&    .iI           ",
"          &F&.     nJb          ",
"         %K)L       iM          ",
"         aN*        LO.         ",
"          .          +[         ",
"                                ",
"                                ",
"                                "};
