/* XPM */
static char * test_hedgehog_xpm[] = {
"32 32 15 1",
" 	c None",
".	c #663300",
"+	c #CC6633",
"@	c #FFAE4C",
"#	c #FFCC66",
"$	c #FFCC33",
"%	c #FFC054",
"&	c #FF9933",
"*	c #FFCC99",
"=	c #977373",
"-	c #8BAC0F",
";	c #9BBC0F",
">	c #000800",
",	c #306230",
"'	c #032403",
".+@#$##@%%&###@#*$####@%@###@##=",
".+@#$##@%%&###@#*$###@%%@###@##=",
".+@#$##@%%&###@#*$###@%%@###@##=",
".+@#$##@%%&###@#*$###@%%@###@###",
".+@#$##@%%&##@##*$###@%%@###@###",
".+@#$##@%%&##@##*$###@%%@###@###",
".+@#$##@%%&##@##*$###@%%@###@###",
".+@#$##@%%&##@##*$####@%@###@##@",
".+@#$##@%%&##-##*$##;#@%@###@##@",
".+@#$##@%%&##@>>>>>>##@%@###@#@#",
".+@#$##@%%-##>,,,,-,>#@-@###@#@#",
".+@#$##@%- >>,,,,-,,->>%@###@#@#",
".+@#$##@%%>,,,,-,,,,,-,>@###@#@#",
".+@#$##-%>;,,-,,,,,-,,,->#-#@#@#",
".+@#$##@>-,,-,,,,-,-,,-,,>##@#@#",
".+@#$##>>>>>',-,,,,,,,,,->##@#@#",
".+@#$#>;;--'>,-,-,,,,,-,,>-#@#@#",
".+@#$>;;-'-->,,,,,,-,,,,->##@#@#",
".+@#$>;----->,-,,-,,,,-,>#-#@#@#",
".+@#$>'---->>,,,,,,>>-,>@##@##@#",
".+@#$#>>>>>-->>>>>>-->>%-##@##@#",
".+@#$##@%%>>>>##*$>>>>@%%@#@##@#",
".+@#$##@%%&##@##*$####@%%@#@##@#",
".+@#$##@%%&##@##*$####@%%@#@##@#",
".+@#$##@%%&##@##*$####@%%@#@##@#",
".+@#$##@%%&##@##*$####@%%@#@##@#",
".+@#$##@%%&##@##*$####@%%@#@##@#",
".+@#$##@%%&##@##*$###@%%%@#@##@#",
".+@#$##@%%&##@##*$###@%%%@#@##@#",
".+@#$#@%%%&##@##*$###@%%@##@##@#",
".+@#$#@%%%&##@##*$###@%%@##@##@#",
".+@#$#@%%%&##@##*$###@%%@##@##@#"};
