/* XPM */
static char * Untitled_xpm[] = {
"22 14 6 1",
" 	c #FFFFFF",
".	c #8BAC0F",
"+	c #9BBC0F",
"@	c #000800",
"#	c #306230",
"$	c #032403",
"        .      +      ",
"         @@@@@@       ",
"     .  @####.#@  .   ",
"    . @@####.##.@@    ",
"     @####.#####.#@   ",
"  . @+##.#####.###.@ .",
"   @.##.####.#.##.##@ ",
"  @@@@@$#.#########.@ ",
" @++..$@#.#.#####.##@.",
"@++.$..@######.####.@ ",
"@+.....@#.##.####.#@ .",
"@$.....@@####@@#.#@   ",
" @@@@@@..@@@@..@@@ .  ",
"      @@@@  @@@@      "};
