/* XPM */
static char * bookshelf_resized_xpm[] = {
"32 32 669 2",
"  	c #8F563B",
". 	c #713F27",
"+ 	c #8E553A",
"@ 	c #875036",
"# 	c #874F35",
"$ 	c #864F35",
"% 	c #885036",
"& 	c #895137",
"* 	c #673721",
"= 	c #61321D",
"- 	c #61331D",
"; 	c #60321D",
"> 	c #60311D",
", 	c #5F2F1C",
"' 	c #61321C",
") 	c #90563B",
"! 	c #8A5238",
"~ 	c #6E3C25",
"{ 	c #693822",
"] 	c #6A3923",
"^ 	c #683720",
"/ 	c #864436",
"( 	c #7F3A2B",
"_ 	c #693620",
": 	c #6A3822",
"< 	c #72422C",
"[ 	c #77462F",
"} 	c #6B3A23",
"| 	c #6A3823",
"1 	c #693823",
"2 	c #673822",
"3 	c #663621",
"4 	c #8E6839",
"5 	c #B4994A",
"6 	c #865F27",
"7 	c #6E3B2D",
"8 	c #754239",
"9 	c #703D33",
"0 	c #6A3824",
"a 	c #6D3B24",
"b 	c #683721",
"c 	c #6F412E",
"d 	c #72493B",
"e 	c #A04B4B",
"f 	c #8D5A4C",
"g 	c #587555",
"h 	c #584A30",
"i 	c #693721",
"j 	c #693722",
"k 	c #673520",
"l 	c #A97D61",
"m 	c #CFA078",
"n 	c #734025",
"o 	c #693720",
"p 	c #723C22",
"q 	c #AB562E",
"r 	c #AD542D",
"s 	c #CB9E32",
"t 	c #FDF83E",
"u 	c #A98B25",
"v 	c #8B4D6F",
"w 	c #AB65BF",
"x 	c #924A9B",
"y 	c #6C362D",
"z 	c #6A3821",
"A 	c #62331D",
"B 	c #8A5137",
"C 	c #764732",
"D 	c #7B4F3C",
"E 	c #794C37",
"F 	c #7D8587",
"G 	c #81BFE1",
"H 	c #9F729C",
"I 	c #7A6956",
"J 	c #329972",
"K 	c #4A6240",
"L 	c #76492A",
"M 	c #754A2B",
"N 	c #6F4427",
"O 	c #AF8461",
"P 	c #D7A981",
"Q 	c #725563",
"R 	c #654D65",
"S 	c #6A454E",
"T 	c #E26225",
"U 	c #EF6122",
"V 	c #E19F29",
"W 	c #F7F233",
"X 	c #D3A029",
"Y 	c #A3536D",
"Z 	c #9E53BF",
"` 	c #8B44A4",
" .	c #5C4848",
"..	c #564333",
"+.	c #5E331E",
"@.	c #884F34",
"#.	c #A68A7D",
"$.	c #DEDAD8",
"%.	c #D9D1CE",
"&.	c #8CC2CC",
"*.	c #5ACAEC",
"=.	c #9A78A7",
"-.	c #786552",
";.	c #2E906A",
">.	c #659256",
",.	c #ACAD59",
"'.	c #AAAD59",
").	c #989B4D",
"!.	c #BDA870",
"~.	c #D2A683",
"{.	c #534D79",
"].	c #42447F",
"^.	c #4B3C64",
"/.	c #DA5C24",
"(.	c #EB5D1D",
"_.	c #E09F29",
":.	c #F7F234",
"<.	c #D79E21",
"[.	c #A6536A",
"}.	c #9E54BF",
"|.	c #8744A4",
"1.	c #3D4A51",
"2.	c #39453D",
"3.	c #5B331F",
"4.	c #884E34",
"5.	c #A68C81",
"6.	c #DCDDDE",
"7.	c #D8D7D6",
"8.	c #90C8D3",
"9.	c #5BC9EA",
"0.	c #2E906B",
"a.	c #609055",
"b.	c #A2A956",
"c.	c #A0A856",
"d.	c #959F4E",
"e.	c #BFAE72",
"f.	c #D2A581",
"g.	c #4E4770",
"h.	c #3C3D74",
"i.	c #48395F",
"j.	c #DA5D24",
"k.	c #D69E21",
"l.	c #3B474D",
"m.	c #38433B",
"n.	c #A68D81",
"o.	c #DDDEDF",
"p.	c #D9D7D7",
"q.	c #90C8D4",
"r.	c #5BCAEC",
"s.	c #9B79A8",
"t.	c #796653",
"u.	c #2E916B",
"v.	c #A0A956",
"w.	c #969F4E",
"x.	c #C0AF73",
"y.	c #D3A682",
"z.	c #4E4871",
"A.	c #3C3E75",
"B.	c #DC5D24",
"C.	c #EC5E1E",
"D.	c #E1A02A",
"E.	c #F8F434",
"F.	c #D79F21",
"G.	c #A7536B",
"H.	c #9F54C0",
"I.	c #8744A5",
"J.	c #3B474E",
"K.	c #5B3320",
"L.	c #874E34",
"M.	c #9B8074",
"N.	c #CAC7C6",
"O.	c #C7C1BF",
"P.	c #87B4BC",
"Q.	c #58B6D2",
"R.	c #906E96",
"S.	c #725D4A",
"T.	c #308360",
"U.	c #5C824C",
"V.	c #97994D",
"W.	c #95984D",
"X.	c #8C9046",
"Y.	c #B19D66",
"Z.	c #C29674",
"`.	c #4C4265",
" +	c #3D3A69",
".+	c #473655",
"++	c #C95521",
"@+	c #D8561B",
"#+	c #CE9026",
"$+	c #E3DB2F",
"%+	c #C68F1E",
"&+	c #9B4C5F",
"*+	c #944DAB",
"=+	c #7F3F93",
"-+	c #3B4246",
";+	c #393E35",
">+	c #59311D",
",+	c #8B5238",
"'+	c #7A4A33",
")+	c #7D513C",
"!+	c #7D503B",
"~+	c #754E3B",
"{+	c #6F4F3D",
"]+	c #764636",
"^+	c #73442D",
"/+	c #6B482F",
"(+	c #70482D",
"_+	c #774B2D",
":+	c #764A2C",
"<+	c #7A4C30",
"[+	c #7C4B32",
"}+	c #6E4030",
"|+	c #6C3F30",
"1+	c #6D3F2E",
"2+	c #7D4328",
"3+	c #7F4327",
"4+	c #7E4A28",
"5+	c #805329",
"6+	c #7D4A27",
"7+	c #78422F",
"8+	c #774238",
"9+	c #744035",
"0+	c #6C402C",
"a+	c #6B402A",
"b+	c #724029",
"c+	c #8B5338",
"d+	c #744129",
"e+	c #703D26",
"f+	c #6F3D25",
"g+	c #703E26",
"h+	c #713E26",
"i+	c #6F3D26",
"j+	c #703D27",
"k+	c #713E27",
"l+	c #703E27",
"m+	c #6F3D27",
"n+	c #703F27",
"o+	c #703F26",
"p+	c #6E3E26",
"q+	c #6F3E27",
"r+	c #734029",
"s+	c #895237",
"t+	c #67341F",
"u+	c #713C29",
"v+	c #693621",
"w+	c #63331E",
"x+	c #896430",
"y+	c #835E25",
"z+	c #64331F",
"A+	c #65351F",
"B+	c #663722",
"C+	c #6E4436",
"D+	c #663B2C",
"E+	c #64341F",
"F+	c #63321D",
"G+	c #885A40",
"H+	c #835236",
"I+	c #653520",
"J+	c #64341E",
"K+	c #6C381F",
"L+	c #A7532B",
"M+	c #994824",
"N+	c #67331E",
"O+	c #5E301B",
"P+	c #8A5136",
"Q+	c #685C40",
"R+	c #60694F",
"S+	c #C05C5F",
"T+	c #8E3E39",
"U+	c #663B32",
"V+	c #AF9633",
"W+	c #A68A25",
"X+	c #663320",
"Y+	c #6D4836",
"Z+	c #7FAECB",
"`+	c #6A6A84",
" @	c #68361E",
".@	c #72442F",
"+@	c #784C39",
"@@	c #B28666",
"#@	c #A5714C",
"$@	c #6D3F25",
"%@	c #714629",
"&@	c #693821",
"*@	c #7D4D43",
"=@	c #8C554E",
"-@	c #E66425",
";@	c #D85F27",
">@	c #956A39",
",@	c #64381E",
"'@	c #8B5036",
")@	c #556E4E",
"!@	c #3E8565",
"~@	c #C05459",
"{@	c #874561",
"]@	c #4C4980",
"^@	c #958F45",
"/@	c #B7A747",
"(@	c #8C736B",
"_@	c #7B6053",
":@	c #673821",
"<@	c #674835",
"[@	c #5FBAD6",
"}@	c #6D7692",
"|@	c #753D21",
"1@	c #A78A7C",
"2@	c #D8D5D4",
"3@	c #D3B9A1",
"4@	c #A06A46",
"5@	c #88713C",
"6@	c #97964D",
"7@	c #6A462C",
"8@	c #653C27",
"9@	c #80545B",
"0@	c #905F6E",
"a@	c #E15F23",
"b@	c #D96325",
"c@	c #AE9243",
"d@	c #673D20",
"e@	c #536A4B",
"f@	c #3C8061",
"g@	c #7B3C58",
"h@	c #353872",
"i@	c #908B45",
"j@	c #B9B55B",
"k@	c #8E9093",
"l@	c #817B80",
"m@	c #90597C",
"n@	c #83577F",
"o@	c #5FB6DC",
"p@	c #9D909A",
"q@	c #D16F2D",
"r@	c #C1987D",
"s@	c #D7D9DC",
"t@	c #D6BFA9",
"u@	c #B28459",
"v@	c #8D8046",
"w@	c #8F9950",
"x@	c #4B5A4A",
"y@	c #404E46",
"z@	c #685462",
"A@	c #8E5B6A",
"B@	c #E16023",
"C@	c #D86224",
"D@	c #AB8E3F",
"E@	c #546A4B",
"F@	c #3C8161",
"G@	c #363872",
"H@	c #908C45",
"I@	c #B6B157",
"J@	c #87878A",
"K@	c #7F7783",
"L@	c #9E5BB9",
"M@	c #9055BB",
"N@	c #60B6E3",
"O@	c #A18C8F",
"P@	c #DA691C",
"Q@	c #C5987A",
"R@	c #D6D9DB",
"S@	c #D6BEA8",
"T@	c #BC9460",
"U@	c #958F4E",
"V@	c #8D984F",
"W@	c #3C5244",
"X@	c #304741",
"Y@	c #635463",
"Z@	c #8E5C6A",
"`@	c #AB8F40",
" #	c #87888A",
".#	c #7E7782",
"+#	c #9855B1",
"@#	c #8C52B5",
"##	c #A08C90",
"$#	c #D9691C",
"%#	c #C4987A",
"&#	c #BA925D",
"*#	c #948E4D",
"=#	c #3D5344",
"-#	c #314741",
";#	c #645463",
">#	c #536B4C",
",#	c #3C8262",
"'#	c #C2555A",
")#	c #7C3C59",
"!#	c #353874",
"~#	c #918D46",
"{#	c #B7B458",
"]#	c #88898C",
"^#	c #7F7884",
"/#	c #9955B4",
"(#	c #8D53B8",
"_#	c #60B8E6",
":#	c #A18E90",
"<#	c #DB6A1C",
"[#	c #C69A7C",
"}#	c #D8DCDE",
"|#	c #D8C1AA",
"1#	c #BB945F",
"2#	c #95904E",
"3#	c #8E9950",
"4#	c #3C5345",
"5#	c #304841",
"6#	c #645464",
"7#	c #8F5C6B",
"8#	c #E46123",
"9#	c #DA6324",
"0#	c #AC9040",
"a#	c #8A5036",
"b#	c #5A4E34",
"c#	c #4B573D",
"d#	c #8D4139",
"e#	c #6B3538",
"f#	c #483345",
"g#	c #755D2F",
"h#	c #887038",
"i#	c #715B52",
"j#	c #6C524D",
"k#	c #794165",
"l#	c #734067",
"m#	c #5D727E",
"n#	c #7D5D54",
"o#	c #9A4B1A",
"p#	c #8F6349",
"q#	c #98837A",
"r#	c #987660",
"s#	c #8A603B",
"t#	c #775E33",
"u#	c #746334",
"v#	c #4C402E",
"w#	c #463B2D",
"x#	c #5F413E",
"y#	c #744541",
"z#	c #9E471E",
"A#	c #99481F",
"B#	c #825E2C",
"C#	c #63371E",
"D#	c #8D5439",
"E#	c #814A31",
"F#	c #7F482F",
"G#	c #7D492F",
"H#	c #7E492F",
"I#	c #80492F",
"J#	c #7D472F",
"K#	c #7C462E",
"L#	c #7D462D",
"M#	c #7D472E",
"N#	c #7E492D",
"O#	c #7F472C",
"P#	c #7D482E",
"Q#	c #7C4830",
"R#	c #7C462C",
"S#	c #7C472E",
"T#	c #7D482F",
"U#	c #7F482E",
"V#	c #7E492E",
"W#	c #7C4930",
"X#	c #7D4830",
"Y#	c #814B32",
"Z#	c #62331E",
"`#	c #6A3E24",
" $	c #73492B",
".$	c #72482B",
"+$	c #6F4424",
"@$	c #63341D",
"#$	c #62321D",
"$$	c #643520",
"%$	c #70432D",
"&$	c #683922",
"*$	c #633420",
"=$	c #6C3B31",
"-$	c #6D3C34",
";$	c #6E3C34",
">$	c #69372E",
",$	c #62331F",
"'$	c #663521",
")$	c #AB8C3C",
"!$	c #EFE456",
"~$	c #EEE256",
"{$	c #CFC13D",
"]$	c #72542E",
"^$	c #65422B",
"/$	c #68361F",
"($	c #68351E",
"_$	c #77452D",
":$	c #D7AC88",
"<$	c #9B6845",
"[$	c #653722",
"}$	c #6D4038",
"|$	c #A25EAA",
"1$	c #AA63BC",
"2$	c #AA63BB",
"3$	c #AA64BC",
"4$	c #6B362E",
"5$	c #693922",
"6$	c #683822",
"7$	c #6E3C24",
"8$	c #693820",
"9$	c #6A3820",
"0$	c #723D24",
"a$	c #773D26",
"b$	c #B8972C",
"c$	c #FEF635",
"d$	c #FDF434",
"e$	c #D8DA35",
"f$	c #58A06C",
"g$	c #418567",
"h$	c #7E8285",
"i$	c #8B878E",
"j$	c #878290",
"k$	c #DDB592",
"l$	c #C49B7B",
"m$	c #6C695F",
"n$	c #47484D",
"o$	c #9250AC",
"p$	c #9E53BC",
"q$	c #9D53BB",
"r$	c #9E54BD",
"s$	c #8D41A1",
"t$	c #6B3630",
"u$	c #703C27",
"v$	c #A2564E",
"w$	c #96473E",
"x$	c #64321D",
"y$	c #6C4646",
"z$	c #664E65",
"A$	c #604960",
"B$	c #9B5139",
"C$	c #E3642B",
"D$	c #DB9F2B",
"E$	c #FCF536",
"F$	c #FCF335",
"G$	c #D5D834",
"H$	c #469964",
"I$	c #2F8C6F",
"J$	c #61C5D9",
"K$	c #6BD2EC",
"L$	c #76BBEA",
"M$	c #DBB89D",
"N$	c #DCC0A6",
"O$	c #7B8986",
"P$	c #3B434A",
"Q$	c #9251AC",
"R$	c #9E54BB",
"S$	c #9E54BC",
"T$	c #8D41A0",
"U$	c #69342E",
"V$	c #743A28",
"W$	c #D25962",
"X$	c #BF484C",
"Y$	c #68311E",
"Z$	c #8B5236",
"`$	c #5B4252",
" %	c #43457F",
".%	c #3C407A",
"+%	c #8F483F",
"@%	c #EE5E1C",
"#%	c #E09E29",
"$%	c #FBF536",
"%%	c #D6D834",
"&%	c #479964",
"*%	c #2F8B6E",
"=%	c #56C2D2",
"-%	c #5DCEE5",
";%	c #6FB8E6",
">%	c #DCB89D",
",%	c #D9BDA2",
"'%	c #7A8783",
")%	c #944AA5",
"!%	c #A37D5C",
"~%	c #A07546",
"{%	c #D0585D",
"]%	c #BB4549",
"^%	c #583F4D",
"/%	c #3D3E75",
"(%	c #383A71",
"_%	c #8E483E",
":%	c #ED5E1D",
"<%	c #57C2D2",
"[%	c #5ECEE5",
"}%	c #70B8E6",
"|%	c #9850A7",
"1%	c #C4AF67",
"2%	c #BEA451",
"3%	c #D35D5E",
"4%	c #BB4449",
"5%	c #583F4E",
"6%	c #3D3F76",
"7%	c #383B72",
"8%	c #8F483E",
"9%	c #EE5E1D",
"0%	c #FDF636",
"a%	c #FEF436",
"b%	c #D7D934",
"c%	c #479A65",
"d%	c #57C3D4",
"e%	c #5ECFE6",
"f%	c #70B9E7",
"g%	c #DDB99E",
"h%	c #DABEA3",
"i%	c #7A8884",
"j%	c #9251AD",
"k%	c #9F54BD",
"l%	c #9750A7",
"m%	c #BEAA60",
"n%	c #BBA14D",
"o%	c #D45E5F",
"p%	c #BC4549",
"q%	c #573B46",
"r%	c #3E3A69",
"s%	c #393766",
"t%	c #864338",
"u%	c #DA561A",
"v%	c #CE9025",
"w%	c #E7DD31",
"x%	c #E8DB30",
"y%	c #C5C32F",
"z%	c #468B5A",
"A%	c #307F63",
"B%	c #54AFBC",
"C%	c #5ABACD",
"D%	c #6AA7CE",
"E%	c #CAA68D",
"F%	c #C8AB91",
"G%	c #737B76",
"H%	c #3C3F42",
"I%	c #894A9A",
"J%	c #944DA8",
"K%	c #934DA7",
"L%	c #934DA8",
"M%	c #8D4A95",
"N%	c #B09956",
"O%	c #AD9145",
"P%	c #C35655",
"Q%	c #AE4042",
"R%	c #642F1C",
"S%	c #71412D",
"T%	c #6B3F30",
"U%	c #6A3E2F",
"V%	c #74402A",
"W%	c #7E4226",
"X%	c #7D4927",
"Y%	c #805229",
"Z%	c #7C4F29",
"`%	c #6C482E",
" &	c #69472F",
".&	c #6E4D3A",
"+&	c #6F4E3C",
"@&	c #714C3C",
"#&	c #7C4C34",
"$&	c #7C4C35",
"%&	c #724731",
"&&	c #6B3F2B",
"*&	c #744136",
"=&	c #764137",
"-&	c #754135",
";&	c #794A2D",
">&	c #79492B",
",&	c #7B422D",
"'&	c #793F2B",
")&	c #733F28",
"!&	c #90573B",
"~&	c #91573B",
"{&	c #90573C",
"]&	c #8F573C",
"^&	c #8F563C",
"/&	c #90563C",
"(&	c #91563B",
"_&	c #90563A",
":&	c #60321C",
"                                                              . ",
"+ @ # # # # # # # # # # # # # # # # # # # # # # # # # $ % +   . ",
"& * = - - - ; - - - - - - = = - - - - - > , > = ' ' - - ; % ) . ",
"! ~ { ] { ^ / ( _ : ] ] { < [ } | 1 2 3 4 5 6 7 8 9 0 ] - $ ) . ",
"! a b ^ c d e f g h i j k l m n o p q r s t u v w x y z A $ ) . ",
"B C D E F G H I J K L M N O P Q R S T U V W X Y Z `  ...+.# ) . ",
"@.#.$.%.&.*.=.-.;.>.,.'.).!.~.{.].^./.(._.:.<.[.}.|.1.2.3.# ) . ",
"4.5.6.7.8.9.=.-.0.a.b.c.d.e.f.g.h.i.j.(._.:.k.[.}.|.l.m.3.# ) . ",
"@.n.o.p.q.r.s.t.u.a.b.v.w.x.y.z.A.i.B.C.D.E.F.G.H.I.J.m.K.# ) . ",
"L.M.N.O.P.Q.R.S.T.U.V.W.X.Y.Z.`. +.+++@+#+$+%+&+*+=+-+;+>+# ) . ",
",+'+)+!+~+{+]+^+/+(+_+_+:+<+[+}+|+1+2+3+4+5+6+7+8+9+0+a+b+c+) . ",
"c+d+e+f+g+h+i+j+k+k+k+l+e+g+l+. . e+m+n+l+j+l+. o+p+q+. r+c+) . ",
"s+: t+u+v+w+x+y+z+A+A+B+C+D+A+E+F+G+H+w+E+A+I+J+K+L+M+N+O+$ ) . ",
"P+Q+R+S+T+U+V+W+X+i z Y+Z+`+ @.@+@@@#@$@%@] &@*@=@-@;@>@,@$ ) . ",
"'@)@!@~@{@]@^@/@(@_@:@<@[@}@|@1@2@3@4@5@6@7@8@9@0@a@b@c@d@$ ) . ",
"'@e@f@~@g@h@i@j@k@l@m@n@o@p@q@r@s@t@u@v@w@x@y@z@A@B@C@D@d@$ ) . ",
"'@E@F@~@g@G@H@I@J@K@L@M@N@O@P@Q@R@S@T@U@V@W@X@Y@Z@B@C@`@d@$ ) . ",
"'@E@F@~@g@G@H@I@ #.#+#@#N@##$#%#R@S@&#*#V@=#-#;#Z@B@C@`@d@$ ) . ",
"'@>#,#'#)#!#~#{#]#^#/#(#_#:#<#[#}#|#1#2#3#4#5#6#7#8#9#0#d@$ ) . ",
"a#b#c#d#e#f#g#h#i#j#k#l#m#n#o#p#q#r#s#t#u#v#w#x#y#z#A#B#C#@ ) . ",
"D#E#F#G#H#I#J#K#L#M#N#N#O#P#Q#K#R#S#T#M#M#U#U#V#H#W#Q#X#Y#D#  . ",
"& * A Z#Z#A `# $.$+$@$#$Z#A $$%$&$A *$=$-$-$;$>$,$Z#Z#Z#= % ) . ",
"! ~ { ] { '$)$!$~${$]$^$/$($_$:$<$[$}$|$1$2$3$x 4$5$:@6$- $ ) . ",
"! 7$8$9$0$a$b$c$d$e$f$g$h$i$j$k$l$m$n$o$p$q$r$s$t$u$v$w$x$$ ) . ",
"P+y$z$A$B$C$D$E$F$G$H$I$J$K$L$M$N$O$P$Q$R$R$S$T$U$V$W$X$Y$$ ) . ",
"Z$`$ %.%+%@%#%$%F$%%&%*%=%-%;%>%,%'%P$Q$R$R$S$)%!%~%{%]%Y$$ ) . ",
"Z$^%/%(%_%:%#%$%F$%%&%*%<%[%}%>%,%'%P$Q$R$R$q$|%1%2%3%4%Y$$ ) . ",
"Z$5%6%7%8%9%V 0%a%b%c%I$d%e%f%g%h%i%P$j%k%S$r$l%m%n%o%p%Y$$ ) . ",
"P+q%r%s%t%u%v%w%x%y%z%A%B%C%D%E%F%G%H%I%J%K%L%M%N%O%P%Q%R%$ ) . ",
"c+S%T%U%V%W%X%Y%Y%Z%`% &.&+&@&#&$&%&&&*&=&=&=&-&;&>&,&'&)&c+) . ",
"  !&~&~&{&]&^&^&^&/&(&(&_&_&_&) ) ) ~&!&!&!&!&!&) ) !&!&{&  {&. ",
". . . . . . . . . . . . . . . . . . . . . . . . . . . . . . . :&"};
