/* XPM */
static char * Untitled_xpm[] = {
"32 32 82 1",
" 	c #FFFFFF",
".	c #BBBBBB",
"+	c #E8E8E8",
"@	c #797979",
"#	c #585858",
"$	c #4F4F4F",
"%	c #181818",
"&	c #898989",
"*	c #000000",
"=	c #4E4E4E",
"-	c #3E3E3E",
";	c #888888",
">	c #6D6D6D",
",	c #AAAAAA",
"'	c #BCBCBC",
")	c #9A9A9A",
"!	c #7A7A7A",
"~	c #575757",
"{	c #FCFCFC",
"]	c #A9A9A9",
"^	c #D5D5D5",
"/	c #939393",
"(	c #878787",
"_	c #9C9C9C",
":	c #7B7B7B",
"<	c #636363",
"[	c #2B2B2B",
"}	c #595959",
"|	c #757575",
"1	c #7D7D7D",
"2	c #353535",
"3	c #4A4A4A",
"4	c #2E2E2E",
"5	c #1C1C1C",
"6	c #151515",
"7	c #1E1E1E",
"8	c #0C0C0C",
"9	c #191919",
"0	c #474747",
"a	c #C8C8C8",
"b	c #C2C2C2",
"c	c #F4F4F4",
"d	c #303030",
"e	c #313131",
"f	c #D3D3D3",
"g	c #050505",
"h	c #363636",
"i	c #393939",
"j	c #383838",
"k	c #2D2D2D",
"l	c #767676",
"m	c #EBEBEB",
"n	c #555555",
"o	c #252525",
"p	c #3B3B3B",
"q	c #545454",
"r	c #DEDEDE",
"s	c #272727",
"t	c #CBCBCB",
"u	c #B6B6B6",
"v	c #6A6A6A",
"w	c #626262",
"x	c #707070",
"y	c #3D3D3D",
"z	c #464646",
"A	c #373737",
"B	c #6E6E6E",
"C	c #D2D2D2",
"D	c #7C7C7C",
"E	c #868686",
"F	c #1F1F1F",
"G	c #747474",
"H	c #444444",
"I	c #2F2F2F",
"J	c #ABABAB",
"K	c #0A0A0A",
"L	c #999999",
"M	c #CCCCCC",
"N	c #E1E1E1",
"O	c #4C4C4C",
"P	c #ACACAC",
"Q	c #606060",
"                                ",
"                                ",
"                                ",
"      ....            ++...     ",
"     @.#$#%&         *=-&&&;.   ",
"    +>,'++)*        ,#!''&&*.   ",
"    ~.#,  {*        ,#    +!*   ",
"    @]*   ^/(_:<[}<-=|    +$>   ",
"     ~*++.~-12-<<<<}34*# +$-.   ",
"      *%56*'         +.**@.     ",
"      @78-              ]*+     ",
"     ~90'  abc           *$     ",
"     def  c}g:{   hi:    ,$     ",
"    .j=   ceklm   *7n    ,#     ",
"    +o,    pq     rst    .*     ",
"    .*+                  +*   ''",
"    ;#'      uv..        :-  '&'",
"    w['    @@*x:y*      z<  *Ae*",
"    w<'   +**B'''*     <*.  !CjD",
"    ,%,   ,A.   '&  rEh&    & !+",
"     >$#+  ##hD,BF 'GHf   +#&D' ",
"      ;z-+  +)[~Ip*9J     *''#  ",
"       ;&*~..+++  *K*'+  '&!,   ",
"         +$-L>>~*! +&*9!MN!     ",
"          +'!AOP,    '[*QN+     ",
"             +m{       +*       ",
"                                ",
"                                ",
"                                ",
"                                ",
"                                ",
"                                "};
